<mxfile host="app.diagrams.net" agent="Mozilla/5.0 (Windows NT 10.0; Win64; x64) AppleWebKit/537.36 (KHTML, like Gecko) Chrome/131.0.0.0 Safari/537.36" version="25.0.3" pages="2">
  <diagram name="open" id="zegkmu1z7AYt6hvVBYM0">
    <mxGraphModel dx="2074" dy="1098" grid="1" gridSize="10" guides="1" tooltips="1" connect="1" arrows="1" fold="1" page="1" pageScale="1" pageWidth="850" pageHeight="1100" math="0" shadow="0">
      <root>
        <mxCell id="0" />
        <mxCell id="1" parent="0" />
        <mxCell id="2CcRFRfwzxdMe1-ry_kX-113" style="edgeStyle=orthogonalEdgeStyle;rounded=0;orthogonalLoop=1;jettySize=auto;html=1;entryX=0.5;entryY=0;entryDx=0;entryDy=0;fillColor=#dae8fc;strokeColor=#6c8ebf;strokeWidth=2;" parent="1" source="2CcRFRfwzxdMe1-ry_kX-108" target="2CcRFRfwzxdMe1-ry_kX-112" edge="1">
          <mxGeometry relative="1" as="geometry" />
        </mxCell>
        <mxCell id="2CcRFRfwzxdMe1-ry_kX-108" value="3rd party APIs" style="rounded=1;whiteSpace=wrap;html=1;fillColor=#ffe6cc;strokeColor=#d79b00;labelPosition=center;verticalLabelPosition=top;align=center;verticalAlign=bottom;" parent="1" vertex="1">
          <mxGeometry x="474.77000000000004" y="1060" width="120" height="270" as="geometry" />
        </mxCell>
        <mxCell id="2CcRFRfwzxdMe1-ry_kX-81" style="edgeStyle=orthogonalEdgeStyle;rounded=0;orthogonalLoop=1;jettySize=auto;html=1;startArrow=classic;startFill=1;fillColor=#d5e8d4;strokeColor=#82b366;strokeWidth=2;" parent="1" source="2CcRFRfwzxdMe1-ry_kX-78" target="2CcRFRfwzxdMe1-ry_kX-58" edge="1">
          <mxGeometry relative="1" as="geometry" />
        </mxCell>
        <mxCell id="2CcRFRfwzxdMe1-ry_kX-31" style="edgeStyle=orthogonalEdgeStyle;rounded=0;orthogonalLoop=1;jettySize=auto;html=1;entryX=0;entryY=0.5;entryDx=0;entryDy=0;fillColor=#f8cecc;strokeColor=#b85450;strokeWidth=2;" parent="1" source="2CcRFRfwzxdMe1-ry_kX-1" target="2CcRFRfwzxdMe1-ry_kX-28" edge="1">
          <mxGeometry relative="1" as="geometry" />
        </mxCell>
        <mxCell id="2CcRFRfwzxdMe1-ry_kX-17" style="edgeStyle=orthogonalEdgeStyle;rounded=0;orthogonalLoop=1;jettySize=auto;html=1;entryX=0;entryY=0.5;entryDx=0;entryDy=0;startArrow=classic;startFill=1;fillColor=#d5e8d4;strokeColor=#82b366;strokeWidth=2;" parent="1" source="2CcRFRfwzxdMe1-ry_kX-1" target="2CcRFRfwzxdMe1-ry_kX-6" edge="1">
          <mxGeometry relative="1" as="geometry" />
        </mxCell>
        <mxCell id="2CcRFRfwzxdMe1-ry_kX-1" value="User" style="aspect=fixed;sketch=0;html=1;dashed=0;whitespace=wrap;verticalLabelPosition=top;verticalAlign=bottom;fillColor=#2875E2;strokeColor=#ffffff;points=[[0.005,0.63,0],[0.1,0.2,0],[0.9,0.2,0],[0.5,0,0],[0.995,0.63,0],[0.72,0.99,0],[0.5,1,0],[0.28,0.99,0]];shape=mxgraph.kubernetes.icon2;prIcon=user;labelPosition=center;align=center;" parent="1" vertex="1">
          <mxGeometry x="80" y="151" width="50" height="48" as="geometry" />
        </mxCell>
        <mxCell id="2CcRFRfwzxdMe1-ry_kX-35" style="edgeStyle=orthogonalEdgeStyle;rounded=0;orthogonalLoop=1;jettySize=auto;html=1;entryX=1;entryY=0.5;entryDx=0;entryDy=0;strokeWidth=2;fillColor=#dae8fc;strokeColor=#6c8ebf;startArrow=classic;startFill=1;" parent="1" source="2CcRFRfwzxdMe1-ry_kX-5" target="2CcRFRfwzxdMe1-ry_kX-28" edge="1">
          <mxGeometry relative="1" as="geometry" />
        </mxCell>
        <mxCell id="2CcRFRfwzxdMe1-ry_kX-5" value="Credit Card APIs" style="shape=image;verticalLabelPosition=bottom;verticalAlign=top;imageAspect=0;aspect=fixed;image=data:image/png,iVBORw0KGgoAAAANSUhEUgAAAS0AAAFfCAYAAAFsDqqyAAAACXBIWXMAAAsSAAALEgHS3X78AAAgAElEQVR4nO2d71HduBrG5Tv7+R62gnALYEIqCKkgpIET8GdmklSQbAVL5vL5JLiBTSoIVLBwKWBJBcmpwHfESqwQki3JemVJfn4zDHCO/7x+/fix/llu+r5nOfKvLKNCYAFEDWx1dhNNsNECk0FFC45flVN//v3f//VyG/xv9f/Qn6hBxQwuelCxgiMJKkZwZEFNDW5yUP/+7/9+OizjHVyUTBmuyqupmZuSqSuTTahBsePz4MxNzpQW3Gc1KD0wn+CCgxrakS0on+Bi3ZK2AetcD34b4VT+NC03ciofXRxBGdue7DX6zXl1drPDv9qe7O0ww02836wbfTviu+vtyd7+6E5dr8qxzI3pxzVTXlflUHD//u//9h2W8QoqKLChzA3o0Cuo4MBcgwsNalJgY8FNCWpyYLbgpgYVJTA9uBhB8Z9oNXHF59x8aowYGVOyNTlT0TMWG7Rd+ILAfEFgvlgDa9ruQv+/aTsvb5Hb8F3vjsH71fH5595QDVO+HyxhsOPzi1CDHTuVr7UM9CJzR/rnyvenepa0vw/V5W07HgvsGTOU3/vN+vPQSrYd8s/7zfqLsp1H9QKnwPrN+mpMH03b7WrBvDFV57QsbUV2rdvGvdIXBOYLNOYLAvMlepdNVoFF70eKEZgMhrehMcZ+jRXcpMC0oPjvn7GCCw5MD0oSK7igwGxBxQzOO7CxoGIF5xWYKSjTjldnN0eTg/NpanLpNLUss+PbyeV0E7dlSv6vZkR+1rQdz9ZKFp9F8/uPMQlIRk/lwNXXaN9914PSlvc6rYMZcxG6mjk9KEsnhFPmKG7iMlPPLN/vumxkMDCThh5EYNCZkqU/m7bb15bn///porPRjNmCMwVlCi4kqDsS2cU+eZ+4qZ9oZB3voJx9TD+FzOGWFHT6FLyvyrELIkZQLNQuHK7WSUEFBzYUXIygJgVmCi5WUCxWTdx0E59MaFOkyUpibSvILlKBJgJfEJgvCMyXob6kU+Vv3hvy1nfjoi3/yGHRx1gLako/kanPSPYzDRb2RvqaJhUU2fH5h17psJI7s/3Wl1U7upR1dsb2+8vYqRB/fvA5fZbPP/O6QNN2B/1mfWFaRmVM/NuBathX0WnVOPZHvhbLX4z1IzG08weAwHzJVmO5ku2ZzBUkzBMkzJPBksUc6O0g0Wr1kcjG9PWmD9nirn42W3AKsydsrI0ot8TNljDfxrRcEpc8YVNbHedOXLKExW6enStx5Akjacd+uP2kiSNLmGuiXJZzeQglVeKiJ8wxAVf6gZvWG0oUHwjQb9Y7hm2TJo7iUaTRIIeW1QquxkTpwziGRk64xuTK5IRN8SifdV0TZdhH1MQFJyymmQ/1+IcmyrCPA8bYN/Fv8AN5uSjs/mlpG4bG42f8wQeHfewrI2QmP7k4t4c9StRY5ds1cbETdb//me6SO2K83eB6Q9uSXR2GbZMk6n6/hZXDhpYhTZSkhpJ+kkRJSq5LJk2UpMTWilkSJSmpPWzWRElKaHHNIlGSnNv0s0qUJLue77HK99xgqIAn6Mj1BAnzBAnzBAnzBAnzBAnzBAnzxDth6mw/hu/UWYPG5syZVABU53ty2V8svMeH8VmImrZ71OIpAn4l/r1kjD2XByb/Nhw0X+eF7JyQ25MHLwaPq1UkWweIur9HidO3K/i136x/6suOETSgTo6C10fEq1M62YJmWkLE/0P74u31D9Yd6jWyJF12tV0qi/5Qt+tK8AhEJWk/WWDXlwtjCTKhr8OVxE9Kv1kfTA4o5jOFU3/Y8fmB5UkZ4+dBj+VM3BYq356gWOEJEuYJEuYJPMwDqMsDJMsDJMsDJMsDJMsDJMsDJMuD7JLFRx/Gngc2FlklSx3+nWPCskmWPk6eZZiwLJKlJWo7NufqXMyeLEOi7oaV55iwWZNlS5Qkt4TNlqyxRElyStgsyXJNlCSXhCVPlm+iJDkkLGmyQhMlmTthyZI1NVGSOROWJFmxEiWZK2HkyYqdKMkcCSNNFlWiJKkTRpYs10Txg5SvjBjY1pUtGSkTRpKsAEV9siWMJ4ox9nRo5VQJi56sCQXORwlTE+XwlhXyhEVNlsel9+BRFVPCxhKlv09CX44iYTEfXnf2KPHns+3J3pXlu++MsSfMnqj7bVgeXCd5OjfWm7ecLz0l+D8HFOaSKKYOr7RsJ6rCYrwNzLt44JIwh0QNjkKkSNiky3BqOWroknwUqEeiLPuYfElOeWva5ALnkMJUQhPFIitsymWoTsIzpWR+Ln4b/WdKoiSxEjb5/S9TAlid3XyWrzoeuETO1X9CHiCIdSlGeSeNHpALjoniSjqakrCYnjXLe3KGEiUKpZ/4ExLqvDj83QH6C7fHLsnY5a0o5SwfhTkmivND3ETu8FUYRcE0WnXHI2EuiZIvjBhNmAmqEvwsU08Z1rlPlDLtlPoAlPGStEw9RTYREcloZc9Jzh4lSvnOmrCp+w2BpD3L9ZIcSpT47Mp2SRq2RZooRj0O3nWyMgf1Db4mL0WiWCWTmSVJFEvRu0PZIJcyUSxVvyFFwlIniqXskY6ZsDkSxVKPdYhU+Z4lUWyOUTQTK9+zJYrNNT4rJGFzJ4rNOfLPs/I9e6LY3GNKXRKWS6JYDqOVhxKWU6JYLuPgTQnLLVEst2ekTZdiTu8yy+rZHT0xub30LbunwoZ6pOcGUxV4gIczPUCyPECyPECyPECyPECyPECyPECyPECyPECyPECyPECyPECyPECyPAiZBv1i7LsUU5Kr+0g1BXqIsp7LSalVRMD3U503bWd94JLi4Jq2ext7mzohs3mf66OGJXLYItXM3jZS7S+opVQo4/7xtabtbvmTXOo87dqc7c/EcMf7R+Mkcgp1fS55y4T4zLYP2/J88v5+s76I8aTGFINXHx95MjKK+E8eXL9Z76rqcwz42mNZdbu/if8vxMl8sE8xiNeLoGRpKthh/wy7Hl0+YF/629FdJ8Z/r+yXn8zv4t0YF0LhRisZIvgNBEy5/KZsw2Ef3j6hvDtD5YirbEosUy7DjzJRhK9quH8VhOs+lPda6In5Zl7DnSnvtnjbtN2b0PUNLwQxKYj7ypuhN7Bo2zxS/r7fvvryEmXxa/0SHyWXd1iw4/OdgWWt36X8QSerB6gbeoBkeYBkeYBkeYBkeYBkeYBkeYByFiADVyIgA+ICZEBcgAyIC5ABcQEyIC5ABsTlSM6vzMsVtHONYHprHsv0CdzcgLgs2ESlA5HZgbg0BkS1ZYzt2gQHkT0G4hIMiUqf433I1SCyf1i8uHxE5bHu4kXGliyuKaLy2NaiRbY4ccUUlce2FymyxYiLUlQe+1qUyKoXV0pReex7ESKrVlxzisojlqpFVp24chKVztJEVo24chaVzlJEVry4ShKVTu0iK1Zckdup+HPvb7cne95TRRi2xecVOfXZVq0iK05cBKJaaR8fh4hMfYG9wqvtyd4Xj21UJbJixEXc+GlKgpPILKK63p7s+U088XCbVYgse3Elbvx0FhmFqAz7KFpk2Yor8u1PFcIz8SbUoeWtIpsiKjGnkbwN38/75hB/kSLLTlwUTmURS6jIVEJE9SiOWkWWjbhS3P4iiiyGqO4ImfmtFJHNLq452qlCReYKlah0chfZbOLKofEztshSiUonV5ElF1eOLepT39g4l6h0chPZHC+pfjT3umDw5FCxOrsxtWVtXXcnJoAei/1ZosPZtXx+nWj/D5i1zGWrjaW4yoSo9Mmug91TiGxs8mznmqEPq7ObfW2WdknUdjdfsqgtphRZqKhWZzfcFY62J3sfhpZLKbJcRSXJ/m3VLJLIJoiKzzf+yfDVrwO3eFKR5S4qSZYt9DFFRiAqnckicy3slyIqSdZ9i7FEptSigkUl9zlwgr1FVquoJEWMikhRJhsTlWH5UJGd8teNOMZUpKgkRY3nohCZr6gM6weJLHCbRYhKUuRI1Ii3y0cnMVSoMbZVi6gkRY+hjymyWP2KIduqTVSSKp7+mbMxdgq1ikpS1XOLpYisdlFJqnziOleRLUVUkqrnishFZEsTlWQRs9zMJbKlikqyqPm5Uols6aKSLHJmQSqRQVQPWfScqJSNsYJFikqy+Al32QSRQVTDQFwKriKDqNyAuAwMPAz7DKJyB+IaINYT10sF4nIg9InrpQNxecAnIYGo3IG4ABl4mScgA+ICZEBcgAyIC5ABcQEyIC5ABsQFyIC4ABkQFyAD4gJkQFyADIgLkAFxATIgLkDGL9SpbdpOHdPjNAeoNq/7cb9Zf9a281u/WQ9OfGvZ7gH7e0a/C991Y9G0Hd/3c6bNLKgd33m/WR/NFWMsyJ1Lm5rRNP78AXzmPUVYl1xYynYuGWPvJgjrm/jJDnF8X8XxFS8slsK5mEicvDL5b9tcoE3b8em43yjrHSjf8YTzq35HW+dITO7/ud+sb5u2499/EcudSnGOiappu3vBmsTr8D0foco/579veQz9Zn06mJjHx3FlOD6XC+nu2LX1eE5Ole3xXDi/tTYGScQleCFPML/t9Zu1aeLbv+QfBgEeyduJOIn65++bttO3d9S03SFj7KX6oXYLeiFuk++Vz0wn1Pi9tq3vQth3MTVt97vlWEzYju/92Iqq2PXbqxAY3/YfMj8pXhXDUoqLn8Cm7c7FjMYrfeJZNSkTDt5aFou0/UdYtvVWOMdfYt8HoeU8ffvqdvmDIv1mva98J4/xe79Zq69quRAX2oUQvfXuEZOUzsUTJZ2El6neCIHxW5lq6S8mbN+7LBaLpu34hfI78T7uKzoG0R0o/z7RHGwWkoqL/Z2UHeXA/2ra7hVPhvj/fM6anC+inCRngr42nPAoJ1iU52Rl6FIti0rEnUH++7XfrA+jHmwAs7RzaSfhD/F7m7qWJE6a5KPy+WdtOVvzyf0U4+rticUV1k8pLJ43k7AU3ok/X5r2z4+Lfy5ureQkdy6F/2gFeNJ3Leo1Vvl503Z3BXpe/hOi4ifyddN26tsuXoga6SfDNm8NtyFe5mmmCkzUFFfK/8btyYtV1E5PRXPOG8vyx3rNkgo8twjIQPcPIAPiAmRAXIAMiAuQAXEBMiAuQAbEBciAuAAZaEQFJMC1AAkQFiABwgIkQFiABAgLkABhARIgLEAChAVIgLAACRAWIAHCAiRAWIAECAuQAGEBEiAsR/jLOFdnN1XMfZUCCMsBLirG2FP+xDTE5QaENYIiKgnE5QCENYBBVBKIawQIy8KAqCQQ1wAQlgEHUUkgLgsQlsaAqJ7xydgMn0NcBiAshSFRbU/2rrYne/sQlxsQlmBMVPIfiMsNCMtDVBKIa5zFC8tXVBKIa5hFCytUVBKIy85ihTVVVBKIy8wihRVLVBKI6zGLE1ZsUUkgrocsSlhUopJAXP+wGGFRi0oCcf3NIoSVSlQSiGsBwkotKsnSxVW1sOYSlWTJ4qpWWHOLSrJUcVUprFxEJVmiuKoTVm6ikixNXFUJK1dRSZYkrmqElbuoJEsRVxXCKkVUkiWIq3hhlSYqSe3iKlpYpYpKUrO4ihVWLFGtzm72V2c3Ud77sjq72fHdVq3iKlJYMUUl3m7PpoqLi4ox9iNkWzWKq7iXNEUU1b0QVLYne01ATFG2NXBsx9uTvc++cc1JUY4Vs0y1Pdn7yU+YYR9eV5pNVIyxX322wypzrmKERVFQFy4QLK4hUQnhhsRUhbiKEBZl7S9UXBSiUmIqXlzZCytFk4KvuChFpcRUtLiyFlbMgvrq7GbwhLuKa4qomrbbb9rOWXgliytbYRHU/lZTxTVVVKJpY7UEcWXZ3EDcpLDdnuztjKzHT9gnx934iOpBHP1mPRiHFlNRTRHZORZBk8K5votQ5zIQKipWu3NlJSyiJoUjInFNEdV9HE3bOYuiJHFlIyziJoXY4oohKs5xv1l73cZKEVcWwkrUpBBLXLOJSokpe3HNXnhPPfRldXbDT+Zr7ePRAr0r1KJSyblAP6tjzTGeKtS5XEgpKpa5c80mrDkH6VGIK7WoJLmKaxZh5TDyM6a45hKVJEdxJRdWTsOJB8T1xXUbc4tKkpu4kgprdXZzaBHV17nGqAtx6bx0WTcXUUmEuEy49iJEI6mwtid7XyztQi9FbS05lhEMz1zi6Ddrl4vhNNUxDdzGvQcdTiX5rXCg0fF1anHZROXjnv1mPTb82KvrJhQhqpVh9WhDeXyYpfCeg7hiiEoyt7hyExWbs7lhTnHFFJVkLnHlKCo2dwPpHOIKFRWvWYnHxaykFleuomK5jMcaGP90bqm1he4nVFTqetcDta87mrYbS6rXWCxLTNmKiuXSCZ3CuSKJivNUtMVZoXau3EXFcho2QymuiKKSzCauEkTFchvoRyEuAlFJYonL+VZfiqhYjkOTCcSld3OEiop3/Wy1z6aKy7lVviRRsVyf0okpLq0PLVhUvBIhxmzFEle1omK5TwoSs7a4OrvZ3Z7s3Y4sYxWVtpzpRPvUFqsWFSthtpmZmyKs+5ggrqPaRcVKmcaIWly+olLWCxKXY0zFioqVMinIDE0RToINLXM5xFS0qFhJ0xglbIrwcsHY4qpBVKy0idcIxKULIujWahGXt7BqERUrcQ7SyE0RqiAmldembqsmUbFSJ7clENfHGJWA0G3VJipW4uS2KqmaIiipUVSs9BcI5DTMOYRaRcVqeOVJqeKqWVSslpc0lSau2kXFanqtXCniWoKoWG0vwsxdXEsRFavx1b25imtJomK1vmw8N3EtTVSsVmGxjMS1RFGxmoXFMhDXUkXFahcWm1FcSxYVW4Kw2AziWrqo2FKExRKKC6L6m8UIiyUQF0T1D4sSFiMUF0T1kMUJixGIC6J6zCKFxSKKC6Iys1hhsQjigqjsLFpYbIK4IKphFi8sFiAuiGocCEvgKi6Iyo2iH6agYOgBDcbYIUTlBoRlIPY7oZcIboUGYr4TeqlAWBZivBN6yUBYA0x5J/TSgbBGCHknNEDh3RlRoP8CUbkBYQEScCsEJEBYgAQIC5AAYQESICxAAoQFSICwAAkQFiABwgIkQFiABAgLkABhARIgLEAChAVIgLAACRAWIAHCAiRAWIAECAuQAGEBEiAsQAKEBUiAsAAJEBYgAcICJEBYgAQIC5AAYQESICxAwi+UaW3ajs8ttSv+Pew3a6cpgJq2eysmkr1fr2k7OS3Ou36zPqWJmB7lOC77zfpAOWb5+cd+s35b6vFJqB3rA2Psufj54bHe73I9IaoP2ndBNG130LTdTtxDnI64kCRvcosvBFJh9Zv1rfq/y0lt2u5C+fej+H1rWdwZ4QjfGGP7U7dFwEXyPRKTooz1m/K3SwKfyz/kLaHfrPkt9Z24fTQkUc5Iv1lfiekoL/lUlDUcE2kZi/2dtA9N270X/z4dWrZpuyPl3+/adni5qtiy1Rji4kn2dn1qyIUl4CJ5woR4RBJNqJP2H6jfK+WsW3V98fn9Z0Kc3Ol+qoXjMZTtX/Sb9SNndfheVjj4rZZ/f+RaWdG2f3cxKseyO7iisrwlHhnzo2UoSSWsfaXw/snlytTLZ4wx6XqX2vp3n4uy2ZX+ShKltiX51rSdup9G3Y7AdMs2ft+03ZXBiV/y423a7rzfrI+YG+r2pQiO1KLBAPeiadru1FABeC7uGpc+F9sUkrRjuVy5Tdt9Uf79bWBRG58t77kho2m7W01Ul+JH8prXRInDuN+faN5RRXUsyqayWPFcCI+cVI4lD/KTSMCF4cp5Kf8ItG1+ZW/7zfpBzZM7kji538RHL0y3shD6zXpXOOKrfrNWLwzVKfnnQU0cNndRXVhb5rX4/Z3Hpnx+Ki7cl0J45O1kyVretXLVA3tv2u5Q+fdBod1zH8nbqLhwdVFpRHXRpu3u3V+tIauOr4lKfnaoLEt+O0zpWJxreevQCvF/KMuEtjNdOixTNOI2JoX6SjuWe8fX2gJNHFC3naUW1sFYId6nJpULTdvtimNxKWgHIfYhy0+XIy45Fgd5jpMKS3TPPPhMFDgl71LGEwNDrZOKv+SGx2p2OTQip3YsphXiPysFTlZa57ImqgeVgpiCs5WrNO7bCnMg+bAZrRD/Wvn7OouMODRIGngVq6apIy4+Wa56NrCo2paVtDHUxFzjsUwF7SQNd7JbaKBDXBW7HBHxyH1EmUeyq30XxXmbtttX4vkq+hSNaBfse11cPF5+HKr7UTLHrfCujKCfLMpCO3cTpWz3VO67aTu13etSFnpdbmO8Z0DZ5u+iC+VWKThvIzQ1/Kn8/dISl9qa/qtSOXqv9NGqrPhFRV1JymUEqcv7l6diqhioZZcDy+34+0C5Rr01PVFE9WqO4TlCLEOjI76Ldjdy11rc+wpl4+BQmUgsc2vor7Qtz2+Fu1TlrFDmjAsvwgQk4GEKQAKEBUiAsAAJEBYgAcICJEBYgAQIC5AAYQESICxAAoQFSICwAAkQFiABwgIkQFiABAgLkABhARIw0A8AUBS4GwIAigKmBQAoCpgWAKAoYFoAgKKAaQEAigKmBQAoCpgWAKAoYFoAgKKAaQEAigKmBQAoCpgWAKAoYFoAgKKAaQEAigKmBaKzOrvZWZ3dHCKzgAJMTQOiwc2KMcZfpPhU2ebx9mTvM7IMYgHTApOxmJUOzAtEAaYFgnE0Kx2YF5gETAt4E2hWOjAvEARMCzgTyax0YF7AC5gWGCXArLaMsVtUGwEFMC1gJdCsDrYne1cMbV6ACJgWeMRUs4qwPQbzAjZgWuCe2GalA/MCMYBpAXKz0oF5gSnAtBZMarPSgXmBEGBaC2Rus9KBeQEfYFoLIjez0oF5ARdgWgsgd7PSgXmBIWBaFVOaWenAvIAJmFaFlG5WOjAvoALTqojazEoH5gUYTKsOajcrHZjXsoFpFczSzEoH5rVMYFoFsnSz0oF5LQuYVkHArIaBeS0DmFYBwKz8gHnVDUwrY2BW04B51QlMK0NgVnGBedUFTCsjYFa0wLzqAKaVATCrtMC8ygamNSMwq3mBeZUJTGsGcjSr1dnNPmNsd3uy92WuvJgQuTqgjAvmVRYwrYRkbFY8ppXy8ewXpCVXpHHBvMoAppWAgsxKJ/kF6ZgrmNeCgWkRknOb1ers5ogx9slxcfIL0jNX1yJPPzOKSQLzIgamRUBJDexzm1eOZqUD88oLmFZESu4NTG1eJZiVDswrD2BaEahp6AK1eZVoVjowr3mBaU0g0wZ2HtPO9mTvduJ2oprXXGbVtB3vcGD9Zh095zCveYBpBZCxWakxRdnnVPOa2azU3tG7fMC8ygem5UEhZkUSg695Mca+ZGJWOjCvwoFpOZD50AUu+NepYvI0rzFSmpUOzKtQYFoDFDZ0oSTzmtOsdGBehQHTMlD40IWczSsns5Ic95t1TgNn7+OCeZmBaSlUNnQhJ/NapFnpwLziANOqfIqY1OYl9nnIZ4zgjfFTh15ISjYrHZjXNBZtWkuaz2oO84pBTWalA/MKY5GmteTJ90oxr5rNSgfm5ceiTAszhf5Drua1JLPSgXm5sQjTglnZycW8lmxWOjCvYao2LZiVO67mtT3Za2LuF2ZlB+Zl5l85BhUL0cV+6rE5fuG8zfuo4uNR2voac+dN2/Fz8+dEw+I3mme1GZZgV/y4ci0en6qaxbRpBYzgPt+e7B0RhjQ7GVUNXeMYgmxke2ocp8JWyXIKHyoW13sI88q6EX7R5gWzcmOx47SWaF4FDXdYlHnBrPxY/Ij4JZhXwQNLqzYvmFUYizctSY3mNdPzh6faRXjJGDuccqHVZl4wq2nAtDRqMK9MZ3qYfOGVbl4wqzjAtCyUaF6FzKm1OPOCWcUFpjVCCeZV6Oyl1ZsXzIoGmJYjOZqXx4jpHKdalsxtXtFH0sOsaIFpeVKYec1hVvfH63nxpjYvmFWhwLQCydy8duc0K8N2cjIvmFXhwLQmUulQiShmZdjunOYFs6oEmFYkKhkqQWJWhv0kNa/YwKzmBaYVmUKHSiQxK8N+izIvmFUewLSIKGSoxCxmZYgja/OCWeUFTIuYjBvsbx0vwmRm6mkO77Ynez5zpVHHw2BWaYBpJSJT8xq6KGerts4dF8wqb2BaiSnAvLLpIEgdF8yqDGBaM4HJCPMBZlUWMK2ZgXnNB8yqTGBamQDzSgfMqmxgWpkB86IDZlUHMK1MgXnFA2ZVFzCtzIF5hQOzqhOYViHAvNyBWdUNTKswYF52YFbLAKZVKDCvf4BZLQuYVuEs2bxgVssEplUJSzIvmNWygWlVRs3mBbMCDKZVLzWZF8wKqMC0Kqdk84JZARMwrYVQknnBrMAQMK2FkbN5wayACzCthZKTecGsgA8wrYUzp3nBrEAIMC1wR0rzglmBKcC0wAMozQtmBWIA0wJGYpoXzArEBKYFBpliXjArQAFMCzgRYF4+wKyAMzAt4EVk84JZAW9gWiCIieYFswLBwLTAJDzNC2YFJgPTAlEYMS+YFYgGTAtERTMvmBWIDkwLAFAU/8LpAgCUBEwLAFAUMC0AQFHAtAAARQHTAgAUBUwLAFAUMC0AQFHAtAAARQHTAgAUBUwLAFAUMC0AQFHAtAAARQHTAgAUBUwLAFAUMC0AQFHAtAAARQHTAgAUBUwLAFAUMC0AQFHAtAAARQHTAgAUBUwLAFAUMC0AQFHAtAAARQHTAgAUBUwLAFAUMC0AQFHAtAAARQHTAgAUxS84XfFp2m6fMXbAGPvJGLvoN+vb2o6xFJq2O2WM7WvhXvWb9VvbITRttyvO3444f1dLz2NOFG1aTdt9YIy9N3x13W/WulCp9nXZb9YHYhn++5thXf7rRb9ZX8SMCTjBdfDcZUFhVn8ZPue/XvWb9RekfH6Krh72mzU3kq+Gr542bfc51n6atjuyGNZWGpbgcGAzR7HiGaNpu4um7Xrl52DaFhfD0DmylsxAWopv0+o3a24U3w1fvRZmMwlx9/1k2caD0pyoclwaluOlsSSmJb1/CbYAAAT+SURBVOJ1KlmAh4ib4LkhLdcjNySQkFratLh5/DB8/qlpu6uJbRK2dY9NbVVayWsOkpXoakTcXJDDjKmi97DfrHmD9wvL17yqtBOy3abteBvGyvDVb/1mHa36GRlUBUHVVNN7yBu5m7Z7xxj7XfuKm86FoQdpENHw/tKwzFdRjTDC25MM1bNLWwnMsPz3frPeZf/0QnLjfGI55ka03e2K4zMZLOebaEw28aCDgLeDGZb5beiYteMJWl9U5T/YjlVjyxg7dY3JB8v5u8u1IWbjsoEMdtSIdkl+vC77480lHzK+sU6iqiEP/WZ9Ki7019pXvGH+dKibW6Vpu0NLw/t30YZGyRMhUN5V/3RgP7LtTD/WYhBGdTpgtjb48u+btuPn6KPrec0Zk2GJGsLFiA5MPBFNI59Ee9yBqI1UQXXjtHibhLjo9Tv2G9G+NXj3EQ3Zf1i+TlX10odNcOHdivY1GQO/2B+UAGxDLjIebvHTYFiXopTwIF5xAZ8aTJqf151UHR0qvu2XlpLZ1lQLEDdOkw7vOgVM7akiR5+1GgI3vB9N21Uz5KbWwaX74iLXLwh+9xkb7Gk7sS9mGCRa9dguMe7pUbXLsiw3uCPRzqhfzK9FSTrLQaADBmQsJQ4szzt/rDddkaNDy3izb665zp0qH+MRJ892F7QKW7QPmdpU3iU2D373/RWDUR8zMMAzqLOFGl66NxgQP7//GajWmozpo2sblbi5ftQ/b9quirFm1T7Gw++6TdsdG8ZYrURp64GpiRNqah86521ltNE+4qqmNohQRPvkjnYDytKcdAZKS4OdEqKKb2rj49XgNxPDKiJ3Y1T97CG/MwkR6Gb0nPcOSvGIZfReRyYa3jFmhxjPnrESjufK0HjOS1e7E25G16INMJRbSwmuOKp/YFo0zJtGib8XDfNfxLACHWMDKYiHqI7bej+vRfsi//npMCxjdkRvqOnpCechI2LojumrLxRDPEpkEbM88Kpg03amnqrTgeJ4Vd3EuSEa1PVxcJeiZ6yovA8MTQgtXZ0bzPy96GxYvCaXNJ+WqdTEG91N7QTHlU1H4lNivDZ89nbsqQL+vTCiUcSNwjRw98PYRRnjedKYiHh+GAyLd97shJiMaJIwPU/Lhy44n0tew+BttaKmUQ2LmU+L96hYGuZ1zksdSTxQtfhdXFxy9PyhMGxTteWtYazXSlww12KslBz6IbdlMqCxOLeGEu4X3oBtGKO1L2L3HWRJiqXtiomeux3xVIULt7rm+FMRlu3/Kc7xtciJenPdF+dDbwr5XZy7KmoPi5oEUDTM71pGuzMxD1fpDe8vLANMnxo6G3iVY1c9ZmEo/xEXg24qT0dM/1gYmS2/KruGKtVq5JEjJqpOFw43H1KEIdlM1LeX79LUSM7nhBN6/WLYl+l82uA5e1tL1XJxM5fykoWo6jwqZkeaocFUrRyqavouP4gopTSiy912YckS0xeTkMU4n7vqoBgKcmTZjrzYHmxHtB+qjzuZZsP4Kc+B2Mdbyxi5r+Ki1ffBtNkYbBdkjPNh4tYyDVEI1n2KcyHzJEu2ptKU5L4Do9ZJC5u+z7IjBgAAjODFFgCAooBpAQCKAqYFACgKmBYAoChgWgCAooBpAQCKAqYFACgKmBYAoChgWgCAooBpAQCKAqYFACgKmBYAoChgWgCAooBpAQCKAqYFACgKmBYAoBwYY/8Hm23fSmwwMM8AAAAASUVORK5CYII=;" parent="1" vertex="1">
          <mxGeometry x="580" y="281" width="93.47" height="109" as="geometry" />
        </mxCell>
        <mxCell id="2CcRFRfwzxdMe1-ry_kX-7" value="" style="group;strokeWidth=1;" parent="1" vertex="1" connectable="0">
          <mxGeometry x="230" y="120" width="190" height="110" as="geometry" />
        </mxCell>
        <mxCell id="2CcRFRfwzxdMe1-ry_kX-6" value="Application under test&lt;div&gt;(front-end/middleware)&lt;/div&gt;" style="rounded=1;whiteSpace=wrap;html=1;fillColor=#d5e8d4;strokeColor=#82b366;labelPosition=center;verticalLabelPosition=top;align=center;verticalAlign=bottom;" parent="2CcRFRfwzxdMe1-ry_kX-7" vertex="1">
          <mxGeometry width="190" height="110" as="geometry" />
        </mxCell>
        <mxCell id="2CcRFRfwzxdMe1-ry_kX-59" value="" style="image;aspect=fixed;html=1;points=[];align=center;fontSize=12;image=img/lib/azure2/identity/Multi_Factor_Authentication.svg;" parent="2CcRFRfwzxdMe1-ry_kX-7" vertex="1">
          <mxGeometry x="62" y="21" width="68" height="68" as="geometry" />
        </mxCell>
        <mxCell id="2CcRFRfwzxdMe1-ry_kX-32" style="edgeStyle=orthogonalEdgeStyle;rounded=0;orthogonalLoop=1;jettySize=auto;html=1;entryX=1;entryY=0.25;entryDx=0;entryDy=0;dashed=1;dashPattern=8 8;fillColor=#f8cecc;strokeColor=#b85450;strokeWidth=2;fontSize=20;" parent="1" source="2CcRFRfwzxdMe1-ry_kX-8" target="2CcRFRfwzxdMe1-ry_kX-28" edge="1">
          <mxGeometry relative="1" as="geometry">
            <Array as="points">
              <mxPoint x="560" y="175" />
              <mxPoint x="560" y="308" />
            </Array>
          </mxGeometry>
        </mxCell>
        <mxCell id="2CcRFRfwzxdMe1-ry_kX-41" value="&lt;font color=&quot;#f41010&quot;&gt;&lt;b&gt;X&lt;/b&gt;&lt;/font&gt;" style="edgeLabel;html=1;align=center;verticalAlign=middle;resizable=0;points=[];fontSize=29;" parent="2CcRFRfwzxdMe1-ry_kX-32" vertex="1" connectable="0">
          <mxGeometry x="0.3644" y="2" relative="1" as="geometry">
            <mxPoint y="1" as="offset" />
          </mxGeometry>
        </mxCell>
        <mxCell id="2CcRFRfwzxdMe1-ry_kX-34" style="edgeStyle=orthogonalEdgeStyle;rounded=0;orthogonalLoop=1;jettySize=auto;html=1;strokeWidth=2;fillColor=#dae8fc;strokeColor=#6c8ebf;" parent="1" source="2CcRFRfwzxdMe1-ry_kX-8" target="2CcRFRfwzxdMe1-ry_kX-5" edge="1">
          <mxGeometry relative="1" as="geometry" />
        </mxCell>
        <mxCell id="2CcRFRfwzxdMe1-ry_kX-8" value="Credit Card APIs" style="image;aspect=fixed;html=1;points=[];align=center;fontSize=12;image=img/lib/azure2/web/API_Center.svg;labelPosition=center;verticalLabelPosition=top;verticalAlign=bottom;" parent="1" vertex="1">
          <mxGeometry x="592.74" y="141" width="68" height="68" as="geometry" />
        </mxCell>
        <mxCell id="2CcRFRfwzxdMe1-ry_kX-18" style="edgeStyle=orthogonalEdgeStyle;rounded=0;orthogonalLoop=1;jettySize=auto;html=1;fillColor=#d5e8d4;strokeColor=#82b366;strokeWidth=2;startArrow=classic;startFill=1;" parent="1" source="2CcRFRfwzxdMe1-ry_kX-6" target="2CcRFRfwzxdMe1-ry_kX-8" edge="1">
          <mxGeometry relative="1" as="geometry" />
        </mxCell>
        <mxCell id="2CcRFRfwzxdMe1-ry_kX-27" value="" style="group;strokeWidth=2;" parent="1" vertex="1" connectable="0">
          <mxGeometry x="230" y="280" width="190" height="110" as="geometry" />
        </mxCell>
        <mxCell id="2CcRFRfwzxdMe1-ry_kX-28" value="" style="rounded=1;whiteSpace=wrap;html=1;fillColor=#f8cecc;strokeColor=#b85450;" parent="2CcRFRfwzxdMe1-ry_kX-27" vertex="1">
          <mxGeometry width="190" height="110" as="geometry" />
        </mxCell>
        <mxCell id="2CcRFRfwzxdMe1-ry_kX-71" value="" style="group" parent="2CcRFRfwzxdMe1-ry_kX-27" vertex="1" connectable="0">
          <mxGeometry x="61" y="21.5" width="68" height="68" as="geometry" />
        </mxCell>
        <mxCell id="2CcRFRfwzxdMe1-ry_kX-62" value="" style="image;aspect=fixed;html=1;points=[];align=center;fontSize=12;image=img/lib/azure2/identity/Multi_Factor_Authentication.svg;" parent="2CcRFRfwzxdMe1-ry_kX-71" vertex="1">
          <mxGeometry width="68" height="68" as="geometry" />
        </mxCell>
        <mxCell id="2CcRFRfwzxdMe1-ry_kX-64" value="&lt;font color=&quot;#ffffff&quot; style=&quot;font-size: 25px;&quot;&gt;&lt;b style=&quot;&quot;&gt;X&lt;/b&gt;&lt;/font&gt;" style="ellipse;whiteSpace=wrap;html=1;aspect=fixed;fillColor=#CC0000;strokeColor=#b85450;" parent="2CcRFRfwzxdMe1-ry_kX-71" vertex="1">
          <mxGeometry x="15.5" y="28" width="37" height="37" as="geometry" />
        </mxCell>
        <mxCell id="2CcRFRfwzxdMe1-ry_kX-38" value="- verify credit card flows&lt;div&gt;- get credit card info&lt;/div&gt;" style="text;html=1;align=left;verticalAlign=middle;whiteSpace=wrap;rounded=0;" parent="1" vertex="1">
          <mxGeometry x="429.82" y="130" width="170" height="30" as="geometry" />
        </mxCell>
        <mxCell id="2CcRFRfwzxdMe1-ry_kX-39" value="Error pages" style="text;html=1;align=center;verticalAlign=middle;whiteSpace=wrap;rounded=0;" parent="1" vertex="1">
          <mxGeometry x="285" y="390" width="80" height="30" as="geometry" />
        </mxCell>
        <mxCell id="2CcRFRfwzxdMe1-ry_kX-40" value="Sucess" style="text;html=1;align=center;verticalAlign=middle;whiteSpace=wrap;rounded=0;" parent="1" vertex="1">
          <mxGeometry x="285" y="230" width="80" height="30" as="geometry" />
        </mxCell>
        <mxCell id="2CcRFRfwzxdMe1-ry_kX-82" style="edgeStyle=orthogonalEdgeStyle;rounded=0;orthogonalLoop=1;jettySize=auto;html=1;startArrow=classic;startFill=1;fillColor=#d5e8d4;strokeColor=#82b366;strokeWidth=2;" parent="1" source="2CcRFRfwzxdMe1-ry_kX-45" target="2CcRFRfwzxdMe1-ry_kX-78" edge="1">
          <mxGeometry relative="1" as="geometry" />
        </mxCell>
        <mxCell id="2CcRFRfwzxdMe1-ry_kX-45" value="User" style="aspect=fixed;sketch=0;html=1;dashed=0;whitespace=wrap;verticalLabelPosition=top;verticalAlign=bottom;fillColor=#2875E2;strokeColor=#ffffff;points=[[0.005,0.63,0],[0.1,0.2,0],[0.9,0.2,0],[0.5,0,0],[0.995,0.63,0],[0.72,0.99,0],[0.5,1,0],[0.28,0.99,0]];shape=mxgraph.kubernetes.icon2;prIcon=user;labelPosition=center;align=center;" parent="1" vertex="1">
          <mxGeometry x="90" y="711" width="50" height="48" as="geometry" />
        </mxCell>
        <mxCell id="2CcRFRfwzxdMe1-ry_kX-58" value="" style="sketch=0;outlineConnect=0;fontColor=#232F3E;gradientColor=none;fillColor=#2875e2;strokeColor=none;dashed=0;verticalLabelPosition=bottom;verticalAlign=top;align=center;html=1;fontSize=12;fontStyle=0;aspect=fixed;pointerEvents=1;shape=mxgraph.aws4.systems_manager_session_manager;" parent="1" vertex="1">
          <mxGeometry x="464.74" y="696" width="78" height="78" as="geometry" />
        </mxCell>
        <mxCell id="2CcRFRfwzxdMe1-ry_kX-76" style="edgeStyle=orthogonalEdgeStyle;rounded=0;orthogonalLoop=1;jettySize=auto;html=1;entryX=0.5;entryY=0;entryDx=0;entryDy=0;fillColor=#dae8fc;strokeColor=#6c8ebf;strokeWidth=2;" parent="1" source="2CcRFRfwzxdMe1-ry_kX-73" target="2CcRFRfwzxdMe1-ry_kX-75" edge="1">
          <mxGeometry relative="1" as="geometry" />
        </mxCell>
        <mxCell id="2CcRFRfwzxdMe1-ry_kX-73" value="" style="image;aspect=fixed;html=1;points=[];align=center;fontSize=12;image=img/lib/azure2/security/Multifactor_Authentication.svg;" parent="1" vertex="1">
          <mxGeometry x="629.04" y="600.5" width="55.400000000000006" height="68" as="geometry" />
        </mxCell>
        <mxCell id="2CcRFRfwzxdMe1-ry_kX-74" value="&lt;font color=&quot;#ffffff&quot; style=&quot;font-size: 25px;&quot;&gt;&lt;b style=&quot;&quot;&gt;X&lt;/b&gt;&lt;/font&gt;" style="ellipse;whiteSpace=wrap;html=1;aspect=fixed;fillColor=#CC0000;strokeColor=#b85450;" parent="1" vertex="1">
          <mxGeometry x="659.04" y="640.5" width="37" height="37" as="geometry" />
        </mxCell>
        <mxCell id="2CcRFRfwzxdMe1-ry_kX-75" value="Authentication API" style="shape=image;verticalLabelPosition=bottom;verticalAlign=top;imageAspect=0;aspect=fixed;image=data:image/png,iVBORw0KGgoAAAANSUhEUgAAAS0AAAFfCAYAAAFsDqqyAAAACXBIWXMAAAsSAAALEgHS3X78AAAgAElEQVR4nO2d71HduBrG5Tv7+R62gnALYEIqCKkgpIET8GdmklSQbAVL5vL5JLiBTSoIVLBwKWBJBcmpwHfESqwQki3JemVJfn4zDHCO/7x+/fix/llu+r5nOfKvLKNCYAFEDWx1dhNNsNECk0FFC45flVN//v3f//VyG/xv9f/Qn6hBxQwuelCxgiMJKkZwZEFNDW5yUP/+7/9+OizjHVyUTBmuyqupmZuSqSuTTahBsePz4MxNzpQW3Gc1KD0wn+CCgxrakS0on+Bi3ZK2AetcD34b4VT+NC03ciofXRxBGdue7DX6zXl1drPDv9qe7O0ww02836wbfTviu+vtyd7+6E5dr8qxzI3pxzVTXlflUHD//u//9h2W8QoqKLChzA3o0Cuo4MBcgwsNalJgY8FNCWpyYLbgpgYVJTA9uBhB8Z9oNXHF59x8aowYGVOyNTlT0TMWG7Rd+ILAfEFgvlgDa9ruQv+/aTsvb5Hb8F3vjsH71fH5595QDVO+HyxhsOPzi1CDHTuVr7UM9CJzR/rnyvenepa0vw/V5W07HgvsGTOU3/vN+vPQSrYd8s/7zfqLsp1H9QKnwPrN+mpMH03b7WrBvDFV57QsbUV2rdvGvdIXBOYLNOYLAvMlepdNVoFF70eKEZgMhrehMcZ+jRXcpMC0oPjvn7GCCw5MD0oSK7igwGxBxQzOO7CxoGIF5xWYKSjTjldnN0eTg/NpanLpNLUss+PbyeV0E7dlSv6vZkR+1rQdz9ZKFp9F8/uPMQlIRk/lwNXXaN9914PSlvc6rYMZcxG6mjk9KEsnhFPmKG7iMlPPLN/vumxkMDCThh5EYNCZkqU/m7bb15bn///porPRjNmCMwVlCi4kqDsS2cU+eZ+4qZ9oZB3voJx9TD+FzOGWFHT6FLyvyrELIkZQLNQuHK7WSUEFBzYUXIygJgVmCi5WUCxWTdx0E59MaFOkyUpibSvILlKBJgJfEJgvCMyXob6kU+Vv3hvy1nfjoi3/yGHRx1gLako/kanPSPYzDRb2RvqaJhUU2fH5h17psJI7s/3Wl1U7upR1dsb2+8vYqRB/fvA5fZbPP/O6QNN2B/1mfWFaRmVM/NuBathX0WnVOPZHvhbLX4z1IzG08weAwHzJVmO5ku2ZzBUkzBMkzJPBksUc6O0g0Wr1kcjG9PWmD9nirn42W3AKsydsrI0ot8TNljDfxrRcEpc8YVNbHedOXLKExW6enStx5Akjacd+uP2kiSNLmGuiXJZzeQglVeKiJ8wxAVf6gZvWG0oUHwjQb9Y7hm2TJo7iUaTRIIeW1QquxkTpwziGRk64xuTK5IRN8SifdV0TZdhH1MQFJyymmQ/1+IcmyrCPA8bYN/Fv8AN5uSjs/mlpG4bG42f8wQeHfewrI2QmP7k4t4c9StRY5ds1cbETdb//me6SO2K83eB6Q9uSXR2GbZMk6n6/hZXDhpYhTZSkhpJ+kkRJSq5LJk2UpMTWilkSJSmpPWzWRElKaHHNIlGSnNv0s0qUJLue77HK99xgqIAn6Mj1BAnzBAnzBAnzBAnzBAnzBAnzxDth6mw/hu/UWYPG5syZVABU53ty2V8svMeH8VmImrZ71OIpAn4l/r1kjD2XByb/Nhw0X+eF7JyQ25MHLwaPq1UkWweIur9HidO3K/i136x/6suOETSgTo6C10fEq1M62YJmWkLE/0P74u31D9Yd6jWyJF12tV0qi/5Qt+tK8AhEJWk/WWDXlwtjCTKhr8OVxE9Kv1kfTA4o5jOFU3/Y8fmB5UkZ4+dBj+VM3BYq356gWOEJEuYJEuYJPMwDqMsDJMsDJMsDJMsDJMsDJMsDJMuD7JLFRx/Gngc2FlklSx3+nWPCskmWPk6eZZiwLJKlJWo7NufqXMyeLEOi7oaV55iwWZNlS5Qkt4TNlqyxRElyStgsyXJNlCSXhCVPlm+iJDkkLGmyQhMlmTthyZI1NVGSOROWJFmxEiWZK2HkyYqdKMkcCSNNFlWiJKkTRpYs10Txg5SvjBjY1pUtGSkTRpKsAEV9siWMJ4ox9nRo5VQJi56sCQXORwlTE+XwlhXyhEVNlsel9+BRFVPCxhKlv09CX44iYTEfXnf2KPHns+3J3pXlu++MsSfMnqj7bVgeXCd5OjfWm7ecLz0l+D8HFOaSKKYOr7RsJ6rCYrwNzLt44JIwh0QNjkKkSNiky3BqOWroknwUqEeiLPuYfElOeWva5ALnkMJUQhPFIitsymWoTsIzpWR+Ln4b/WdKoiSxEjb5/S9TAlid3XyWrzoeuETO1X9CHiCIdSlGeSeNHpALjoniSjqakrCYnjXLe3KGEiUKpZ/4ExLqvDj83QH6C7fHLsnY5a0o5SwfhTkmivND3ETu8FUYRcE0WnXHI2EuiZIvjBhNmAmqEvwsU08Z1rlPlDLtlPoAlPGStEw9RTYREcloZc9Jzh4lSvnOmrCp+w2BpD3L9ZIcSpT47Mp2SRq2RZooRj0O3nWyMgf1Db4mL0WiWCWTmSVJFEvRu0PZIJcyUSxVvyFFwlIniqXskY6ZsDkSxVKPdYhU+Z4lUWyOUTQTK9+zJYrNNT4rJGFzJ4rNOfLPs/I9e6LY3GNKXRKWS6JYDqOVhxKWU6JYLuPgTQnLLVEst2ekTZdiTu8yy+rZHT0xub30LbunwoZ6pOcGUxV4gIczPUCyPECyPECyPECyPECyPECyPECyPECyPECyPECyPECyPECyPECyPAiZBv1i7LsUU5Kr+0g1BXqIsp7LSalVRMD3U503bWd94JLi4Jq2ext7mzohs3mf66OGJXLYItXM3jZS7S+opVQo4/7xtabtbvmTXOo87dqc7c/EcMf7R+Mkcgp1fS55y4T4zLYP2/J88v5+s76I8aTGFINXHx95MjKK+E8eXL9Z76rqcwz42mNZdbu/if8vxMl8sE8xiNeLoGRpKthh/wy7Hl0+YF/629FdJ8Z/r+yXn8zv4t0YF0LhRisZIvgNBEy5/KZsw2Ef3j6hvDtD5YirbEosUy7DjzJRhK9quH8VhOs+lPda6In5Zl7DnSnvtnjbtN2b0PUNLwQxKYj7ypuhN7Bo2zxS/r7fvvryEmXxa/0SHyWXd1iw4/OdgWWt36X8QSerB6gbeoBkeYBkeYBkeYBkeYBkeYBkeYByFiADVyIgA+ICZEBcgAyIC5ABcQEyIC5ABsTlSM6vzMsVtHONYHprHsv0CdzcgLgs2ESlA5HZgbg0BkS1ZYzt2gQHkT0G4hIMiUqf433I1SCyf1i8uHxE5bHu4kXGliyuKaLy2NaiRbY4ccUUlce2FymyxYiLUlQe+1qUyKoXV0pReex7ESKrVlxzisojlqpFVp24chKVztJEVo24chaVzlJEVry4ShKVTu0iK1Zckdup+HPvb7cne95TRRi2xecVOfXZVq0iK05cBKJaaR8fh4hMfYG9wqvtyd4Xj21UJbJixEXc+GlKgpPILKK63p7s+U088XCbVYgse3Elbvx0FhmFqAz7KFpk2Yor8u1PFcIz8SbUoeWtIpsiKjGnkbwN38/75hB/kSLLTlwUTmURS6jIVEJE9SiOWkWWjbhS3P4iiiyGqO4ImfmtFJHNLq452qlCReYKlah0chfZbOLKofEztshSiUonV5ElF1eOLepT39g4l6h0chPZHC+pfjT3umDw5FCxOrsxtWVtXXcnJoAei/1ZosPZtXx+nWj/D5i1zGWrjaW4yoSo9Mmug91TiGxs8mznmqEPq7ObfW2WdknUdjdfsqgtphRZqKhWZzfcFY62J3sfhpZLKbJcRSXJ/m3VLJLIJoiKzzf+yfDVrwO3eFKR5S4qSZYt9DFFRiAqnckicy3slyIqSdZ9i7FEptSigkUl9zlwgr1FVquoJEWMikhRJhsTlWH5UJGd8teNOMZUpKgkRY3nohCZr6gM6weJLHCbRYhKUuRI1Ii3y0cnMVSoMbZVi6gkRY+hjymyWP2KIduqTVSSKp7+mbMxdgq1ikpS1XOLpYisdlFJqnziOleRLUVUkqrnishFZEsTlWQRs9zMJbKlikqyqPm5Uols6aKSLHJmQSqRQVQPWfScqJSNsYJFikqy+Al32QSRQVTDQFwKriKDqNyAuAwMPAz7DKJyB+IaINYT10sF4nIg9InrpQNxecAnIYGo3IG4ABl4mScgA+ICZEBcgAyIC5ABcQEyIC5ABsQFyIC4ABkQFyAD4gJkQFyADIgLkAFxATIgLkDGL9SpbdpOHdPjNAeoNq/7cb9Zf9a281u/WQ9OfGvZ7gH7e0a/C991Y9G0Hd/3c6bNLKgd33m/WR/NFWMsyJ1Lm5rRNP78AXzmPUVYl1xYynYuGWPvJgjrm/jJDnF8X8XxFS8slsK5mEicvDL5b9tcoE3b8em43yjrHSjf8YTzq35HW+dITO7/ud+sb5u2499/EcudSnGOiappu3vBmsTr8D0foco/579veQz9Zn06mJjHx3FlOD6XC+nu2LX1eE5Ole3xXDi/tTYGScQleCFPML/t9Zu1aeLbv+QfBgEeyduJOIn65++bttO3d9S03SFj7KX6oXYLeiFuk++Vz0wn1Pi9tq3vQth3MTVt97vlWEzYju/92Iqq2PXbqxAY3/YfMj8pXhXDUoqLn8Cm7c7FjMYrfeJZNSkTDt5aFou0/UdYtvVWOMdfYt8HoeU8ffvqdvmDIv1mva98J4/xe79Zq69quRAX2oUQvfXuEZOUzsUTJZ2El6neCIHxW5lq6S8mbN+7LBaLpu34hfI78T7uKzoG0R0o/z7RHGwWkoqL/Z2UHeXA/2ra7hVPhvj/fM6anC+inCRngr42nPAoJ1iU52Rl6FIti0rEnUH++7XfrA+jHmwAs7RzaSfhD/F7m7qWJE6a5KPy+WdtOVvzyf0U4+rticUV1k8pLJ43k7AU3ok/X5r2z4+Lfy5ureQkdy6F/2gFeNJ3Leo1Vvl503Z3BXpe/hOi4ifyddN26tsuXoga6SfDNm8NtyFe5mmmCkzUFFfK/8btyYtV1E5PRXPOG8vyx3rNkgo8twjIQPcPIAPiAmRAXIAMiAuQAXEBMiAuQAbEBciAuAAZaEQFJMC1AAkQFiABwgIkQFiABAgLkABhARIgLEAChAVIgLAACRAWIAHCAiRAWIAECAuQAGEBEiAsR/jLOFdnN1XMfZUCCMsBLirG2FP+xDTE5QaENYIiKgnE5QCENYBBVBKIawQIy8KAqCQQ1wAQlgEHUUkgLgsQlsaAqJ7xydgMn0NcBiAshSFRbU/2rrYne/sQlxsQlmBMVPIfiMsNCMtDVBKIa5zFC8tXVBKIa5hFCytUVBKIy85ihTVVVBKIy8wihRVLVBKI6zGLE1ZsUUkgrocsSlhUopJAXP+wGGFRi0oCcf3NIoSVSlQSiGsBwkotKsnSxVW1sOYSlWTJ4qpWWHOLSrJUcVUprFxEJVmiuKoTVm6ikixNXFUJK1dRSZYkrmqElbuoJEsRVxXCKkVUkiWIq3hhlSYqSe3iKlpYpYpKUrO4ihVWLFGtzm72V2c3Ud77sjq72fHdVq3iKlJYMUUl3m7PpoqLi4ox9iNkWzWKq7iXNEUU1b0QVLYne01ATFG2NXBsx9uTvc++cc1JUY4Vs0y1Pdn7yU+YYR9eV5pNVIyxX322wypzrmKERVFQFy4QLK4hUQnhhsRUhbiKEBZl7S9UXBSiUmIqXlzZCytFk4KvuChFpcRUtLiyFlbMgvrq7GbwhLuKa4qomrbbb9rOWXgliytbYRHU/lZTxTVVVKJpY7UEcWXZ3EDcpLDdnuztjKzHT9gnx934iOpBHP1mPRiHFlNRTRHZORZBk8K5votQ5zIQKipWu3NlJSyiJoUjInFNEdV9HE3bOYuiJHFlIyziJoXY4oohKs5xv1l73cZKEVcWwkrUpBBLXLOJSokpe3HNXnhPPfRldXbDT+Zr7ePRAr0r1KJSyblAP6tjzTGeKtS5XEgpKpa5c80mrDkH6VGIK7WoJLmKaxZh5TDyM6a45hKVJEdxJRdWTsOJB8T1xXUbc4tKkpu4kgprdXZzaBHV17nGqAtx6bx0WTcXUUmEuEy49iJEI6mwtid7XyztQi9FbS05lhEMz1zi6Ddrl4vhNNUxDdzGvQcdTiX5rXCg0fF1anHZROXjnv1mPTb82KvrJhQhqpVh9WhDeXyYpfCeg7hiiEoyt7hyExWbs7lhTnHFFJVkLnHlKCo2dwPpHOIKFRWvWYnHxaykFleuomK5jMcaGP90bqm1he4nVFTqetcDta87mrYbS6rXWCxLTNmKiuXSCZ3CuSKJivNUtMVZoXau3EXFcho2QymuiKKSzCauEkTFchvoRyEuAlFJYonL+VZfiqhYjkOTCcSld3OEiop3/Wy1z6aKy7lVviRRsVyf0okpLq0PLVhUvBIhxmzFEle1omK5TwoSs7a4OrvZ3Z7s3Y4sYxWVtpzpRPvUFqsWFSthtpmZmyKs+5ggrqPaRcVKmcaIWly+olLWCxKXY0zFioqVMinIDE0RToINLXM5xFS0qFhJ0xglbIrwcsHY4qpBVKy0idcIxKULIujWahGXt7BqERUrcQ7SyE0RqiAmldembqsmUbFSJ7clENfHGJWA0G3VJipW4uS2KqmaIiipUVSs9BcI5DTMOYRaRcVqeOVJqeKqWVSslpc0lSau2kXFanqtXCniWoKoWG0vwsxdXEsRFavx1b25imtJomK1vmw8N3EtTVSsVmGxjMS1RFGxmoXFMhDXUkXFahcWm1FcSxYVW4Kw2AziWrqo2FKExRKKC6L6m8UIiyUQF0T1D4sSFiMUF0T1kMUJixGIC6J6zCKFxSKKC6Iys1hhsQjigqjsLFpYbIK4IKphFi8sFiAuiGocCEvgKi6Iyo2iH6agYOgBDcbYIUTlBoRlIPY7oZcIboUGYr4TeqlAWBZivBN6yUBYA0x5J/TSgbBGCHknNEDh3RlRoP8CUbkBYQEScCsEJEBYgAQIC5AAYQESICxAAoQFSICwAAkQFiABwgIkQFiABAgLkABhARIgLEAChAVIgLAACRAWIAHCAiRAWIAECAuQAGEBEiAsQAKEBUiAsAAJEBYgAcICJEBYgAQIC5AAYQESICxAwi+UaW3ajs8ttSv+Pew3a6cpgJq2eysmkr1fr2k7OS3Ou36zPqWJmB7lOC77zfpAOWb5+cd+s35b6vFJqB3rA2Psufj54bHe73I9IaoP2ndBNG130LTdTtxDnI64kCRvcosvBFJh9Zv1rfq/y0lt2u5C+fej+H1rWdwZ4QjfGGP7U7dFwEXyPRKTooz1m/K3SwKfyz/kLaHfrPkt9Z24fTQkUc5Iv1lfiekoL/lUlDUcE2kZi/2dtA9N270X/z4dWrZpuyPl3+/adni5qtiy1Rji4kn2dn1qyIUl4CJ5woR4RBJNqJP2H6jfK+WsW3V98fn9Z0Kc3Ol+qoXjMZTtX/Sb9SNndfheVjj4rZZ/f+RaWdG2f3cxKseyO7iisrwlHhnzo2UoSSWsfaXw/snlytTLZ4wx6XqX2vp3n4uy2ZX+ShKltiX51rSdup9G3Y7AdMs2ft+03ZXBiV/y423a7rzfrI+YG+r2pQiO1KLBAPeiadru1FABeC7uGpc+F9sUkrRjuVy5Tdt9Uf79bWBRG58t77kho2m7W01Ul+JH8prXRInDuN+faN5RRXUsyqayWPFcCI+cVI4lD/KTSMCF4cp5Kf8ItG1+ZW/7zfpBzZM7kji538RHL0y3shD6zXpXOOKrfrNWLwzVKfnnQU0cNndRXVhb5rX4/Z3Hpnx+Ki7cl0J45O1kyVretXLVA3tv2u5Q+fdBod1zH8nbqLhwdVFpRHXRpu3u3V+tIauOr4lKfnaoLEt+O0zpWJxreevQCvF/KMuEtjNdOixTNOI2JoX6SjuWe8fX2gJNHFC3naUW1sFYId6nJpULTdvtimNxKWgHIfYhy0+XIy45Fgd5jpMKS3TPPPhMFDgl71LGEwNDrZOKv+SGx2p2OTQip3YsphXiPysFTlZa57ImqgeVgpiCs5WrNO7bCnMg+bAZrRD/Wvn7OouMODRIGngVq6apIy4+Wa56NrCo2paVtDHUxFzjsUwF7SQNd7JbaKBDXBW7HBHxyH1EmUeyq30XxXmbtttX4vkq+hSNaBfse11cPF5+HKr7UTLHrfCujKCfLMpCO3cTpWz3VO67aTu13etSFnpdbmO8Z0DZ5u+iC+VWKThvIzQ1/Kn8/dISl9qa/qtSOXqv9NGqrPhFRV1JymUEqcv7l6diqhioZZcDy+34+0C5Rr01PVFE9WqO4TlCLEOjI76Ldjdy11rc+wpl4+BQmUgsc2vor7Qtz2+Fu1TlrFDmjAsvwgQk4GEKQAKEBUiAsAAJEBYgAcICJEBYgAQIC5AAYQESICxAAoQFSICwAAkQFiABwgIkQFiABAgLkABhARIw0A8AUBS4GwIAigKmBQAoCpgWAKAoYFoAgKKAaQEAigKmBQAoCpgWAKAoYFoAgKKAaQEAigKmBQAoCpgWAKAoYFoAgKKAaQEAigKmBaKzOrvZWZ3dHCKzgAJMTQOiwc2KMcZfpPhU2ebx9mTvM7IMYgHTApOxmJUOzAtEAaYFgnE0Kx2YF5gETAt4E2hWOjAvEARMCzgTyax0YF7AC5gWGCXArLaMsVtUGwEFMC1gJdCsDrYne1cMbV6ACJgWeMRUs4qwPQbzAjZgWuCe2GalA/MCMYBpAXKz0oF5gSnAtBZMarPSgXmBEGBaC2Rus9KBeQEfYFoLIjez0oF5ARdgWgsgd7PSgXmBIWBaFVOaWenAvIAJmFaFlG5WOjAvoALTqojazEoH5gUYTKsOajcrHZjXsoFpFczSzEoH5rVMYFoFsnSz0oF5LQuYVkHArIaBeS0DmFYBwKz8gHnVDUwrY2BW04B51QlMK0NgVnGBedUFTCsjYFa0wLzqAKaVATCrtMC8ygamNSMwq3mBeZUJTGsGcjSr1dnNPmNsd3uy92WuvJgQuTqgjAvmVRYwrYRkbFY8ppXy8ewXpCVXpHHBvMoAppWAgsxKJ/kF6ZgrmNeCgWkRknOb1ers5ogx9slxcfIL0jNX1yJPPzOKSQLzIgamRUBJDexzm1eOZqUD88oLmFZESu4NTG1eJZiVDswrD2BaEahp6AK1eZVoVjowr3mBaU0g0wZ2HtPO9mTvduJ2oprXXGbVtB3vcGD9Zh095zCveYBpBZCxWakxRdnnVPOa2azU3tG7fMC8ygem5UEhZkUSg695Mca+ZGJWOjCvwoFpOZD50AUu+NepYvI0rzFSmpUOzKtQYFoDFDZ0oSTzmtOsdGBehQHTMlD40IWczSsns5Ic95t1TgNn7+OCeZmBaSlUNnQhJ/NapFnpwLziANOqfIqY1OYl9nnIZ4zgjfFTh15ISjYrHZjXNBZtWkuaz2oO84pBTWalA/MKY5GmteTJ90oxr5rNSgfm5ceiTAszhf5Drua1JLPSgXm5sQjTglnZycW8lmxWOjCvYao2LZiVO67mtT3Za2LuF2ZlB+Zl5l85BhUL0cV+6rE5fuG8zfuo4uNR2voac+dN2/Fz8+dEw+I3mme1GZZgV/y4ci0en6qaxbRpBYzgPt+e7B0RhjQ7GVUNXeMYgmxke2ocp8JWyXIKHyoW13sI88q6EX7R5gWzcmOx47SWaF4FDXdYlHnBrPxY/Ij4JZhXwQNLqzYvmFUYizctSY3mNdPzh6faRXjJGDuccqHVZl4wq2nAtDRqMK9MZ3qYfOGVbl4wqzjAtCyUaF6FzKm1OPOCWcUFpjVCCeZV6Oyl1ZsXzIoGmJYjOZqXx4jpHKdalsxtXtFH0sOsaIFpeVKYec1hVvfH63nxpjYvmFWhwLQCydy8duc0K8N2cjIvmFXhwLQmUulQiShmZdjunOYFs6oEmFYkKhkqQWJWhv0kNa/YwKzmBaYVmUKHSiQxK8N+izIvmFUewLSIKGSoxCxmZYgja/OCWeUFTIuYjBvsbx0vwmRm6mkO77Ynez5zpVHHw2BWaYBpJSJT8xq6KGerts4dF8wqb2BaiSnAvLLpIEgdF8yqDGBaM4HJCPMBZlUWMK2ZgXnNB8yqTGBamQDzSgfMqmxgWpkB86IDZlUHMK1MgXnFA2ZVFzCtzIF5hQOzqhOYViHAvNyBWdUNTKswYF52YFbLAKZVKDCvf4BZLQuYVuEs2bxgVssEplUJSzIvmNWygWlVRs3mBbMCDKZVLzWZF8wKqMC0Kqdk84JZARMwrYVQknnBrMAQMK2FkbN5wayACzCthZKTecGsgA8wrYUzp3nBrEAIMC1wR0rzglmBKcC0wAMozQtmBWIA0wJGYpoXzArEBKYFBpliXjArQAFMCzgRYF4+wKyAMzAt4EVk84JZAW9gWiCIieYFswLBwLTAJDzNC2YFJgPTAlEYMS+YFYgGTAtERTMvmBWIDkwLAFAU/8LpAgCUBEwLAFAUMC0AQFHAtAAARQHTAgAUBUwLAFAUMC0AQFHAtAAARQHTAgAUBUwLAFAUMC0AQFHAtAAARQHTAgAUBUwLAFAUMC0AQFHAtAAARQHTAgAUBUwLAFAUMC0AQFHAtAAARQHTAgAUBUwLAFAUMC0AQFHAtAAARQHTAgAUBUwLAFAUMC0AQFHAtAAARQHTAgAUxS84XfFp2m6fMXbAGPvJGLvoN+vb2o6xFJq2O2WM7WvhXvWb9VvbITRttyvO3444f1dLz2NOFG1aTdt9YIy9N3x13W/WulCp9nXZb9YHYhn++5thXf7rRb9ZX8SMCTjBdfDcZUFhVn8ZPue/XvWb9RekfH6Krh72mzU3kq+Gr542bfc51n6atjuyGNZWGpbgcGAzR7HiGaNpu4um7Xrl52DaFhfD0DmylsxAWopv0+o3a24U3w1fvRZmMwlx9/1k2caD0pyoclwaluOlsSSmJb1/CbYAAAT+SURBVOJ1KlmAh4ib4LkhLdcjNySQkFratLh5/DB8/qlpu6uJbRK2dY9NbVVayWsOkpXoakTcXJDDjKmi97DfrHmD9wvL17yqtBOy3abteBvGyvDVb/1mHa36GRlUBUHVVNN7yBu5m7Z7xxj7XfuKm86FoQdpENHw/tKwzFdRjTDC25MM1bNLWwnMsPz3frPeZf/0QnLjfGI55ka03e2K4zMZLOebaEw28aCDgLeDGZb5beiYteMJWl9U5T/YjlVjyxg7dY3JB8v5u8u1IWbjsoEMdtSIdkl+vC77480lHzK+sU6iqiEP/WZ9Ki7019pXvGH+dKibW6Vpu0NLw/t30YZGyRMhUN5V/3RgP7LtTD/WYhBGdTpgtjb48u+btuPn6KPrec0Zk2GJGsLFiA5MPBFNI59Ee9yBqI1UQXXjtHibhLjo9Tv2G9G+NXj3EQ3Zf1i+TlX10odNcOHdivY1GQO/2B+UAGxDLjIebvHTYFiXopTwIF5xAZ8aTJqf151UHR0qvu2XlpLZ1lQLEDdOkw7vOgVM7akiR5+1GgI3vB9N21Uz5KbWwaX74iLXLwh+9xkb7Gk7sS9mGCRa9dguMe7pUbXLsiw3uCPRzqhfzK9FSTrLQaADBmQsJQ4szzt/rDddkaNDy3izb665zp0qH+MRJ892F7QKW7QPmdpU3iU2D373/RWDUR8zMMAzqLOFGl66NxgQP7//GajWmozpo2sblbi5ftQ/b9quirFm1T7Gw++6TdsdG8ZYrURp64GpiRNqah86521ltNE+4qqmNohQRPvkjnYDytKcdAZKS4OdEqKKb2rj49XgNxPDKiJ3Y1T97CG/MwkR6Gb0nPcOSvGIZfReRyYa3jFmhxjPnrESjufK0HjOS1e7E25G16INMJRbSwmuOKp/YFo0zJtGib8XDfNfxLACHWMDKYiHqI7bej+vRfsi//npMCxjdkRvqOnpCechI2LojumrLxRDPEpkEbM88Kpg03amnqrTgeJ4Vd3EuSEa1PVxcJeiZ6yovA8MTQgtXZ0bzPy96GxYvCaXNJ+WqdTEG91N7QTHlU1H4lNivDZ89nbsqQL+vTCiUcSNwjRw98PYRRnjedKYiHh+GAyLd97shJiMaJIwPU/Lhy44n0tew+BttaKmUQ2LmU+L96hYGuZ1zksdSTxQtfhdXFxy9PyhMGxTteWtYazXSlww12KslBz6IbdlMqCxOLeGEu4X3oBtGKO1L2L3HWRJiqXtiomeux3xVIULt7rm+FMRlu3/Kc7xtciJenPdF+dDbwr5XZy7KmoPi5oEUDTM71pGuzMxD1fpDe8vLANMnxo6G3iVY1c9ZmEo/xEXg24qT0dM/1gYmS2/KruGKtVq5JEjJqpOFw43H1KEIdlM1LeX79LUSM7nhBN6/WLYl+l82uA5e1tL1XJxM5fykoWo6jwqZkeaocFUrRyqavouP4gopTSiy912YckS0xeTkMU4n7vqoBgKcmTZjrzYHmxHtB+qjzuZZsP4Kc+B2Mdbyxi5r+Ki1ffBtNkYbBdkjPNh4tYyDVEI1n2KcyHzJEu2ptKU5L4Do9ZJC5u+z7IjBgAAjODFFgCAooBpAQCKAqYFACgKmBYAoChgWgCAooBpAQCKAqYFACgKmBYAoChgWgCAooBpAQCKAqYFACgKmBYAoChgWgCAooBpAQCKAqYFACgKmBYAoBwYY/8Hm23fSmwwMM8AAAAASUVORK5CYII=;fillColor=#dae8fc;strokeColor=#6c8ebf;strokeWidth=2;" parent="1" vertex="1">
          <mxGeometry x="610" y="800" width="93.47" height="109" as="geometry" />
        </mxCell>
        <mxCell id="2CcRFRfwzxdMe1-ry_kX-79" style="edgeStyle=orthogonalEdgeStyle;rounded=0;orthogonalLoop=1;jettySize=auto;html=1;entryX=-0.019;entryY=0.463;entryDx=0;entryDy=0;entryPerimeter=0;fillColor=#f8cecc;strokeColor=#b85450;strokeWidth=2;startArrow=classic;startFill=1;" parent="1" source="2CcRFRfwzxdMe1-ry_kX-58" target="2CcRFRfwzxdMe1-ry_kX-73" edge="1">
          <mxGeometry relative="1" as="geometry">
            <mxPoint x="580" y="735" as="sourcePoint" />
          </mxGeometry>
        </mxCell>
        <mxCell id="2CcRFRfwzxdMe1-ry_kX-95" value="authentication&amp;nbsp;&lt;div&gt;data&lt;/div&gt;" style="edgeLabel;html=1;align=center;verticalAlign=middle;resizable=0;points=[];" parent="2CcRFRfwzxdMe1-ry_kX-79" vertex="1" connectable="0">
          <mxGeometry x="-0.074" y="-2" relative="1" as="geometry">
            <mxPoint as="offset" />
          </mxGeometry>
        </mxCell>
        <mxCell id="2CcRFRfwzxdMe1-ry_kX-84" value="Mobile App" style="text;html=1;align=center;verticalAlign=middle;whiteSpace=wrap;rounded=0;" parent="1" vertex="1">
          <mxGeometry x="235" y="860" width="110" height="30" as="geometry" />
        </mxCell>
        <mxCell id="2CcRFRfwzxdMe1-ry_kX-86" value="" style="group" parent="1" vertex="1" connectable="0">
          <mxGeometry x="220" y="610" width="140" height="250" as="geometry" />
        </mxCell>
        <mxCell id="2CcRFRfwzxdMe1-ry_kX-78" value="" style="rounded=1;whiteSpace=wrap;html=1;fillColor=#f5f5f5;fontColor=#333333;strokeColor=#666666;" parent="2CcRFRfwzxdMe1-ry_kX-86" vertex="1">
          <mxGeometry width="140" height="250" as="geometry" />
        </mxCell>
        <mxCell id="2CcRFRfwzxdMe1-ry_kX-46" value="" style="strokeWidth=1;shadow=0;dashed=0;align=center;html=1;shape=mxgraph.mockup.forms.rrect;rSize=0;strokeColor=#999999;fillColor=#ffffff;" parent="2CcRFRfwzxdMe1-ry_kX-86" vertex="1">
          <mxGeometry x="20" y="18" width="100" height="210" as="geometry" />
        </mxCell>
        <mxCell id="2CcRFRfwzxdMe1-ry_kX-47" value="" style="strokeWidth=1;shadow=0;dashed=0;align=center;html=1;shape=mxgraph.mockup.forms.anchor;fontSize=12;fontColor=#666666;align=left;resizeWidth=1;spacingLeft=0;" parent="2CcRFRfwzxdMe1-ry_kX-46" vertex="1">
          <mxGeometry width="50" height="20" relative="1" as="geometry">
            <mxPoint x="10" y="10" as="offset" />
          </mxGeometry>
        </mxCell>
        <mxCell id="2CcRFRfwzxdMe1-ry_kX-49" value="User Name:" style="strokeWidth=1;shadow=0;dashed=0;align=center;html=1;shape=mxgraph.mockup.forms.anchor;fontSize=12;fontColor=#666666;align=left;resizeWidth=1;spacingLeft=0;" parent="2CcRFRfwzxdMe1-ry_kX-46" vertex="1">
          <mxGeometry width="50" height="20" relative="1" as="geometry">
            <mxPoint x="8" y="10" as="offset" />
          </mxGeometry>
        </mxCell>
        <mxCell id="2CcRFRfwzxdMe1-ry_kX-50" value="johndoe" style="strokeWidth=1;shadow=0;dashed=0;align=center;html=1;shape=mxgraph.mockup.forms.rrect;rSize=0;strokeColor=#999999;fontColor=#666666;align=left;spacingLeft=5;resizeWidth=1;" parent="2CcRFRfwzxdMe1-ry_kX-46" vertex="1">
          <mxGeometry width="83.33333333333334" height="25" relative="1" as="geometry">
            <mxPoint x="8" y="30" as="offset" />
          </mxGeometry>
        </mxCell>
        <mxCell id="2CcRFRfwzxdMe1-ry_kX-51" value="Password:" style="strokeWidth=1;shadow=0;dashed=0;align=center;html=1;shape=mxgraph.mockup.forms.anchor;fontSize=12;fontColor=#666666;align=left;resizeWidth=1;spacingLeft=0;" parent="2CcRFRfwzxdMe1-ry_kX-46" vertex="1">
          <mxGeometry width="50" height="20" relative="1" as="geometry">
            <mxPoint x="8" y="65" as="offset" />
          </mxGeometry>
        </mxCell>
        <mxCell id="2CcRFRfwzxdMe1-ry_kX-52" value="********" style="strokeWidth=1;shadow=0;dashed=0;align=center;html=1;shape=mxgraph.mockup.forms.rrect;rSize=0;strokeColor=#999999;fontColor=#666666;align=left;spacingLeft=5;resizeWidth=1;" parent="2CcRFRfwzxdMe1-ry_kX-46" vertex="1">
          <mxGeometry width="83.33333333333334" height="25" relative="1" as="geometry">
            <mxPoint x="8" y="85" as="offset" />
          </mxGeometry>
        </mxCell>
        <mxCell id="2CcRFRfwzxdMe1-ry_kX-53" value="SIGN IN" style="strokeWidth=1;shadow=0;dashed=0;align=center;html=1;shape=mxgraph.mockup.forms.rrect;rSize=5;strokeColor=none;fontColor=#ffffff;fillColor=#66bbff;fontSize=16;fontStyle=1;" parent="2CcRFRfwzxdMe1-ry_kX-46" vertex="1">
          <mxGeometry y="1" width="80" height="30" relative="1" as="geometry">
            <mxPoint x="10" y="-90" as="offset" />
          </mxGeometry>
        </mxCell>
        <mxCell id="2CcRFRfwzxdMe1-ry_kX-54" value="" style="strokeWidth=1;shadow=0;dashed=0;align=center;html=1;shape=mxgraph.mockup.forms.anchor;fontSize=12;fontColor=#9999ff;align=left;spacingLeft=0;fontStyle=4;resizeWidth=1;" parent="2CcRFRfwzxdMe1-ry_kX-46" vertex="1">
          <mxGeometry y="1" width="75" height="20" relative="1" as="geometry">
            <mxPoint x="10" y="-110" as="offset" />
          </mxGeometry>
        </mxCell>
        <mxCell id="2CcRFRfwzxdMe1-ry_kX-57" value="SIGN UP" style="strokeWidth=1;shadow=0;dashed=0;align=center;html=1;shape=mxgraph.mockup.forms.rrect;rSize=5;strokeColor=none;fontColor=#ffffff;fillColor=#66bbff;fontSize=16;fontStyle=1;" parent="2CcRFRfwzxdMe1-ry_kX-46" vertex="1">
          <mxGeometry y="1" width="80" height="30" relative="1" as="geometry">
            <mxPoint x="10" y="-50" as="offset" />
          </mxGeometry>
        </mxCell>
        <mxCell id="2CcRFRfwzxdMe1-ry_kX-87" style="edgeStyle=orthogonalEdgeStyle;rounded=0;orthogonalLoop=1;jettySize=auto;html=1;fillColor=#dae8fc;strokeColor=#6c8ebf;strokeWidth=2;exitX=0;exitY=0.5;exitDx=0;exitDy=0;startArrow=classic;startFill=1;" parent="1" edge="1">
          <mxGeometry relative="1" as="geometry">
            <mxPoint x="629.04" y="854.5" as="sourcePoint" />
            <mxPoint x="499" y="780" as="targetPoint" />
            <Array as="points">
              <mxPoint x="499.03999999999996" y="855" />
            </Array>
          </mxGeometry>
        </mxCell>
        <mxCell id="2CcRFRfwzxdMe1-ry_kX-89" value="Session Manager" style="text;html=1;align=center;verticalAlign=middle;whiteSpace=wrap;rounded=0;" parent="1" vertex="1">
          <mxGeometry x="473.74" y="660" width="60" height="30" as="geometry" />
        </mxCell>
        <mxCell id="2CcRFRfwzxdMe1-ry_kX-90" value="Authentication API" style="text;html=1;align=center;verticalAlign=middle;whiteSpace=wrap;rounded=0;" parent="1" vertex="1">
          <mxGeometry x="586.7399999999999" y="570.5" width="140" height="30" as="geometry" />
        </mxCell>
        <mxCell id="2CcRFRfwzxdMe1-ry_kX-91" value="Simulated error conditions" style="text;html=1;align=center;verticalAlign=middle;whiteSpace=wrap;rounded=0;" parent="1" vertex="1">
          <mxGeometry x="429.82" y="350" width="130" height="30" as="geometry" />
        </mxCell>
        <mxCell id="2CcRFRfwzxdMe1-ry_kX-92" value="stateful session and authentication data" style="text;html=1;align=center;verticalAlign=middle;whiteSpace=wrap;rounded=0;" parent="1" vertex="1">
          <mxGeometry x="489.03999999999996" y="860" width="140" height="30" as="geometry" />
        </mxCell>
        <mxCell id="2CcRFRfwzxdMe1-ry_kX-94" value="cookie and session data" style="text;html=1;align=center;verticalAlign=middle;whiteSpace=wrap;rounded=0;" parent="1" vertex="1">
          <mxGeometry x="362" y="690" width="90" height="30" as="geometry" />
        </mxCell>
        <mxCell id="2CcRFRfwzxdMe1-ry_kX-96" style="edgeStyle=orthogonalEdgeStyle;rounded=0;orthogonalLoop=1;jettySize=auto;html=1;entryX=0.006;entryY=0.537;entryDx=0;entryDy=0;startArrow=classic;startFill=1;fillColor=#d5e8d4;strokeColor=#82b366;strokeWidth=2;entryPerimeter=0;" parent="1" source="2CcRFRfwzxdMe1-ry_kX-97" target="2CcRFRfwzxdMe1-ry_kX-115" edge="1">
          <mxGeometry relative="1" as="geometry">
            <mxPoint x="240" y="1198" as="targetPoint" />
          </mxGeometry>
        </mxCell>
        <mxCell id="2CcRFRfwzxdMe1-ry_kX-97" value="User" style="aspect=fixed;sketch=0;html=1;dashed=0;whitespace=wrap;verticalLabelPosition=top;verticalAlign=bottom;fillColor=#2875E2;strokeColor=#ffffff;points=[[0.005,0.63,0],[0.1,0.2,0],[0.9,0.2,0],[0.5,0,0],[0.995,0.63,0],[0.72,0.99,0],[0.5,1,0],[0.28,0.99,0]];shape=mxgraph.kubernetes.icon2;prIcon=user;labelPosition=center;align=center;" parent="1" vertex="1">
          <mxGeometry x="90" y="1174" width="50" height="48" as="geometry" />
        </mxCell>
        <mxCell id="2CcRFRfwzxdMe1-ry_kX-98" value="" style="group;strokeWidth=1;" parent="1" vertex="1" connectable="0">
          <mxGeometry x="140" y="1122" width="250" height="150" as="geometry" />
        </mxCell>
        <mxCell id="2CcRFRfwzxdMe1-ry_kX-115" value="Mobile App" style="image;aspect=fixed;html=1;points=[];align=center;fontSize=12;image=img/lib/azure2/general/Mobile_Engagement.svg;labelPosition=center;verticalLabelPosition=top;verticalAlign=bottom;" parent="2CcRFRfwzxdMe1-ry_kX-98" vertex="1">
          <mxGeometry x="98.6842105263158" y="28.636363636363633" width="52.631578947368425" height="88.15789473684211" as="geometry" />
        </mxCell>
        <mxCell id="2CcRFRfwzxdMe1-ry_kX-101" value="" style="image;aspect=fixed;html=1;points=[];align=center;fontSize=12;image=img/lib/azure2/web/API_Center.svg;labelPosition=center;verticalLabelPosition=top;verticalAlign=bottom;fillColor=#ffe6cc;strokeColor=#d79b00;" parent="1" vertex="1">
          <mxGeometry x="504.77000000000004" y="1080" width="68" height="68" as="geometry" />
        </mxCell>
        <mxCell id="2CcRFRfwzxdMe1-ry_kX-104" value="" style="image;aspect=fixed;html=1;points=[];align=center;fontSize=12;image=img/lib/azure2/web/API_Center.svg;labelPosition=center;verticalLabelPosition=top;verticalAlign=bottom;fillColor=#ffe6cc;strokeColor=#d79b00;" parent="1" vertex="1">
          <mxGeometry x="504.77000000000004" y="1161" width="68" height="68" as="geometry" />
        </mxCell>
        <mxCell id="2CcRFRfwzxdMe1-ry_kX-106" value="" style="image;aspect=fixed;html=1;points=[];align=center;fontSize=12;image=img/lib/azure2/web/API_Center.svg;labelPosition=center;verticalLabelPosition=top;verticalAlign=bottom;fillColor=#ffe6cc;strokeColor=#d79b00;" parent="1" vertex="1">
          <mxGeometry x="504.77000000000004" y="1240" width="68" height="68" as="geometry" />
        </mxCell>
        <mxCell id="2CcRFRfwzxdMe1-ry_kX-114" style="edgeStyle=orthogonalEdgeStyle;rounded=0;orthogonalLoop=1;jettySize=auto;html=1;fillColor=#dae8fc;strokeColor=#6c8ebf;strokeWidth=2;entryX=0.5;entryY=1.002;entryDx=0;entryDy=0;entryPerimeter=0;startArrow=classic;startFill=1;" parent="1" source="2CcRFRfwzxdMe1-ry_kX-112" target="2CcRFRfwzxdMe1-ry_kX-115" edge="1">
          <mxGeometry relative="1" as="geometry">
            <mxPoint x="330" y="1253" as="targetPoint" />
          </mxGeometry>
        </mxCell>
        <mxCell id="2CcRFRfwzxdMe1-ry_kX-112" value="3rd party APIs" style="shape=image;verticalLabelPosition=bottom;verticalAlign=top;imageAspect=0;aspect=fixed;image=data:image/png,iVBORw0KGgoAAAANSUhEUgAAAS0AAAFfCAYAAAFsDqqyAAAACXBIWXMAAAsSAAALEgHS3X78AAAgAElEQVR4nO2d71HduBrG5Tv7+R62gnALYEIqCKkgpIET8GdmklSQbAVL5vL5JLiBTSoIVLBwKWBJBcmpwHfESqwQki3JemVJfn4zDHCO/7x+/fix/llu+r5nOfKvLKNCYAFEDWx1dhNNsNECk0FFC45flVN//v3f//VyG/xv9f/Qn6hBxQwuelCxgiMJKkZwZEFNDW5yUP/+7/9+OizjHVyUTBmuyqupmZuSqSuTTahBsePz4MxNzpQW3Gc1KD0wn+CCgxrakS0on+Bi3ZK2AetcD34b4VT+NC03ciofXRxBGdue7DX6zXl1drPDv9qe7O0ww02836wbfTviu+vtyd7+6E5dr8qxzI3pxzVTXlflUHD//u//9h2W8QoqKLChzA3o0Cuo4MBcgwsNalJgY8FNCWpyYLbgpgYVJTA9uBhB8Z9oNXHF59x8aowYGVOyNTlT0TMWG7Rd+ILAfEFgvlgDa9ruQv+/aTsvb5Hb8F3vjsH71fH5595QDVO+HyxhsOPzi1CDHTuVr7UM9CJzR/rnyvenepa0vw/V5W07HgvsGTOU3/vN+vPQSrYd8s/7zfqLsp1H9QKnwPrN+mpMH03b7WrBvDFV57QsbUV2rdvGvdIXBOYLNOYLAvMlepdNVoFF70eKEZgMhrehMcZ+jRXcpMC0oPjvn7GCCw5MD0oSK7igwGxBxQzOO7CxoGIF5xWYKSjTjldnN0eTg/NpanLpNLUss+PbyeV0E7dlSv6vZkR+1rQdz9ZKFp9F8/uPMQlIRk/lwNXXaN9914PSlvc6rYMZcxG6mjk9KEsnhFPmKG7iMlPPLN/vumxkMDCThh5EYNCZkqU/m7bb15bn///porPRjNmCMwVlCi4kqDsS2cU+eZ+4qZ9oZB3voJx9TD+FzOGWFHT6FLyvyrELIkZQLNQuHK7WSUEFBzYUXIygJgVmCi5WUCxWTdx0E59MaFOkyUpibSvILlKBJgJfEJgvCMyXob6kU+Vv3hvy1nfjoi3/yGHRx1gLako/kanPSPYzDRb2RvqaJhUU2fH5h17psJI7s/3Wl1U7upR1dsb2+8vYqRB/fvA5fZbPP/O6QNN2B/1mfWFaRmVM/NuBathX0WnVOPZHvhbLX4z1IzG08weAwHzJVmO5ku2ZzBUkzBMkzJPBksUc6O0g0Wr1kcjG9PWmD9nirn42W3AKsydsrI0ot8TNljDfxrRcEpc8YVNbHedOXLKExW6enStx5Akjacd+uP2kiSNLmGuiXJZzeQglVeKiJ8wxAVf6gZvWG0oUHwjQb9Y7hm2TJo7iUaTRIIeW1QquxkTpwziGRk64xuTK5IRN8SifdV0TZdhH1MQFJyymmQ/1+IcmyrCPA8bYN/Fv8AN5uSjs/mlpG4bG42f8wQeHfewrI2QmP7k4t4c9StRY5ds1cbETdb//me6SO2K83eB6Q9uSXR2GbZMk6n6/hZXDhpYhTZSkhpJ+kkRJSq5LJk2UpMTWilkSJSmpPWzWRElKaHHNIlGSnNv0s0qUJLue77HK99xgqIAn6Mj1BAnzBAnzBAnzBAnzBAnzBAnzxDth6mw/hu/UWYPG5syZVABU53ty2V8svMeH8VmImrZ71OIpAn4l/r1kjD2XByb/Nhw0X+eF7JyQ25MHLwaPq1UkWweIur9HidO3K/i136x/6suOETSgTo6C10fEq1M62YJmWkLE/0P74u31D9Yd6jWyJF12tV0qi/5Qt+tK8AhEJWk/WWDXlwtjCTKhr8OVxE9Kv1kfTA4o5jOFU3/Y8fmB5UkZ4+dBj+VM3BYq356gWOEJEuYJEuYJPMwDqMsDJMsDJMsDJMsDJMsDJMsDJMuD7JLFRx/Gngc2FlklSx3+nWPCskmWPk6eZZiwLJKlJWo7NufqXMyeLEOi7oaV55iwWZNlS5Qkt4TNlqyxRElyStgsyXJNlCSXhCVPlm+iJDkkLGmyQhMlmTthyZI1NVGSOROWJFmxEiWZK2HkyYqdKMkcCSNNFlWiJKkTRpYs10Txg5SvjBjY1pUtGSkTRpKsAEV9siWMJ4ox9nRo5VQJi56sCQXORwlTE+XwlhXyhEVNlsel9+BRFVPCxhKlv09CX44iYTEfXnf2KPHns+3J3pXlu++MsSfMnqj7bVgeXCd5OjfWm7ecLz0l+D8HFOaSKKYOr7RsJ6rCYrwNzLt44JIwh0QNjkKkSNiky3BqOWroknwUqEeiLPuYfElOeWva5ALnkMJUQhPFIitsymWoTsIzpWR+Ln4b/WdKoiSxEjb5/S9TAlid3XyWrzoeuETO1X9CHiCIdSlGeSeNHpALjoniSjqakrCYnjXLe3KGEiUKpZ/4ExLqvDj83QH6C7fHLsnY5a0o5SwfhTkmivND3ETu8FUYRcE0WnXHI2EuiZIvjBhNmAmqEvwsU08Z1rlPlDLtlPoAlPGStEw9RTYREcloZc9Jzh4lSvnOmrCp+w2BpD3L9ZIcSpT47Mp2SRq2RZooRj0O3nWyMgf1Db4mL0WiWCWTmSVJFEvRu0PZIJcyUSxVvyFFwlIniqXskY6ZsDkSxVKPdYhU+Z4lUWyOUTQTK9+zJYrNNT4rJGFzJ4rNOfLPs/I9e6LY3GNKXRKWS6JYDqOVhxKWU6JYLuPgTQnLLVEst2ekTZdiTu8yy+rZHT0xub30LbunwoZ6pOcGUxV4gIczPUCyPECyPECyPECyPECyPECyPECyPECyPECyPECyPECyPECyPECyPAiZBv1i7LsUU5Kr+0g1BXqIsp7LSalVRMD3U503bWd94JLi4Jq2ext7mzohs3mf66OGJXLYItXM3jZS7S+opVQo4/7xtabtbvmTXOo87dqc7c/EcMf7R+Mkcgp1fS55y4T4zLYP2/J88v5+s76I8aTGFINXHx95MjKK+E8eXL9Z76rqcwz42mNZdbu/if8vxMl8sE8xiNeLoGRpKthh/wy7Hl0+YF/629FdJ8Z/r+yXn8zv4t0YF0LhRisZIvgNBEy5/KZsw2Ef3j6hvDtD5YirbEosUy7DjzJRhK9quH8VhOs+lPda6In5Zl7DnSnvtnjbtN2b0PUNLwQxKYj7ypuhN7Bo2zxS/r7fvvryEmXxa/0SHyWXd1iw4/OdgWWt36X8QSerB6gbeoBkeYBkeYBkeYBkeYBkeYBkeYByFiADVyIgA+ICZEBcgAyIC5ABcQEyIC5ABsTlSM6vzMsVtHONYHprHsv0CdzcgLgs2ESlA5HZgbg0BkS1ZYzt2gQHkT0G4hIMiUqf433I1SCyf1i8uHxE5bHu4kXGliyuKaLy2NaiRbY4ccUUlce2FymyxYiLUlQe+1qUyKoXV0pReex7ESKrVlxzisojlqpFVp24chKVztJEVo24chaVzlJEVry4ShKVTu0iK1Zckdup+HPvb7cne95TRRi2xecVOfXZVq0iK05cBKJaaR8fh4hMfYG9wqvtyd4Xj21UJbJixEXc+GlKgpPILKK63p7s+U088XCbVYgse3Elbvx0FhmFqAz7KFpk2Yor8u1PFcIz8SbUoeWtIpsiKjGnkbwN38/75hB/kSLLTlwUTmURS6jIVEJE9SiOWkWWjbhS3P4iiiyGqO4ImfmtFJHNLq452qlCReYKlah0chfZbOLKofEztshSiUonV5ElF1eOLepT39g4l6h0chPZHC+pfjT3umDw5FCxOrsxtWVtXXcnJoAei/1ZosPZtXx+nWj/D5i1zGWrjaW4yoSo9Mmug91TiGxs8mznmqEPq7ObfW2WdknUdjdfsqgtphRZqKhWZzfcFY62J3sfhpZLKbJcRSXJ/m3VLJLIJoiKzzf+yfDVrwO3eFKR5S4qSZYt9DFFRiAqnckicy3slyIqSdZ9i7FEptSigkUl9zlwgr1FVquoJEWMikhRJhsTlWH5UJGd8teNOMZUpKgkRY3nohCZr6gM6weJLHCbRYhKUuRI1Ii3y0cnMVSoMbZVi6gkRY+hjymyWP2KIduqTVSSKp7+mbMxdgq1ikpS1XOLpYisdlFJqnziOleRLUVUkqrnishFZEsTlWQRs9zMJbKlikqyqPm5Uols6aKSLHJmQSqRQVQPWfScqJSNsYJFikqy+Al32QSRQVTDQFwKriKDqNyAuAwMPAz7DKJyB+IaINYT10sF4nIg9InrpQNxecAnIYGo3IG4ABl4mScgA+ICZEBcgAyIC5ABcQEyIC5ABsQFyIC4ABkQFyAD4gJkQFyADIgLkAFxATIgLkDGL9SpbdpOHdPjNAeoNq/7cb9Zf9a281u/WQ9OfGvZ7gH7e0a/C991Y9G0Hd/3c6bNLKgd33m/WR/NFWMsyJ1Lm5rRNP78AXzmPUVYl1xYynYuGWPvJgjrm/jJDnF8X8XxFS8slsK5mEicvDL5b9tcoE3b8em43yjrHSjf8YTzq35HW+dITO7/ud+sb5u2499/EcudSnGOiappu3vBmsTr8D0foco/579veQz9Zn06mJjHx3FlOD6XC+nu2LX1eE5Ole3xXDi/tTYGScQleCFPML/t9Zu1aeLbv+QfBgEeyduJOIn65++bttO3d9S03SFj7KX6oXYLeiFuk++Vz0wn1Pi9tq3vQth3MTVt97vlWEzYju/92Iqq2PXbqxAY3/YfMj8pXhXDUoqLn8Cm7c7FjMYrfeJZNSkTDt5aFou0/UdYtvVWOMdfYt8HoeU8ffvqdvmDIv1mva98J4/xe79Zq69quRAX2oUQvfXuEZOUzsUTJZ2El6neCIHxW5lq6S8mbN+7LBaLpu34hfI78T7uKzoG0R0o/z7RHGwWkoqL/Z2UHeXA/2ra7hVPhvj/fM6anC+inCRngr42nPAoJ1iU52Rl6FIti0rEnUH++7XfrA+jHmwAs7RzaSfhD/F7m7qWJE6a5KPy+WdtOVvzyf0U4+rticUV1k8pLJ43k7AU3ok/X5r2z4+Lfy5ureQkdy6F/2gFeNJ3Leo1Vvl503Z3BXpe/hOi4ifyddN26tsuXoga6SfDNm8NtyFe5mmmCkzUFFfK/8btyYtV1E5PRXPOG8vyx3rNkgo8twjIQPcPIAPiAmRAXIAMiAuQAXEBMiAuQAbEBciAuAAZaEQFJMC1AAkQFiABwgIkQFiABAgLkABhARIgLEAChAVIgLAACRAWIAHCAiRAWIAECAuQAGEBEiAsR/jLOFdnN1XMfZUCCMsBLirG2FP+xDTE5QaENYIiKgnE5QCENYBBVBKIawQIy8KAqCQQ1wAQlgEHUUkgLgsQlsaAqJ7xydgMn0NcBiAshSFRbU/2rrYne/sQlxsQlmBMVPIfiMsNCMtDVBKIa5zFC8tXVBKIa5hFCytUVBKIy85ihTVVVBKIy8wihRVLVBKI6zGLE1ZsUUkgrocsSlhUopJAXP+wGGFRi0oCcf3NIoSVSlQSiGsBwkotKsnSxVW1sOYSlWTJ4qpWWHOLSrJUcVUprFxEJVmiuKoTVm6ikixNXFUJK1dRSZYkrmqElbuoJEsRVxXCKkVUkiWIq3hhlSYqSe3iKlpYpYpKUrO4ihVWLFGtzm72V2c3Ud77sjq72fHdVq3iKlJYMUUl3m7PpoqLi4ox9iNkWzWKq7iXNEUU1b0QVLYne01ATFG2NXBsx9uTvc++cc1JUY4Vs0y1Pdn7yU+YYR9eV5pNVIyxX322wypzrmKERVFQFy4QLK4hUQnhhsRUhbiKEBZl7S9UXBSiUmIqXlzZCytFk4KvuChFpcRUtLiyFlbMgvrq7GbwhLuKa4qomrbbb9rOWXgliytbYRHU/lZTxTVVVKJpY7UEcWXZ3EDcpLDdnuztjKzHT9gnx934iOpBHP1mPRiHFlNRTRHZORZBk8K5votQ5zIQKipWu3NlJSyiJoUjInFNEdV9HE3bOYuiJHFlIyziJoXY4oohKs5xv1l73cZKEVcWwkrUpBBLXLOJSokpe3HNXnhPPfRldXbDT+Zr7ePRAr0r1KJSyblAP6tjzTGeKtS5XEgpKpa5c80mrDkH6VGIK7WoJLmKaxZh5TDyM6a45hKVJEdxJRdWTsOJB8T1xXUbc4tKkpu4kgprdXZzaBHV17nGqAtx6bx0WTcXUUmEuEy49iJEI6mwtid7XyztQi9FbS05lhEMz1zi6Ddrl4vhNNUxDdzGvQcdTiX5rXCg0fF1anHZROXjnv1mPTb82KvrJhQhqpVh9WhDeXyYpfCeg7hiiEoyt7hyExWbs7lhTnHFFJVkLnHlKCo2dwPpHOIKFRWvWYnHxaykFleuomK5jMcaGP90bqm1he4nVFTqetcDta87mrYbS6rXWCxLTNmKiuXSCZ3CuSKJivNUtMVZoXau3EXFcho2QymuiKKSzCauEkTFchvoRyEuAlFJYonL+VZfiqhYjkOTCcSld3OEiop3/Wy1z6aKy7lVviRRsVyf0okpLq0PLVhUvBIhxmzFEle1omK5TwoSs7a4OrvZ3Z7s3Y4sYxWVtpzpRPvUFqsWFSthtpmZmyKs+5ggrqPaRcVKmcaIWly+olLWCxKXY0zFioqVMinIDE0RToINLXM5xFS0qFhJ0xglbIrwcsHY4qpBVKy0idcIxKULIujWahGXt7BqERUrcQ7SyE0RqiAmldembqsmUbFSJ7clENfHGJWA0G3VJipW4uS2KqmaIiipUVSs9BcI5DTMOYRaRcVqeOVJqeKqWVSslpc0lSau2kXFanqtXCniWoKoWG0vwsxdXEsRFavx1b25imtJomK1vmw8N3EtTVSsVmGxjMS1RFGxmoXFMhDXUkXFahcWm1FcSxYVW4Kw2AziWrqo2FKExRKKC6L6m8UIiyUQF0T1D4sSFiMUF0T1kMUJixGIC6J6zCKFxSKKC6Iys1hhsQjigqjsLFpYbIK4IKphFi8sFiAuiGocCEvgKi6Iyo2iH6agYOgBDcbYIUTlBoRlIPY7oZcIboUGYr4TeqlAWBZivBN6yUBYA0x5J/TSgbBGCHknNEDh3RlRoP8CUbkBYQEScCsEJEBYgAQIC5AAYQESICxAAoQFSICwAAkQFiABwgIkQFiABAgLkABhARIgLEAChAVIgLAACRAWIAHCAiRAWIAECAuQAGEBEiAsQAKEBUiAsAAJEBYgAcICJEBYgAQIC5AAYQESICxAwi+UaW3ajs8ttSv+Pew3a6cpgJq2eysmkr1fr2k7OS3Ou36zPqWJmB7lOC77zfpAOWb5+cd+s35b6vFJqB3rA2Psufj54bHe73I9IaoP2ndBNG130LTdTtxDnI64kCRvcosvBFJh9Zv1rfq/y0lt2u5C+fej+H1rWdwZ4QjfGGP7U7dFwEXyPRKTooz1m/K3SwKfyz/kLaHfrPkt9Z24fTQkUc5Iv1lfiekoL/lUlDUcE2kZi/2dtA9N270X/z4dWrZpuyPl3+/adni5qtiy1Rji4kn2dn1qyIUl4CJ5woR4RBJNqJP2H6jfK+WsW3V98fn9Z0Kc3Ol+qoXjMZTtX/Sb9SNndfheVjj4rZZ/f+RaWdG2f3cxKseyO7iisrwlHhnzo2UoSSWsfaXw/snlytTLZ4wx6XqX2vp3n4uy2ZX+ShKltiX51rSdup9G3Y7AdMs2ft+03ZXBiV/y423a7rzfrI+YG+r2pQiO1KLBAPeiadru1FABeC7uGpc+F9sUkrRjuVy5Tdt9Uf79bWBRG58t77kho2m7W01Ul+JH8prXRInDuN+faN5RRXUsyqayWPFcCI+cVI4lD/KTSMCF4cp5Kf8ItG1+ZW/7zfpBzZM7kji538RHL0y3shD6zXpXOOKrfrNWLwzVKfnnQU0cNndRXVhb5rX4/Z3Hpnx+Ki7cl0J45O1kyVretXLVA3tv2u5Q+fdBod1zH8nbqLhwdVFpRHXRpu3u3V+tIauOr4lKfnaoLEt+O0zpWJxreevQCvF/KMuEtjNdOixTNOI2JoX6SjuWe8fX2gJNHFC3naUW1sFYId6nJpULTdvtimNxKWgHIfYhy0+XIy45Fgd5jpMKS3TPPPhMFDgl71LGEwNDrZOKv+SGx2p2OTQip3YsphXiPysFTlZa57ImqgeVgpiCs5WrNO7bCnMg+bAZrRD/Wvn7OouMODRIGngVq6apIy4+Wa56NrCo2paVtDHUxFzjsUwF7SQNd7JbaKBDXBW7HBHxyH1EmUeyq30XxXmbtttX4vkq+hSNaBfse11cPF5+HKr7UTLHrfCujKCfLMpCO3cTpWz3VO67aTu13etSFnpdbmO8Z0DZ5u+iC+VWKThvIzQ1/Kn8/dISl9qa/qtSOXqv9NGqrPhFRV1JymUEqcv7l6diqhioZZcDy+34+0C5Rr01PVFE9WqO4TlCLEOjI76Ldjdy11rc+wpl4+BQmUgsc2vor7Qtz2+Fu1TlrFDmjAsvwgQk4GEKQAKEBUiAsAAJEBYgAcICJEBYgAQIC5AAYQESICxAAoQFSICwAAkQFiABwgIkQFiABAgLkABhARIw0A8AUBS4GwIAigKmBQAoCpgWAKAoYFoAgKKAaQEAigKmBQAoCpgWAKAoYFoAgKKAaQEAigKmBQAoCpgWAKAoYFoAgKKAaQEAigKmBaKzOrvZWZ3dHCKzgAJMTQOiwc2KMcZfpPhU2ebx9mTvM7IMYgHTApOxmJUOzAtEAaYFgnE0Kx2YF5gETAt4E2hWOjAvEARMCzgTyax0YF7AC5gWGCXArLaMsVtUGwEFMC1gJdCsDrYne1cMbV6ACJgWeMRUs4qwPQbzAjZgWuCe2GalA/MCMYBpAXKz0oF5gSnAtBZMarPSgXmBEGBaC2Rus9KBeQEfYFoLIjez0oF5ARdgWgsgd7PSgXmBIWBaFVOaWenAvIAJmFaFlG5WOjAvoALTqojazEoH5gUYTKsOajcrHZjXsoFpFczSzEoH5rVMYFoFsnSz0oF5LQuYVkHArIaBeS0DmFYBwKz8gHnVDUwrY2BW04B51QlMK0NgVnGBedUFTCsjYFa0wLzqAKaVATCrtMC8ygamNSMwq3mBeZUJTGsGcjSr1dnNPmNsd3uy92WuvJgQuTqgjAvmVRYwrYRkbFY8ppXy8ewXpCVXpHHBvMoAppWAgsxKJ/kF6ZgrmNeCgWkRknOb1ers5ogx9slxcfIL0jNX1yJPPzOKSQLzIgamRUBJDexzm1eOZqUD88oLmFZESu4NTG1eJZiVDswrD2BaEahp6AK1eZVoVjowr3mBaU0g0wZ2HtPO9mTvduJ2oprXXGbVtB3vcGD9Zh095zCveYBpBZCxWakxRdnnVPOa2azU3tG7fMC8ygem5UEhZkUSg695Mca+ZGJWOjCvwoFpOZD50AUu+NepYvI0rzFSmpUOzKtQYFoDFDZ0oSTzmtOsdGBehQHTMlD40IWczSsns5Ic95t1TgNn7+OCeZmBaSlUNnQhJ/NapFnpwLziANOqfIqY1OYl9nnIZ4zgjfFTh15ISjYrHZjXNBZtWkuaz2oO84pBTWalA/MKY5GmteTJ90oxr5rNSgfm5ceiTAszhf5Drua1JLPSgXm5sQjTglnZycW8lmxWOjCvYao2LZiVO67mtT3Za2LuF2ZlB+Zl5l85BhUL0cV+6rE5fuG8zfuo4uNR2voac+dN2/Fz8+dEw+I3mme1GZZgV/y4ci0en6qaxbRpBYzgPt+e7B0RhjQ7GVUNXeMYgmxke2ocp8JWyXIKHyoW13sI88q6EX7R5gWzcmOx47SWaF4FDXdYlHnBrPxY/Ij4JZhXwQNLqzYvmFUYizctSY3mNdPzh6faRXjJGDuccqHVZl4wq2nAtDRqMK9MZ3qYfOGVbl4wqzjAtCyUaF6FzKm1OPOCWcUFpjVCCeZV6Oyl1ZsXzIoGmJYjOZqXx4jpHKdalsxtXtFH0sOsaIFpeVKYec1hVvfH63nxpjYvmFWhwLQCydy8duc0K8N2cjIvmFXhwLQmUulQiShmZdjunOYFs6oEmFYkKhkqQWJWhv0kNa/YwKzmBaYVmUKHSiQxK8N+izIvmFUewLSIKGSoxCxmZYgja/OCWeUFTIuYjBvsbx0vwmRm6mkO77Ynez5zpVHHw2BWaYBpJSJT8xq6KGerts4dF8wqb2BaiSnAvLLpIEgdF8yqDGBaM4HJCPMBZlUWMK2ZgXnNB8yqTGBamQDzSgfMqmxgWpkB86IDZlUHMK1MgXnFA2ZVFzCtzIF5hQOzqhOYViHAvNyBWdUNTKswYF52YFbLAKZVKDCvf4BZLQuYVuEs2bxgVssEplUJSzIvmNWygWlVRs3mBbMCDKZVLzWZF8wKqMC0Kqdk84JZARMwrYVQknnBrMAQMK2FkbN5wayACzCthZKTecGsgA8wrYUzp3nBrEAIMC1wR0rzglmBKcC0wAMozQtmBWIA0wJGYpoXzArEBKYFBpliXjArQAFMCzgRYF4+wKyAMzAt4EVk84JZAW9gWiCIieYFswLBwLTAJDzNC2YFJgPTAlEYMS+YFYgGTAtERTMvmBWIDkwLAFAU/8LpAgCUBEwLAFAUMC0AQFHAtAAARQHTAgAUBUwLAFAUMC0AQFHAtAAARQHTAgAUBUwLAFAUMC0AQFHAtAAARQHTAgAUBUwLAFAUMC0AQFHAtAAARQHTAgAUBUwLAFAUMC0AQFHAtAAARQHTAgAUBUwLAFAUMC0AQFHAtAAARQHTAgAUBUwLAFAUMC0AQFHAtAAARQHTAgAUxS84XfFp2m6fMXbAGPvJGLvoN+vb2o6xFJq2O2WM7WvhXvWb9VvbITRttyvO3444f1dLz2NOFG1aTdt9YIy9N3x13W/WulCp9nXZb9YHYhn++5thXf7rRb9ZX8SMCTjBdfDcZUFhVn8ZPue/XvWb9RekfH6Krh72mzU3kq+Gr542bfc51n6atjuyGNZWGpbgcGAzR7HiGaNpu4um7Xrl52DaFhfD0DmylsxAWopv0+o3a24U3w1fvRZmMwlx9/1k2caD0pyoclwaluOlsSSmJb1/CbYAAAT+SURBVOJ1KlmAh4ib4LkhLdcjNySQkFratLh5/DB8/qlpu6uJbRK2dY9NbVVayWsOkpXoakTcXJDDjKmi97DfrHmD9wvL17yqtBOy3abteBvGyvDVb/1mHa36GRlUBUHVVNN7yBu5m7Z7xxj7XfuKm86FoQdpENHw/tKwzFdRjTDC25MM1bNLWwnMsPz3frPeZf/0QnLjfGI55ka03e2K4zMZLOebaEw28aCDgLeDGZb5beiYteMJWl9U5T/YjlVjyxg7dY3JB8v5u8u1IWbjsoEMdtSIdkl+vC77480lHzK+sU6iqiEP/WZ9Ki7019pXvGH+dKibW6Vpu0NLw/t30YZGyRMhUN5V/3RgP7LtTD/WYhBGdTpgtjb48u+btuPn6KPrec0Zk2GJGsLFiA5MPBFNI59Ee9yBqI1UQXXjtHibhLjo9Tv2G9G+NXj3EQ3Zf1i+TlX10odNcOHdivY1GQO/2B+UAGxDLjIebvHTYFiXopTwIF5xAZ8aTJqf151UHR0qvu2XlpLZ1lQLEDdOkw7vOgVM7akiR5+1GgI3vB9N21Uz5KbWwaX74iLXLwh+9xkb7Gk7sS9mGCRa9dguMe7pUbXLsiw3uCPRzqhfzK9FSTrLQaADBmQsJQ4szzt/rDddkaNDy3izb665zp0qH+MRJ892F7QKW7QPmdpU3iU2D373/RWDUR8zMMAzqLOFGl66NxgQP7//GajWmozpo2sblbi5ftQ/b9quirFm1T7Gw++6TdsdG8ZYrURp64GpiRNqah86521ltNE+4qqmNohQRPvkjnYDytKcdAZKS4OdEqKKb2rj49XgNxPDKiJ3Y1T97CG/MwkR6Gb0nPcOSvGIZfReRyYa3jFmhxjPnrESjufK0HjOS1e7E25G16INMJRbSwmuOKp/YFo0zJtGib8XDfNfxLACHWMDKYiHqI7bej+vRfsi//npMCxjdkRvqOnpCechI2LojumrLxRDPEpkEbM88Kpg03amnqrTgeJ4Vd3EuSEa1PVxcJeiZ6yovA8MTQgtXZ0bzPy96GxYvCaXNJ+WqdTEG91N7QTHlU1H4lNivDZ89nbsqQL+vTCiUcSNwjRw98PYRRnjedKYiHh+GAyLd97shJiMaJIwPU/Lhy44n0tew+BttaKmUQ2LmU+L96hYGuZ1zksdSTxQtfhdXFxy9PyhMGxTteWtYazXSlww12KslBz6IbdlMqCxOLeGEu4X3oBtGKO1L2L3HWRJiqXtiomeux3xVIULt7rm+FMRlu3/Kc7xtciJenPdF+dDbwr5XZy7KmoPi5oEUDTM71pGuzMxD1fpDe8vLANMnxo6G3iVY1c9ZmEo/xEXg24qT0dM/1gYmS2/KruGKtVq5JEjJqpOFw43H1KEIdlM1LeX79LUSM7nhBN6/WLYl+l82uA5e1tL1XJxM5fykoWo6jwqZkeaocFUrRyqavouP4gopTSiy912YckS0xeTkMU4n7vqoBgKcmTZjrzYHmxHtB+qjzuZZsP4Kc+B2Mdbyxi5r+Ki1ffBtNkYbBdkjPNh4tYyDVEI1n2KcyHzJEu2ptKU5L4Do9ZJC5u+z7IjBgAAjODFFgCAooBpAQCKAqYFACgKmBYAoChgWgCAooBpAQCKAqYFACgKmBYAoChgWgCAooBpAQCKAqYFACgKmBYAoChgWgCAooBpAQCKAqYFACgKmBYAoBwYY/8Hm23fSmwwMM8AAAAASUVORK5CYII=;fillColor=#dae8fc;strokeColor=#6c8ebf;strokeWidth=2;" parent="1" vertex="1">
          <mxGeometry x="488.04" y="1363" width="93.47" height="109" as="geometry" />
        </mxCell>
        <mxCell id="2CcRFRfwzxdMe1-ry_kX-119" style="edgeStyle=orthogonalEdgeStyle;rounded=0;orthogonalLoop=1;jettySize=auto;html=1;startArrow=classic;startFill=1;fillColor=#d5e8d4;strokeColor=#82b366;strokeWidth=2;" parent="1" source="2CcRFRfwzxdMe1-ry_kX-115" target="2CcRFRfwzxdMe1-ry_kX-104" edge="1">
          <mxGeometry relative="1" as="geometry" />
        </mxCell>
        <mxCell id="2CcRFRfwzxdMe1-ry_kX-120" style="edgeStyle=orthogonalEdgeStyle;rounded=0;orthogonalLoop=1;jettySize=auto;html=1;entryX=0.008;entryY=0.603;entryDx=0;entryDy=0;entryPerimeter=0;startArrow=classic;startFill=1;fillColor=#d5e8d4;strokeColor=#82b366;strokeWidth=2;" parent="1" source="2CcRFRfwzxdMe1-ry_kX-115" target="2CcRFRfwzxdMe1-ry_kX-106" edge="1">
          <mxGeometry relative="1" as="geometry" />
        </mxCell>
        <mxCell id="2CcRFRfwzxdMe1-ry_kX-121" style="edgeStyle=orthogonalEdgeStyle;rounded=0;orthogonalLoop=1;jettySize=auto;html=1;entryX=-0.002;entryY=0.446;entryDx=0;entryDy=0;entryPerimeter=0;startArrow=classic;startFill=1;fillColor=#d5e8d4;strokeColor=#82b366;strokeWidth=2;" parent="1" source="2CcRFRfwzxdMe1-ry_kX-115" target="2CcRFRfwzxdMe1-ry_kX-101" edge="1">
          <mxGeometry relative="1" as="geometry" />
        </mxCell>
        <mxCell id="2CcRFRfwzxdMe1-ry_kX-122" value="" style="sketch=0;html=1;aspect=fixed;strokeColor=#7e0101;shadow=0;fillColor=#cc0000;verticalAlign=top;labelPosition=center;verticalLabelPosition=bottom;shape=mxgraph.gcp2.increase_cost_arrows" parent="1" vertex="1">
          <mxGeometry x="599.8199999999999" y="1175.5" width="43.48" height="40" as="geometry" />
        </mxCell>
        <mxCell id="2CcRFRfwzxdMe1-ry_kX-123" value="" style="sketch=0;html=1;aspect=fixed;strokeColor=#7e0101;shadow=0;fillColor=#cc0000;verticalAlign=top;labelPosition=center;verticalLabelPosition=bottom;shape=mxgraph.gcp2.increase_cost_arrows" parent="1" vertex="1">
          <mxGeometry x="599.8199999999999" y="1094.5" width="43.48" height="40" as="geometry" />
        </mxCell>
        <mxCell id="2CcRFRfwzxdMe1-ry_kX-124" value="" style="sketch=0;html=1;aspect=fixed;strokeColor=#7e0101;shadow=0;fillColor=#cc0000;verticalAlign=top;labelPosition=center;verticalLabelPosition=bottom;shape=mxgraph.gcp2.increase_cost_arrows" parent="1" vertex="1">
          <mxGeometry x="599.8199999999999" y="1255.5" width="43.48" height="40" as="geometry" />
        </mxCell>
        <mxCell id="2CcRFRfwzxdMe1-ry_kX-125" value="" style="sketch=0;html=1;aspect=fixed;strokeColor=none;shadow=0;fillColor=#3B8DF1;verticalAlign=top;labelPosition=center;verticalLabelPosition=bottom;shape=mxgraph.gcp2.cost_arrows" parent="1" vertex="1">
          <mxGeometry x="593.3" y="1373" width="45.6" height="60" as="geometry" />
        </mxCell>
        <mxCell id="2CcRFRfwzxdMe1-ry_kX-103" value="post-auth workflows" style="text;html=1;align=center;verticalAlign=middle;whiteSpace=wrap;rounded=0;" parent="1" vertex="1">
          <mxGeometry x="390" y="1161" width="90" height="30" as="geometry" />
        </mxCell>
      </root>
    </mxGraphModel>
  </diagram>
  <diagram id="SwkKve8hlC__g2vNo9gL" name="specific">
    <mxGraphModel dx="2074" dy="1098" grid="1" gridSize="10" guides="1" tooltips="1" connect="1" arrows="1" fold="1" page="1" pageScale="1" pageWidth="850" pageHeight="1100" math="0" shadow="0">
      <root>
        <mxCell id="0" />
        <mxCell id="1" parent="0" />
        <mxCell id="nDqxRiYawHEeiHayort9-1" style="edgeStyle=orthogonalEdgeStyle;rounded=0;orthogonalLoop=1;jettySize=auto;html=1;entryX=0.5;entryY=0;entryDx=0;entryDy=0;fillColor=#dae8fc;strokeColor=#6c8ebf;strokeWidth=2;" edge="1" parent="1" source="nDqxRiYawHEeiHayort9-2" target="nDqxRiYawHEeiHayort9-60">
          <mxGeometry relative="1" as="geometry" />
        </mxCell>
        <mxCell id="nDqxRiYawHEeiHayort9-2" value="HMB+ (pmos-api&lt;span style=&quot;background-color: initial;&quot;&gt;)&lt;/span&gt;" style="rounded=1;whiteSpace=wrap;html=1;fillColor=#ffe6cc;strokeColor=#d79b00;labelPosition=center;verticalLabelPosition=top;align=center;verticalAlign=bottom;" vertex="1" parent="1">
          <mxGeometry x="474.77000000000004" y="1060" width="120" height="270" as="geometry" />
        </mxCell>
        <mxCell id="nDqxRiYawHEeiHayort9-3" style="edgeStyle=orthogonalEdgeStyle;rounded=0;orthogonalLoop=1;jettySize=auto;html=1;startArrow=classic;startFill=1;fillColor=#d5e8d4;strokeColor=#82b366;strokeWidth=2;" edge="1" parent="1" source="nDqxRiYawHEeiHayort9-36" target="nDqxRiYawHEeiHayort9-27">
          <mxGeometry relative="1" as="geometry" />
        </mxCell>
        <mxCell id="nDqxRiYawHEeiHayort9-4" style="edgeStyle=orthogonalEdgeStyle;rounded=0;orthogonalLoop=1;jettySize=auto;html=1;entryX=0;entryY=0.5;entryDx=0;entryDy=0;fillColor=#f8cecc;strokeColor=#b85450;strokeWidth=2;" edge="1" parent="1" source="nDqxRiYawHEeiHayort9-6" target="nDqxRiYawHEeiHayort9-18">
          <mxGeometry relative="1" as="geometry" />
        </mxCell>
        <mxCell id="nDqxRiYawHEeiHayort9-5" style="edgeStyle=orthogonalEdgeStyle;rounded=0;orthogonalLoop=1;jettySize=auto;html=1;entryX=0;entryY=0.5;entryDx=0;entryDy=0;startArrow=classic;startFill=1;fillColor=#d5e8d4;strokeColor=#82b366;strokeWidth=2;" edge="1" parent="1" source="nDqxRiYawHEeiHayort9-6" target="nDqxRiYawHEeiHayort9-10">
          <mxGeometry relative="1" as="geometry" />
        </mxCell>
        <mxCell id="nDqxRiYawHEeiHayort9-6" value="User" style="aspect=fixed;sketch=0;html=1;dashed=0;whitespace=wrap;verticalLabelPosition=top;verticalAlign=bottom;fillColor=#2875E2;strokeColor=#ffffff;points=[[0.005,0.63,0],[0.1,0.2,0],[0.9,0.2,0],[0.5,0,0],[0.995,0.63,0],[0.72,0.99,0],[0.5,1,0],[0.28,0.99,0]];shape=mxgraph.kubernetes.icon2;prIcon=user;labelPosition=center;align=center;" vertex="1" parent="1">
          <mxGeometry x="80" y="151" width="50" height="48" as="geometry" />
        </mxCell>
        <mxCell id="nDqxRiYawHEeiHayort9-7" style="edgeStyle=orthogonalEdgeStyle;rounded=0;orthogonalLoop=1;jettySize=auto;html=1;entryX=1;entryY=0.5;entryDx=0;entryDy=0;strokeWidth=2;fillColor=#dae8fc;strokeColor=#6c8ebf;startArrow=classic;startFill=1;" edge="1" parent="1" source="nDqxRiYawHEeiHayort9-8" target="nDqxRiYawHEeiHayort9-18">
          <mxGeometry relative="1" as="geometry" />
        </mxCell>
        <mxCell id="nDqxRiYawHEeiHayort9-8" value="Moneris APIs" style="shape=image;verticalLabelPosition=bottom;verticalAlign=top;imageAspect=0;aspect=fixed;image=data:image/png,iVBORw0KGgoAAAANSUhEUgAAAS0AAAFfCAYAAAFsDqqyAAAACXBIWXMAAAsSAAALEgHS3X78AAAgAElEQVR4nO2d71HduBrG5Tv7+R62gnALYEIqCKkgpIET8GdmklSQbAVL5vL5JLiBTSoIVLBwKWBJBcmpwHfESqwQki3JemVJfn4zDHCO/7x+/fix/llu+r5nOfKvLKNCYAFEDWx1dhNNsNECk0FFC45flVN//v3f//VyG/xv9f/Qn6hBxQwuelCxgiMJKkZwZEFNDW5yUP/+7/9+OizjHVyUTBmuyqupmZuSqSuTTahBsePz4MxNzpQW3Gc1KD0wn+CCgxrakS0on+Bi3ZK2AetcD34b4VT+NC03ciofXRxBGdue7DX6zXl1drPDv9qe7O0ww02836wbfTviu+vtyd7+6E5dr8qxzI3pxzVTXlflUHD//u//9h2W8QoqKLChzA3o0Cuo4MBcgwsNalJgY8FNCWpyYLbgpgYVJTA9uBhB8Z9oNXHF59x8aowYGVOyNTlT0TMWG7Rd+ILAfEFgvlgDa9ruQv+/aTsvb5Hb8F3vjsH71fH5595QDVO+HyxhsOPzi1CDHTuVr7UM9CJzR/rnyvenepa0vw/V5W07HgvsGTOU3/vN+vPQSrYd8s/7zfqLsp1H9QKnwPrN+mpMH03b7WrBvDFV57QsbUV2rdvGvdIXBOYLNOYLAvMlepdNVoFF70eKEZgMhrehMcZ+jRXcpMC0oPjvn7GCCw5MD0oSK7igwGxBxQzOO7CxoGIF5xWYKSjTjldnN0eTg/NpanLpNLUss+PbyeV0E7dlSv6vZkR+1rQdz9ZKFp9F8/uPMQlIRk/lwNXXaN9914PSlvc6rYMZcxG6mjk9KEsnhFPmKG7iMlPPLN/vumxkMDCThh5EYNCZkqU/m7bb15bn///porPRjNmCMwVlCi4kqDsS2cU+eZ+4qZ9oZB3voJx9TD+FzOGWFHT6FLyvyrELIkZQLNQuHK7WSUEFBzYUXIygJgVmCi5WUCxWTdx0E59MaFOkyUpibSvILlKBJgJfEJgvCMyXob6kU+Vv3hvy1nfjoi3/yGHRx1gLako/kanPSPYzDRb2RvqaJhUU2fH5h17psJI7s/3Wl1U7upR1dsb2+8vYqRB/fvA5fZbPP/O6QNN2B/1mfWFaRmVM/NuBathX0WnVOPZHvhbLX4z1IzG08weAwHzJVmO5ku2ZzBUkzBMkzJPBksUc6O0g0Wr1kcjG9PWmD9nirn42W3AKsydsrI0ot8TNljDfxrRcEpc8YVNbHedOXLKExW6enStx5Akjacd+uP2kiSNLmGuiXJZzeQglVeKiJ8wxAVf6gZvWG0oUHwjQb9Y7hm2TJo7iUaTRIIeW1QquxkTpwziGRk64xuTK5IRN8SifdV0TZdhH1MQFJyymmQ/1+IcmyrCPA8bYN/Fv8AN5uSjs/mlpG4bG42f8wQeHfewrI2QmP7k4t4c9StRY5ds1cbETdb//me6SO2K83eB6Q9uSXR2GbZMk6n6/hZXDhpYhTZSkhpJ+kkRJSq5LJk2UpMTWilkSJSmpPWzWRElKaHHNIlGSnNv0s0qUJLue77HK99xgqIAn6Mj1BAnzBAnzBAnzBAnzBAnzBAnzxDth6mw/hu/UWYPG5syZVABU53ty2V8svMeH8VmImrZ71OIpAn4l/r1kjD2XByb/Nhw0X+eF7JyQ25MHLwaPq1UkWweIur9HidO3K/i136x/6suOETSgTo6C10fEq1M62YJmWkLE/0P74u31D9Yd6jWyJF12tV0qi/5Qt+tK8AhEJWk/WWDXlwtjCTKhr8OVxE9Kv1kfTA4o5jOFU3/Y8fmB5UkZ4+dBj+VM3BYq356gWOEJEuYJEuYJPMwDqMsDJMsDJMsDJMsDJMsDJMsDJMuD7JLFRx/Gngc2FlklSx3+nWPCskmWPk6eZZiwLJKlJWo7NufqXMyeLEOi7oaV55iwWZNlS5Qkt4TNlqyxRElyStgsyXJNlCSXhCVPlm+iJDkkLGmyQhMlmTthyZI1NVGSOROWJFmxEiWZK2HkyYqdKMkcCSNNFlWiJKkTRpYs10Txg5SvjBjY1pUtGSkTRpKsAEV9siWMJ4ox9nRo5VQJi56sCQXORwlTE+XwlhXyhEVNlsel9+BRFVPCxhKlv09CX44iYTEfXnf2KPHns+3J3pXlu++MsSfMnqj7bVgeXCd5OjfWm7ecLz0l+D8HFOaSKKYOr7RsJ6rCYrwNzLt44JIwh0QNjkKkSNiky3BqOWroknwUqEeiLPuYfElOeWva5ALnkMJUQhPFIitsymWoTsIzpWR+Ln4b/WdKoiSxEjb5/S9TAlid3XyWrzoeuETO1X9CHiCIdSlGeSeNHpALjoniSjqakrCYnjXLe3KGEiUKpZ/4ExLqvDj83QH6C7fHLsnY5a0o5SwfhTkmivND3ETu8FUYRcE0WnXHI2EuiZIvjBhNmAmqEvwsU08Z1rlPlDLtlPoAlPGStEw9RTYREcloZc9Jzh4lSvnOmrCp+w2BpD3L9ZIcSpT47Mp2SRq2RZooRj0O3nWyMgf1Db4mL0WiWCWTmSVJFEvRu0PZIJcyUSxVvyFFwlIniqXskY6ZsDkSxVKPdYhU+Z4lUWyOUTQTK9+zJYrNNT4rJGFzJ4rNOfLPs/I9e6LY3GNKXRKWS6JYDqOVhxKWU6JYLuPgTQnLLVEst2ekTZdiTu8yy+rZHT0xub30LbunwoZ6pOcGUxV4gIczPUCyPECyPECyPECyPECyPECyPECyPECyPECyPECyPECyPECyPECyPAiZBv1i7LsUU5Kr+0g1BXqIsp7LSalVRMD3U503bWd94JLi4Jq2ext7mzohs3mf66OGJXLYItXM3jZS7S+opVQo4/7xtabtbvmTXOo87dqc7c/EcMf7R+Mkcgp1fS55y4T4zLYP2/J88v5+s76I8aTGFINXHx95MjKK+E8eXL9Z76rqcwz42mNZdbu/if8vxMl8sE8xiNeLoGRpKthh/wy7Hl0+YF/629FdJ8Z/r+yXn8zv4t0YF0LhRisZIvgNBEy5/KZsw2Ef3j6hvDtD5YirbEosUy7DjzJRhK9quH8VhOs+lPda6In5Zl7DnSnvtnjbtN2b0PUNLwQxKYj7ypuhN7Bo2zxS/r7fvvryEmXxa/0SHyWXd1iw4/OdgWWt36X8QSerB6gbeoBkeYBkeYBkeYBkeYBkeYBkeYByFiADVyIgA+ICZEBcgAyIC5ABcQEyIC5ABsTlSM6vzMsVtHONYHprHsv0CdzcgLgs2ESlA5HZgbg0BkS1ZYzt2gQHkT0G4hIMiUqf433I1SCyf1i8uHxE5bHu4kXGliyuKaLy2NaiRbY4ccUUlce2FymyxYiLUlQe+1qUyKoXV0pReex7ESKrVlxzisojlqpFVp24chKVztJEVo24chaVzlJEVry4ShKVTu0iK1Zckdup+HPvb7cne95TRRi2xecVOfXZVq0iK05cBKJaaR8fh4hMfYG9wqvtyd4Xj21UJbJixEXc+GlKgpPILKK63p7s+U088XCbVYgse3Elbvx0FhmFqAz7KFpk2Yor8u1PFcIz8SbUoeWtIpsiKjGnkbwN38/75hB/kSLLTlwUTmURS6jIVEJE9SiOWkWWjbhS3P4iiiyGqO4ImfmtFJHNLq452qlCReYKlah0chfZbOLKofEztshSiUonV5ElF1eOLepT39g4l6h0chPZHC+pfjT3umDw5FCxOrsxtWVtXXcnJoAei/1ZosPZtXx+nWj/D5i1zGWrjaW4yoSo9Mmug91TiGxs8mznmqEPq7ObfW2WdknUdjdfsqgtphRZqKhWZzfcFY62J3sfhpZLKbJcRSXJ/m3VLJLIJoiKzzf+yfDVrwO3eFKR5S4qSZYt9DFFRiAqnckicy3slyIqSdZ9i7FEptSigkUl9zlwgr1FVquoJEWMikhRJhsTlWH5UJGd8teNOMZUpKgkRY3nohCZr6gM6weJLHCbRYhKUuRI1Ii3y0cnMVSoMbZVi6gkRY+hjymyWP2KIduqTVSSKp7+mbMxdgq1ikpS1XOLpYisdlFJqnziOleRLUVUkqrnishFZEsTlWQRs9zMJbKlikqyqPm5Uols6aKSLHJmQSqRQVQPWfScqJSNsYJFikqy+Al32QSRQVTDQFwKriKDqNyAuAwMPAz7DKJyB+IaINYT10sF4nIg9InrpQNxecAnIYGo3IG4ABl4mScgA+ICZEBcgAyIC5ABcQEyIC5ABsQFyIC4ABkQFyAD4gJkQFyADIgLkAFxATIgLkDGL9SpbdpOHdPjNAeoNq/7cb9Zf9a281u/WQ9OfGvZ7gH7e0a/C991Y9G0Hd/3c6bNLKgd33m/WR/NFWMsyJ1Lm5rRNP78AXzmPUVYl1xYynYuGWPvJgjrm/jJDnF8X8XxFS8slsK5mEicvDL5b9tcoE3b8em43yjrHSjf8YTzq35HW+dITO7/ud+sb5u2499/EcudSnGOiappu3vBmsTr8D0foco/579veQz9Zn06mJjHx3FlOD6XC+nu2LX1eE5Ole3xXDi/tTYGScQleCFPML/t9Zu1aeLbv+QfBgEeyduJOIn65++bttO3d9S03SFj7KX6oXYLeiFuk++Vz0wn1Pi9tq3vQth3MTVt97vlWEzYju/92Iqq2PXbqxAY3/YfMj8pXhXDUoqLn8Cm7c7FjMYrfeJZNSkTDt5aFou0/UdYtvVWOMdfYt8HoeU8ffvqdvmDIv1mva98J4/xe79Zq69quRAX2oUQvfXuEZOUzsUTJZ2El6neCIHxW5lq6S8mbN+7LBaLpu34hfI78T7uKzoG0R0o/z7RHGwWkoqL/Z2UHeXA/2ra7hVPhvj/fM6anC+inCRngr42nPAoJ1iU52Rl6FIti0rEnUH++7XfrA+jHmwAs7RzaSfhD/F7m7qWJE6a5KPy+WdtOVvzyf0U4+rticUV1k8pLJ43k7AU3ok/X5r2z4+Lfy5ureQkdy6F/2gFeNJ3Leo1Vvl503Z3BXpe/hOi4ifyddN26tsuXoga6SfDNm8NtyFe5mmmCkzUFFfK/8btyYtV1E5PRXPOG8vyx3rNkgo8twjIQPcPIAPiAmRAXIAMiAuQAXEBMiAuQAbEBciAuAAZaEQFJMC1AAkQFiABwgIkQFiABAgLkABhARIgLEAChAVIgLAACRAWIAHCAiRAWIAECAuQAGEBEiAsR/jLOFdnN1XMfZUCCMsBLirG2FP+xDTE5QaENYIiKgnE5QCENYBBVBKIawQIy8KAqCQQ1wAQlgEHUUkgLgsQlsaAqJ7xydgMn0NcBiAshSFRbU/2rrYne/sQlxsQlmBMVPIfiMsNCMtDVBKIa5zFC8tXVBKIa5hFCytUVBKIy85ihTVVVBKIy8wihRVLVBKI6zGLE1ZsUUkgrocsSlhUopJAXP+wGGFRi0oCcf3NIoSVSlQSiGsBwkotKsnSxVW1sOYSlWTJ4qpWWHOLSrJUcVUprFxEJVmiuKoTVm6ikixNXFUJK1dRSZYkrmqElbuoJEsRVxXCKkVUkiWIq3hhlSYqSe3iKlpYpYpKUrO4ihVWLFGtzm72V2c3Ud77sjq72fHdVq3iKlJYMUUl3m7PpoqLi4ox9iNkWzWKq7iXNEUU1b0QVLYne01ATFG2NXBsx9uTvc++cc1JUY4Vs0y1Pdn7yU+YYR9eV5pNVIyxX322wypzrmKERVFQFy4QLK4hUQnhhsRUhbiKEBZl7S9UXBSiUmIqXlzZCytFk4KvuChFpcRUtLiyFlbMgvrq7GbwhLuKa4qomrbbb9rOWXgliytbYRHU/lZTxTVVVKJpY7UEcWXZ3EDcpLDdnuztjKzHT9gnx934iOpBHP1mPRiHFlNRTRHZORZBk8K5votQ5zIQKipWu3NlJSyiJoUjInFNEdV9HE3bOYuiJHFlIyziJoXY4oohKs5xv1l73cZKEVcWwkrUpBBLXLOJSokpe3HNXnhPPfRldXbDT+Zr7ePRAr0r1KJSyblAP6tjzTGeKtS5XEgpKpa5c80mrDkH6VGIK7WoJLmKaxZh5TDyM6a45hKVJEdxJRdWTsOJB8T1xXUbc4tKkpu4kgprdXZzaBHV17nGqAtx6bx0WTcXUUmEuEy49iJEI6mwtid7XyztQi9FbS05lhEMz1zi6Ddrl4vhNNUxDdzGvQcdTiX5rXCg0fF1anHZROXjnv1mPTb82KvrJhQhqpVh9WhDeXyYpfCeg7hiiEoyt7hyExWbs7lhTnHFFJVkLnHlKCo2dwPpHOIKFRWvWYnHxaykFleuomK5jMcaGP90bqm1he4nVFTqetcDta87mrYbS6rXWCxLTNmKiuXSCZ3CuSKJivNUtMVZoXau3EXFcho2QymuiKKSzCauEkTFchvoRyEuAlFJYonL+VZfiqhYjkOTCcSld3OEiop3/Wy1z6aKy7lVviRRsVyf0okpLq0PLVhUvBIhxmzFEle1omK5TwoSs7a4OrvZ3Z7s3Y4sYxWVtpzpRPvUFqsWFSthtpmZmyKs+5ggrqPaRcVKmcaIWly+olLWCxKXY0zFioqVMinIDE0RToINLXM5xFS0qFhJ0xglbIrwcsHY4qpBVKy0idcIxKULIujWahGXt7BqERUrcQ7SyE0RqiAmldembqsmUbFSJ7clENfHGJWA0G3VJipW4uS2KqmaIiipUVSs9BcI5DTMOYRaRcVqeOVJqeKqWVSslpc0lSau2kXFanqtXCniWoKoWG0vwsxdXEsRFavx1b25imtJomK1vmw8N3EtTVSsVmGxjMS1RFGxmoXFMhDXUkXFahcWm1FcSxYVW4Kw2AziWrqo2FKExRKKC6L6m8UIiyUQF0T1D4sSFiMUF0T1kMUJixGIC6J6zCKFxSKKC6Iys1hhsQjigqjsLFpYbIK4IKphFi8sFiAuiGocCEvgKi6Iyo2iH6agYOgBDcbYIUTlBoRlIPY7oZcIboUGYr4TeqlAWBZivBN6yUBYA0x5J/TSgbBGCHknNEDh3RlRoP8CUbkBYQEScCsEJEBYgAQIC5AAYQESICxAAoQFSICwAAkQFiABwgIkQFiABAgLkABhARIgLEAChAVIgLAACRAWIAHCAiRAWIAECAuQAGEBEiAsQAKEBUiAsAAJEBYgAcICJEBYgAQIC5AAYQESICxAwi+UaW3ajs8ttSv+Pew3a6cpgJq2eysmkr1fr2k7OS3Ou36zPqWJmB7lOC77zfpAOWb5+cd+s35b6vFJqB3rA2Psufj54bHe73I9IaoP2ndBNG130LTdTtxDnI64kCRvcosvBFJh9Zv1rfq/y0lt2u5C+fej+H1rWdwZ4QjfGGP7U7dFwEXyPRKTooz1m/K3SwKfyz/kLaHfrPkt9Z24fTQkUc5Iv1lfiekoL/lUlDUcE2kZi/2dtA9N270X/z4dWrZpuyPl3+/adni5qtiy1Rji4kn2dn1qyIUl4CJ5woR4RBJNqJP2H6jfK+WsW3V98fn9Z0Kc3Ol+qoXjMZTtX/Sb9SNndfheVjj4rZZ/f+RaWdG2f3cxKseyO7iisrwlHhnzo2UoSSWsfaXw/snlytTLZ4wx6XqX2vp3n4uy2ZX+ShKltiX51rSdup9G3Y7AdMs2ft+03ZXBiV/y423a7rzfrI+YG+r2pQiO1KLBAPeiadru1FABeC7uGpc+F9sUkrRjuVy5Tdt9Uf79bWBRG58t77kho2m7W01Ul+JH8prXRInDuN+faN5RRXUsyqayWPFcCI+cVI4lD/KTSMCF4cp5Kf8ItG1+ZW/7zfpBzZM7kji538RHL0y3shD6zXpXOOKrfrNWLwzVKfnnQU0cNndRXVhb5rX4/Z3Hpnx+Ki7cl0J45O1kyVretXLVA3tv2u5Q+fdBod1zH8nbqLhwdVFpRHXRpu3u3V+tIauOr4lKfnaoLEt+O0zpWJxreevQCvF/KMuEtjNdOixTNOI2JoX6SjuWe8fX2gJNHFC3naUW1sFYId6nJpULTdvtimNxKWgHIfYhy0+XIy45Fgd5jpMKS3TPPPhMFDgl71LGEwNDrZOKv+SGx2p2OTQip3YsphXiPysFTlZa57ImqgeVgpiCs5WrNO7bCnMg+bAZrRD/Wvn7OouMODRIGngVq6apIy4+Wa56NrCo2paVtDHUxFzjsUwF7SQNd7JbaKBDXBW7HBHxyH1EmUeyq30XxXmbtttX4vkq+hSNaBfse11cPF5+HKr7UTLHrfCujKCfLMpCO3cTpWz3VO67aTu13etSFnpdbmO8Z0DZ5u+iC+VWKThvIzQ1/Kn8/dISl9qa/qtSOXqv9NGqrPhFRV1JymUEqcv7l6diqhioZZcDy+34+0C5Rr01PVFE9WqO4TlCLEOjI76Ldjdy11rc+wpl4+BQmUgsc2vor7Qtz2+Fu1TlrFDmjAsvwgQk4GEKQAKEBUiAsAAJEBYgAcICJEBYgAQIC5AAYQESICxAAoQFSICwAAkQFiABwgIkQFiABAgLkABhARIw0A8AUBS4GwIAigKmBQAoCpgWAKAoYFoAgKKAaQEAigKmBQAoCpgWAKAoYFoAgKKAaQEAigKmBQAoCpgWAKAoYFoAgKKAaQEAigKmBaKzOrvZWZ3dHCKzgAJMTQOiwc2KMcZfpPhU2ebx9mTvM7IMYgHTApOxmJUOzAtEAaYFgnE0Kx2YF5gETAt4E2hWOjAvEARMCzgTyax0YF7AC5gWGCXArLaMsVtUGwEFMC1gJdCsDrYne1cMbV6ACJgWeMRUs4qwPQbzAjZgWuCe2GalA/MCMYBpAXKz0oF5gSnAtBZMarPSgXmBEGBaC2Rus9KBeQEfYFoLIjez0oF5ARdgWgsgd7PSgXmBIWBaFVOaWenAvIAJmFaFlG5WOjAvoALTqojazEoH5gUYTKsOajcrHZjXsoFpFczSzEoH5rVMYFoFsnSz0oF5LQuYVkHArIaBeS0DmFYBwKz8gHnVDUwrY2BW04B51QlMK0NgVnGBedUFTCsjYFa0wLzqAKaVATCrtMC8ygamNSMwq3mBeZUJTGsGcjSr1dnNPmNsd3uy92WuvJgQuTqgjAvmVRYwrYRkbFY8ppXy8ewXpCVXpHHBvMoAppWAgsxKJ/kF6ZgrmNeCgWkRknOb1ers5ogx9slxcfIL0jNX1yJPPzOKSQLzIgamRUBJDexzm1eOZqUD88oLmFZESu4NTG1eJZiVDswrD2BaEahp6AK1eZVoVjowr3mBaU0g0wZ2HtPO9mTvduJ2oprXXGbVtB3vcGD9Zh095zCveYBpBZCxWakxRdnnVPOa2azU3tG7fMC8ygem5UEhZkUSg695Mca+ZGJWOjCvwoFpOZD50AUu+NepYvI0rzFSmpUOzKtQYFoDFDZ0oSTzmtOsdGBehQHTMlD40IWczSsns5Ic95t1TgNn7+OCeZmBaSlUNnQhJ/NapFnpwLziANOqfIqY1OYl9nnIZ4zgjfFTh15ISjYrHZjXNBZtWkuaz2oO84pBTWalA/MKY5GmteTJ90oxr5rNSgfm5ceiTAszhf5Drua1JLPSgXm5sQjTglnZycW8lmxWOjCvYao2LZiVO67mtT3Za2LuF2ZlB+Zl5l85BhUL0cV+6rE5fuG8zfuo4uNR2voac+dN2/Fz8+dEw+I3mme1GZZgV/y4ci0en6qaxbRpBYzgPt+e7B0RhjQ7GVUNXeMYgmxke2ocp8JWyXIKHyoW13sI88q6EX7R5gWzcmOx47SWaF4FDXdYlHnBrPxY/Ij4JZhXwQNLqzYvmFUYizctSY3mNdPzh6faRXjJGDuccqHVZl4wq2nAtDRqMK9MZ3qYfOGVbl4wqzjAtCyUaF6FzKm1OPOCWcUFpjVCCeZV6Oyl1ZsXzIoGmJYjOZqXx4jpHKdalsxtXtFH0sOsaIFpeVKYec1hVvfH63nxpjYvmFWhwLQCydy8duc0K8N2cjIvmFXhwLQmUulQiShmZdjunOYFs6oEmFYkKhkqQWJWhv0kNa/YwKzmBaYVmUKHSiQxK8N+izIvmFUewLSIKGSoxCxmZYgja/OCWeUFTIuYjBvsbx0vwmRm6mkO77Ynez5zpVHHw2BWaYBpJSJT8xq6KGerts4dF8wqb2BaiSnAvLLpIEgdF8yqDGBaM4HJCPMBZlUWMK2ZgXnNB8yqTGBamQDzSgfMqmxgWpkB86IDZlUHMK1MgXnFA2ZVFzCtzIF5hQOzqhOYViHAvNyBWdUNTKswYF52YFbLAKZVKDCvf4BZLQuYVuEs2bxgVssEplUJSzIvmNWygWlVRs3mBbMCDKZVLzWZF8wKqMC0Kqdk84JZARMwrYVQknnBrMAQMK2FkbN5wayACzCthZKTecGsgA8wrYUzp3nBrEAIMC1wR0rzglmBKcC0wAMozQtmBWIA0wJGYpoXzArEBKYFBpliXjArQAFMCzgRYF4+wKyAMzAt4EVk84JZAW9gWiCIieYFswLBwLTAJDzNC2YFJgPTAlEYMS+YFYgGTAtERTMvmBWIDkwLAFAU/8LpAgCUBEwLAFAUMC0AQFHAtAAARQHTAgAUBUwLAFAUMC0AQFHAtAAARQHTAgAUBUwLAFAUMC0AQFHAtAAARQHTAgAUBUwLAFAUMC0AQFHAtAAARQHTAgAUBUwLAFAUMC0AQFHAtAAARQHTAgAUBUwLAFAUMC0AQFHAtAAARQHTAgAUBUwLAFAUMC0AQFHAtAAARQHTAgAUxS84XfFp2m6fMXbAGPvJGLvoN+vb2o6xFJq2O2WM7WvhXvWb9VvbITRttyvO3444f1dLz2NOFG1aTdt9YIy9N3x13W/WulCp9nXZb9YHYhn++5thXf7rRb9ZX8SMCTjBdfDcZUFhVn8ZPue/XvWb9RekfH6Krh72mzU3kq+Gr542bfc51n6atjuyGNZWGpbgcGAzR7HiGaNpu4um7Xrl52DaFhfD0DmylsxAWopv0+o3a24U3w1fvRZmMwlx9/1k2caD0pyoclwaluOlsSSmJb1/CbYAAAT+SURBVOJ1KlmAh4ib4LkhLdcjNySQkFratLh5/DB8/qlpu6uJbRK2dY9NbVVayWsOkpXoakTcXJDDjKmi97DfrHmD9wvL17yqtBOy3abteBvGyvDVb/1mHa36GRlUBUHVVNN7yBu5m7Z7xxj7XfuKm86FoQdpENHw/tKwzFdRjTDC25MM1bNLWwnMsPz3frPeZf/0QnLjfGI55ka03e2K4zMZLOebaEw28aCDgLeDGZb5beiYteMJWl9U5T/YjlVjyxg7dY3JB8v5u8u1IWbjsoEMdtSIdkl+vC77480lHzK+sU6iqiEP/WZ9Ki7019pXvGH+dKibW6Vpu0NLw/t30YZGyRMhUN5V/3RgP7LtTD/WYhBGdTpgtjb48u+btuPn6KPrec0Zk2GJGsLFiA5MPBFNI59Ee9yBqI1UQXXjtHibhLjo9Tv2G9G+NXj3EQ3Zf1i+TlX10odNcOHdivY1GQO/2B+UAGxDLjIebvHTYFiXopTwIF5xAZ8aTJqf151UHR0qvu2XlpLZ1lQLEDdOkw7vOgVM7akiR5+1GgI3vB9N21Uz5KbWwaX74iLXLwh+9xkb7Gk7sS9mGCRa9dguMe7pUbXLsiw3uCPRzqhfzK9FSTrLQaADBmQsJQ4szzt/rDddkaNDy3izb665zp0qH+MRJ892F7QKW7QPmdpU3iU2D373/RWDUR8zMMAzqLOFGl66NxgQP7//GajWmozpo2sblbi5ftQ/b9quirFm1T7Gw++6TdsdG8ZYrURp64GpiRNqah86521ltNE+4qqmNohQRPvkjnYDytKcdAZKS4OdEqKKb2rj49XgNxPDKiJ3Y1T97CG/MwkR6Gb0nPcOSvGIZfReRyYa3jFmhxjPnrESjufK0HjOS1e7E25G16INMJRbSwmuOKp/YFo0zJtGib8XDfNfxLACHWMDKYiHqI7bej+vRfsi//npMCxjdkRvqOnpCechI2LojumrLxRDPEpkEbM88Kpg03amnqrTgeJ4Vd3EuSEa1PVxcJeiZ6yovA8MTQgtXZ0bzPy96GxYvCaXNJ+WqdTEG91N7QTHlU1H4lNivDZ89nbsqQL+vTCiUcSNwjRw98PYRRnjedKYiHh+GAyLd97shJiMaJIwPU/Lhy44n0tew+BttaKmUQ2LmU+L96hYGuZ1zksdSTxQtfhdXFxy9PyhMGxTteWtYazXSlww12KslBz6IbdlMqCxOLeGEu4X3oBtGKO1L2L3HWRJiqXtiomeux3xVIULt7rm+FMRlu3/Kc7xtciJenPdF+dDbwr5XZy7KmoPi5oEUDTM71pGuzMxD1fpDe8vLANMnxo6G3iVY1c9ZmEo/xEXg24qT0dM/1gYmS2/KruGKtVq5JEjJqpOFw43H1KEIdlM1LeX79LUSM7nhBN6/WLYl+l82uA5e1tL1XJxM5fykoWo6jwqZkeaocFUrRyqavouP4gopTSiy912YckS0xeTkMU4n7vqoBgKcmTZjrzYHmxHtB+qjzuZZsP4Kc+B2Mdbyxi5r+Ki1ffBtNkYbBdkjPNh4tYyDVEI1n2KcyHzJEu2ptKU5L4Do9ZJC5u+z7IjBgAAjODFFgCAooBpAQCKAqYFACgKmBYAoChgWgCAooBpAQCKAqYFACgKmBYAoChgWgCAooBpAQCKAqYFACgKmBYAoChgWgCAooBpAQCKAqYFACgKmBYAoBwYY/8Hm23fSmwwMM8AAAAASUVORK5CYII=;" vertex="1" parent="1">
          <mxGeometry x="580" y="281" width="93.47" height="109" as="geometry" />
        </mxCell>
        <mxCell id="nDqxRiYawHEeiHayort9-9" value="" style="group;strokeWidth=1;" vertex="1" connectable="0" parent="1">
          <mxGeometry x="230" y="120" width="190" height="110" as="geometry" />
        </mxCell>
        <mxCell id="nDqxRiYawHEeiHayort9-10" value="OBIS / eApp" style="rounded=1;whiteSpace=wrap;html=1;fillColor=#d5e8d4;strokeColor=#82b366;labelPosition=center;verticalLabelPosition=top;align=center;verticalAlign=bottom;" vertex="1" parent="nDqxRiYawHEeiHayort9-9">
          <mxGeometry width="190" height="110" as="geometry" />
        </mxCell>
        <mxCell id="nDqxRiYawHEeiHayort9-11" value="" style="image;aspect=fixed;html=1;points=[];align=center;fontSize=12;image=img/lib/azure2/identity/Multi_Factor_Authentication.svg;" vertex="1" parent="nDqxRiYawHEeiHayort9-9">
          <mxGeometry x="62" y="21" width="68" height="68" as="geometry" />
        </mxCell>
        <mxCell id="nDqxRiYawHEeiHayort9-12" style="edgeStyle=orthogonalEdgeStyle;rounded=0;orthogonalLoop=1;jettySize=auto;html=1;entryX=1;entryY=0.25;entryDx=0;entryDy=0;dashed=1;dashPattern=8 8;fillColor=#f8cecc;strokeColor=#b85450;strokeWidth=2;fontSize=20;" edge="1" parent="1" source="nDqxRiYawHEeiHayort9-15" target="nDqxRiYawHEeiHayort9-18">
          <mxGeometry relative="1" as="geometry">
            <Array as="points">
              <mxPoint x="560" y="175" />
              <mxPoint x="560" y="308" />
            </Array>
          </mxGeometry>
        </mxCell>
        <mxCell id="nDqxRiYawHEeiHayort9-13" value="&lt;font color=&quot;#f41010&quot;&gt;&lt;b&gt;X&lt;/b&gt;&lt;/font&gt;" style="edgeLabel;html=1;align=center;verticalAlign=middle;resizable=0;points=[];fontSize=29;" vertex="1" connectable="0" parent="nDqxRiYawHEeiHayort9-12">
          <mxGeometry x="0.3644" y="2" relative="1" as="geometry">
            <mxPoint y="1" as="offset" />
          </mxGeometry>
        </mxCell>
        <mxCell id="nDqxRiYawHEeiHayort9-14" style="edgeStyle=orthogonalEdgeStyle;rounded=0;orthogonalLoop=1;jettySize=auto;html=1;strokeWidth=2;fillColor=#dae8fc;strokeColor=#6c8ebf;" edge="1" parent="1" source="nDqxRiYawHEeiHayort9-15" target="nDqxRiYawHEeiHayort9-8">
          <mxGeometry relative="1" as="geometry" />
        </mxCell>
        <mxCell id="nDqxRiYawHEeiHayort9-15" value="Moneris API" style="image;aspect=fixed;html=1;points=[];align=center;fontSize=12;image=img/lib/azure2/web/API_Center.svg;labelPosition=center;verticalLabelPosition=top;verticalAlign=bottom;" vertex="1" parent="1">
          <mxGeometry x="592.74" y="141" width="68" height="68" as="geometry" />
        </mxCell>
        <mxCell id="nDqxRiYawHEeiHayort9-16" style="edgeStyle=orthogonalEdgeStyle;rounded=0;orthogonalLoop=1;jettySize=auto;html=1;fillColor=#d5e8d4;strokeColor=#82b366;strokeWidth=2;startArrow=classic;startFill=1;" edge="1" parent="1" source="nDqxRiYawHEeiHayort9-10" target="nDqxRiYawHEeiHayort9-15">
          <mxGeometry relative="1" as="geometry" />
        </mxCell>
        <mxCell id="nDqxRiYawHEeiHayort9-17" value="" style="group;strokeWidth=2;" vertex="1" connectable="0" parent="1">
          <mxGeometry x="230" y="280" width="190" height="110" as="geometry" />
        </mxCell>
        <mxCell id="nDqxRiYawHEeiHayort9-18" value="" style="rounded=1;whiteSpace=wrap;html=1;fillColor=#f8cecc;strokeColor=#b85450;" vertex="1" parent="nDqxRiYawHEeiHayort9-17">
          <mxGeometry width="190" height="110" as="geometry" />
        </mxCell>
        <mxCell id="nDqxRiYawHEeiHayort9-19" value="" style="group" vertex="1" connectable="0" parent="nDqxRiYawHEeiHayort9-17">
          <mxGeometry x="61" y="21.5" width="68" height="68" as="geometry" />
        </mxCell>
        <mxCell id="nDqxRiYawHEeiHayort9-20" value="" style="image;aspect=fixed;html=1;points=[];align=center;fontSize=12;image=img/lib/azure2/identity/Multi_Factor_Authentication.svg;" vertex="1" parent="nDqxRiYawHEeiHayort9-19">
          <mxGeometry width="68" height="68" as="geometry" />
        </mxCell>
        <mxCell id="nDqxRiYawHEeiHayort9-21" value="&lt;font color=&quot;#ffffff&quot; style=&quot;font-size: 25px;&quot;&gt;&lt;b style=&quot;&quot;&gt;X&lt;/b&gt;&lt;/font&gt;" style="ellipse;whiteSpace=wrap;html=1;aspect=fixed;fillColor=#CC0000;strokeColor=#b85450;" vertex="1" parent="nDqxRiYawHEeiHayort9-19">
          <mxGeometry x="15.5" y="28" width="37" height="37" as="geometry" />
        </mxCell>
        <mxCell id="nDqxRiYawHEeiHayort9-22" value="- verify credit card flows&lt;div&gt;- get credit card info&lt;/div&gt;" style="text;html=1;align=left;verticalAlign=middle;whiteSpace=wrap;rounded=0;" vertex="1" parent="1">
          <mxGeometry x="440" y="130" width="170" height="30" as="geometry" />
        </mxCell>
        <mxCell id="nDqxRiYawHEeiHayort9-23" value="Error pages" style="text;html=1;align=center;verticalAlign=middle;whiteSpace=wrap;rounded=0;" vertex="1" parent="1">
          <mxGeometry x="280" y="390" width="80" height="30" as="geometry" />
        </mxCell>
        <mxCell id="nDqxRiYawHEeiHayort9-24" value="Sucess" style="text;html=1;align=center;verticalAlign=middle;whiteSpace=wrap;rounded=0;" vertex="1" parent="1">
          <mxGeometry x="285" y="230" width="80" height="30" as="geometry" />
        </mxCell>
        <mxCell id="nDqxRiYawHEeiHayort9-25" style="edgeStyle=orthogonalEdgeStyle;rounded=0;orthogonalLoop=1;jettySize=auto;html=1;startArrow=classic;startFill=1;fillColor=#d5e8d4;strokeColor=#82b366;strokeWidth=2;" edge="1" parent="1" source="nDqxRiYawHEeiHayort9-26" target="nDqxRiYawHEeiHayort9-36">
          <mxGeometry relative="1" as="geometry" />
        </mxCell>
        <mxCell id="nDqxRiYawHEeiHayort9-26" value="User" style="aspect=fixed;sketch=0;html=1;dashed=0;whitespace=wrap;verticalLabelPosition=top;verticalAlign=bottom;fillColor=#2875E2;strokeColor=#ffffff;points=[[0.005,0.63,0],[0.1,0.2,0],[0.9,0.2,0],[0.5,0,0],[0.995,0.63,0],[0.72,0.99,0],[0.5,1,0],[0.28,0.99,0]];shape=mxgraph.kubernetes.icon2;prIcon=user;labelPosition=center;align=center;" vertex="1" parent="1">
          <mxGeometry x="90" y="711" width="50" height="48" as="geometry" />
        </mxCell>
        <mxCell id="nDqxRiYawHEeiHayort9-27" value="" style="sketch=0;outlineConnect=0;fontColor=#232F3E;gradientColor=none;fillColor=#2875e2;strokeColor=none;dashed=0;verticalLabelPosition=bottom;verticalAlign=top;align=center;html=1;fontSize=12;fontStyle=0;aspect=fixed;pointerEvents=1;shape=mxgraph.aws4.systems_manager_session_manager;" vertex="1" parent="1">
          <mxGeometry x="464.74" y="696" width="78" height="78" as="geometry" />
        </mxCell>
        <mxCell id="nDqxRiYawHEeiHayort9-28" style="edgeStyle=orthogonalEdgeStyle;rounded=0;orthogonalLoop=1;jettySize=auto;html=1;entryX=0.5;entryY=0;entryDx=0;entryDy=0;fillColor=#dae8fc;strokeColor=#6c8ebf;strokeWidth=2;" edge="1" parent="1" source="nDqxRiYawHEeiHayort9-29" target="nDqxRiYawHEeiHayort9-31">
          <mxGeometry relative="1" as="geometry" />
        </mxCell>
        <mxCell id="nDqxRiYawHEeiHayort9-29" value="" style="image;aspect=fixed;html=1;points=[];align=center;fontSize=12;image=img/lib/azure2/security/Multifactor_Authentication.svg;" vertex="1" parent="1">
          <mxGeometry x="629.04" y="600.5" width="55.400000000000006" height="68" as="geometry" />
        </mxCell>
        <mxCell id="nDqxRiYawHEeiHayort9-30" value="&lt;font color=&quot;#ffffff&quot; style=&quot;font-size: 25px;&quot;&gt;&lt;b style=&quot;&quot;&gt;X&lt;/b&gt;&lt;/font&gt;" style="ellipse;whiteSpace=wrap;html=1;aspect=fixed;fillColor=#CC0000;strokeColor=#b85450;" vertex="1" parent="1">
          <mxGeometry x="659.04" y="640.5" width="37" height="37" as="geometry" />
        </mxCell>
        <mxCell id="nDqxRiYawHEeiHayort9-31" value="Authentication API" style="shape=image;verticalLabelPosition=bottom;verticalAlign=top;imageAspect=0;aspect=fixed;image=data:image/png,iVBORw0KGgoAAAANSUhEUgAAAS0AAAFfCAYAAAFsDqqyAAAACXBIWXMAAAsSAAALEgHS3X78AAAgAElEQVR4nO2d71HduBrG5Tv7+R62gnALYEIqCKkgpIET8GdmklSQbAVL5vL5JLiBTSoIVLBwKWBJBcmpwHfESqwQki3JemVJfn4zDHCO/7x+/fix/llu+r5nOfKvLKNCYAFEDWx1dhNNsNECk0FFC45flVN//v3f//VyG/xv9f/Qn6hBxQwuelCxgiMJKkZwZEFNDW5yUP/+7/9+OizjHVyUTBmuyqupmZuSqSuTTahBsePz4MxNzpQW3Gc1KD0wn+CCgxrakS0on+Bi3ZK2AetcD34b4VT+NC03ciofXRxBGdue7DX6zXl1drPDv9qe7O0ww02836wbfTviu+vtyd7+6E5dr8qxzI3pxzVTXlflUHD//u//9h2W8QoqKLChzA3o0Cuo4MBcgwsNalJgY8FNCWpyYLbgpgYVJTA9uBhB8Z9oNXHF59x8aowYGVOyNTlT0TMWG7Rd+ILAfEFgvlgDa9ruQv+/aTsvb5Hb8F3vjsH71fH5595QDVO+HyxhsOPzi1CDHTuVr7UM9CJzR/rnyvenepa0vw/V5W07HgvsGTOU3/vN+vPQSrYd8s/7zfqLsp1H9QKnwPrN+mpMH03b7WrBvDFV57QsbUV2rdvGvdIXBOYLNOYLAvMlepdNVoFF70eKEZgMhrehMcZ+jRXcpMC0oPjvn7GCCw5MD0oSK7igwGxBxQzOO7CxoGIF5xWYKSjTjldnN0eTg/NpanLpNLUss+PbyeV0E7dlSv6vZkR+1rQdz9ZKFp9F8/uPMQlIRk/lwNXXaN9914PSlvc6rYMZcxG6mjk9KEsnhFPmKG7iMlPPLN/vumxkMDCThh5EYNCZkqU/m7bb15bn///porPRjNmCMwVlCi4kqDsS2cU+eZ+4qZ9oZB3voJx9TD+FzOGWFHT6FLyvyrELIkZQLNQuHK7WSUEFBzYUXIygJgVmCi5WUCxWTdx0E59MaFOkyUpibSvILlKBJgJfEJgvCMyXob6kU+Vv3hvy1nfjoi3/yGHRx1gLako/kanPSPYzDRb2RvqaJhUU2fH5h17psJI7s/3Wl1U7upR1dsb2+8vYqRB/fvA5fZbPP/O6QNN2B/1mfWFaRmVM/NuBathX0WnVOPZHvhbLX4z1IzG08weAwHzJVmO5ku2ZzBUkzBMkzJPBksUc6O0g0Wr1kcjG9PWmD9nirn42W3AKsydsrI0ot8TNljDfxrRcEpc8YVNbHedOXLKExW6enStx5Akjacd+uP2kiSNLmGuiXJZzeQglVeKiJ8wxAVf6gZvWG0oUHwjQb9Y7hm2TJo7iUaTRIIeW1QquxkTpwziGRk64xuTK5IRN8SifdV0TZdhH1MQFJyymmQ/1+IcmyrCPA8bYN/Fv8AN5uSjs/mlpG4bG42f8wQeHfewrI2QmP7k4t4c9StRY5ds1cbETdb//me6SO2K83eB6Q9uSXR2GbZMk6n6/hZXDhpYhTZSkhpJ+kkRJSq5LJk2UpMTWilkSJSmpPWzWRElKaHHNIlGSnNv0s0qUJLue77HK99xgqIAn6Mj1BAnzBAnzBAnzBAnzBAnzBAnzxDth6mw/hu/UWYPG5syZVABU53ty2V8svMeH8VmImrZ71OIpAn4l/r1kjD2XByb/Nhw0X+eF7JyQ25MHLwaPq1UkWweIur9HidO3K/i136x/6suOETSgTo6C10fEq1M62YJmWkLE/0P74u31D9Yd6jWyJF12tV0qi/5Qt+tK8AhEJWk/WWDXlwtjCTKhr8OVxE9Kv1kfTA4o5jOFU3/Y8fmB5UkZ4+dBj+VM3BYq356gWOEJEuYJEuYJPMwDqMsDJMsDJMsDJMsDJMsDJMsDJMuD7JLFRx/Gngc2FlklSx3+nWPCskmWPk6eZZiwLJKlJWo7NufqXMyeLEOi7oaV55iwWZNlS5Qkt4TNlqyxRElyStgsyXJNlCSXhCVPlm+iJDkkLGmyQhMlmTthyZI1NVGSOROWJFmxEiWZK2HkyYqdKMkcCSNNFlWiJKkTRpYs10Txg5SvjBjY1pUtGSkTRpKsAEV9siWMJ4ox9nRo5VQJi56sCQXORwlTE+XwlhXyhEVNlsel9+BRFVPCxhKlv09CX44iYTEfXnf2KPHns+3J3pXlu++MsSfMnqj7bVgeXCd5OjfWm7ecLz0l+D8HFOaSKKYOr7RsJ6rCYrwNzLt44JIwh0QNjkKkSNiky3BqOWroknwUqEeiLPuYfElOeWva5ALnkMJUQhPFIitsymWoTsIzpWR+Ln4b/WdKoiSxEjb5/S9TAlid3XyWrzoeuETO1X9CHiCIdSlGeSeNHpALjoniSjqakrCYnjXLe3KGEiUKpZ/4ExLqvDj83QH6C7fHLsnY5a0o5SwfhTkmivND3ETu8FUYRcE0WnXHI2EuiZIvjBhNmAmqEvwsU08Z1rlPlDLtlPoAlPGStEw9RTYREcloZc9Jzh4lSvnOmrCp+w2BpD3L9ZIcSpT47Mp2SRq2RZooRj0O3nWyMgf1Db4mL0WiWCWTmSVJFEvRu0PZIJcyUSxVvyFFwlIniqXskY6ZsDkSxVKPdYhU+Z4lUWyOUTQTK9+zJYrNNT4rJGFzJ4rNOfLPs/I9e6LY3GNKXRKWS6JYDqOVhxKWU6JYLuPgTQnLLVEst2ekTZdiTu8yy+rZHT0xub30LbunwoZ6pOcGUxV4gIczPUCyPECyPECyPECyPECyPECyPECyPECyPECyPECyPECyPECyPECyPAiZBv1i7LsUU5Kr+0g1BXqIsp7LSalVRMD3U503bWd94JLi4Jq2ext7mzohs3mf66OGJXLYItXM3jZS7S+opVQo4/7xtabtbvmTXOo87dqc7c/EcMf7R+Mkcgp1fS55y4T4zLYP2/J88v5+s76I8aTGFINXHx95MjKK+E8eXL9Z76rqcwz42mNZdbu/if8vxMl8sE8xiNeLoGRpKthh/wy7Hl0+YF/629FdJ8Z/r+yXn8zv4t0YF0LhRisZIvgNBEy5/KZsw2Ef3j6hvDtD5YirbEosUy7DjzJRhK9quH8VhOs+lPda6In5Zl7DnSnvtnjbtN2b0PUNLwQxKYj7ypuhN7Bo2zxS/r7fvvryEmXxa/0SHyWXd1iw4/OdgWWt36X8QSerB6gbeoBkeYBkeYBkeYBkeYBkeYBkeYByFiADVyIgA+ICZEBcgAyIC5ABcQEyIC5ABsTlSM6vzMsVtHONYHprHsv0CdzcgLgs2ESlA5HZgbg0BkS1ZYzt2gQHkT0G4hIMiUqf433I1SCyf1i8uHxE5bHu4kXGliyuKaLy2NaiRbY4ccUUlce2FymyxYiLUlQe+1qUyKoXV0pReex7ESKrVlxzisojlqpFVp24chKVztJEVo24chaVzlJEVry4ShKVTu0iK1Zckdup+HPvb7cne95TRRi2xecVOfXZVq0iK05cBKJaaR8fh4hMfYG9wqvtyd4Xj21UJbJixEXc+GlKgpPILKK63p7s+U088XCbVYgse3Elbvx0FhmFqAz7KFpk2Yor8u1PFcIz8SbUoeWtIpsiKjGnkbwN38/75hB/kSLLTlwUTmURS6jIVEJE9SiOWkWWjbhS3P4iiiyGqO4ImfmtFJHNLq452qlCReYKlah0chfZbOLKofEztshSiUonV5ElF1eOLepT39g4l6h0chPZHC+pfjT3umDw5FCxOrsxtWVtXXcnJoAei/1ZosPZtXx+nWj/D5i1zGWrjaW4yoSo9Mmug91TiGxs8mznmqEPq7ObfW2WdknUdjdfsqgtphRZqKhWZzfcFY62J3sfhpZLKbJcRSXJ/m3VLJLIJoiKzzf+yfDVrwO3eFKR5S4qSZYt9DFFRiAqnckicy3slyIqSdZ9i7FEptSigkUl9zlwgr1FVquoJEWMikhRJhsTlWH5UJGd8teNOMZUpKgkRY3nohCZr6gM6weJLHCbRYhKUuRI1Ii3y0cnMVSoMbZVi6gkRY+hjymyWP2KIduqTVSSKp7+mbMxdgq1ikpS1XOLpYisdlFJqnziOleRLUVUkqrnishFZEsTlWQRs9zMJbKlikqyqPm5Uols6aKSLHJmQSqRQVQPWfScqJSNsYJFikqy+Al32QSRQVTDQFwKriKDqNyAuAwMPAz7DKJyB+IaINYT10sF4nIg9InrpQNxecAnIYGo3IG4ABl4mScgA+ICZEBcgAyIC5ABcQEyIC5ABsQFyIC4ABkQFyAD4gJkQFyADIgLkAFxATIgLkDGL9SpbdpOHdPjNAeoNq/7cb9Zf9a281u/WQ9OfGvZ7gH7e0a/C991Y9G0Hd/3c6bNLKgd33m/WR/NFWMsyJ1Lm5rRNP78AXzmPUVYl1xYynYuGWPvJgjrm/jJDnF8X8XxFS8slsK5mEicvDL5b9tcoE3b8em43yjrHSjf8YTzq35HW+dITO7/ud+sb5u2499/EcudSnGOiappu3vBmsTr8D0foco/579veQz9Zn06mJjHx3FlOD6XC+nu2LX1eE5Ole3xXDi/tTYGScQleCFPML/t9Zu1aeLbv+QfBgEeyduJOIn65++bttO3d9S03SFj7KX6oXYLeiFuk++Vz0wn1Pi9tq3vQth3MTVt97vlWEzYju/92Iqq2PXbqxAY3/YfMj8pXhXDUoqLn8Cm7c7FjMYrfeJZNSkTDt5aFou0/UdYtvVWOMdfYt8HoeU8ffvqdvmDIv1mva98J4/xe79Zq69quRAX2oUQvfXuEZOUzsUTJZ2El6neCIHxW5lq6S8mbN+7LBaLpu34hfI78T7uKzoG0R0o/z7RHGwWkoqL/Z2UHeXA/2ra7hVPhvj/fM6anC+inCRngr42nPAoJ1iU52Rl6FIti0rEnUH++7XfrA+jHmwAs7RzaSfhD/F7m7qWJE6a5KPy+WdtOVvzyf0U4+rticUV1k8pLJ43k7AU3ok/X5r2z4+Lfy5ureQkdy6F/2gFeNJ3Leo1Vvl503Z3BXpe/hOi4ifyddN26tsuXoga6SfDNm8NtyFe5mmmCkzUFFfK/8btyYtV1E5PRXPOG8vyx3rNkgo8twjIQPcPIAPiAmRAXIAMiAuQAXEBMiAuQAbEBciAuAAZaEQFJMC1AAkQFiABwgIkQFiABAgLkABhARIgLEAChAVIgLAACRAWIAHCAiRAWIAECAuQAGEBEiAsR/jLOFdnN1XMfZUCCMsBLirG2FP+xDTE5QaENYIiKgnE5QCENYBBVBKIawQIy8KAqCQQ1wAQlgEHUUkgLgsQlsaAqJ7xydgMn0NcBiAshSFRbU/2rrYne/sQlxsQlmBMVPIfiMsNCMtDVBKIa5zFC8tXVBKIa5hFCytUVBKIy85ihTVVVBKIy8wihRVLVBKI6zGLE1ZsUUkgrocsSlhUopJAXP+wGGFRi0oCcf3NIoSVSlQSiGsBwkotKsnSxVW1sOYSlWTJ4qpWWHOLSrJUcVUprFxEJVmiuKoTVm6ikixNXFUJK1dRSZYkrmqElbuoJEsRVxXCKkVUkiWIq3hhlSYqSe3iKlpYpYpKUrO4ihVWLFGtzm72V2c3Ud77sjq72fHdVq3iKlJYMUUl3m7PpoqLi4ox9iNkWzWKq7iXNEUU1b0QVLYne01ATFG2NXBsx9uTvc++cc1JUY4Vs0y1Pdn7yU+YYR9eV5pNVIyxX322wypzrmKERVFQFy4QLK4hUQnhhsRUhbiKEBZl7S9UXBSiUmIqXlzZCytFk4KvuChFpcRUtLiyFlbMgvrq7GbwhLuKa4qomrbbb9rOWXgliytbYRHU/lZTxTVVVKJpY7UEcWXZ3EDcpLDdnuztjKzHT9gnx934iOpBHP1mPRiHFlNRTRHZORZBk8K5votQ5zIQKipWu3NlJSyiJoUjInFNEdV9HE3bOYuiJHFlIyziJoXY4oohKs5xv1l73cZKEVcWwkrUpBBLXLOJSokpe3HNXnhPPfRldXbDT+Zr7ePRAr0r1KJSyblAP6tjzTGeKtS5XEgpKpa5c80mrDkH6VGIK7WoJLmKaxZh5TDyM6a45hKVJEdxJRdWTsOJB8T1xXUbc4tKkpu4kgprdXZzaBHV17nGqAtx6bx0WTcXUUmEuEy49iJEI6mwtid7XyztQi9FbS05lhEMz1zi6Ddrl4vhNNUxDdzGvQcdTiX5rXCg0fF1anHZROXjnv1mPTb82KvrJhQhqpVh9WhDeXyYpfCeg7hiiEoyt7hyExWbs7lhTnHFFJVkLnHlKCo2dwPpHOIKFRWvWYnHxaykFleuomK5jMcaGP90bqm1he4nVFTqetcDta87mrYbS6rXWCxLTNmKiuXSCZ3CuSKJivNUtMVZoXau3EXFcho2QymuiKKSzCauEkTFchvoRyEuAlFJYonL+VZfiqhYjkOTCcSld3OEiop3/Wy1z6aKy7lVviRRsVyf0okpLq0PLVhUvBIhxmzFEle1omK5TwoSs7a4OrvZ3Z7s3Y4sYxWVtpzpRPvUFqsWFSthtpmZmyKs+5ggrqPaRcVKmcaIWly+olLWCxKXY0zFioqVMinIDE0RToINLXM5xFS0qFhJ0xglbIrwcsHY4qpBVKy0idcIxKULIujWahGXt7BqERUrcQ7SyE0RqiAmldembqsmUbFSJ7clENfHGJWA0G3VJipW4uS2KqmaIiipUVSs9BcI5DTMOYRaRcVqeOVJqeKqWVSslpc0lSau2kXFanqtXCniWoKoWG0vwsxdXEsRFavx1b25imtJomK1vmw8N3EtTVSsVmGxjMS1RFGxmoXFMhDXUkXFahcWm1FcSxYVW4Kw2AziWrqo2FKExRKKC6L6m8UIiyUQF0T1D4sSFiMUF0T1kMUJixGIC6J6zCKFxSKKC6Iys1hhsQjigqjsLFpYbIK4IKphFi8sFiAuiGocCEvgKi6Iyo2iH6agYOgBDcbYIUTlBoRlIPY7oZcIboUGYr4TeqlAWBZivBN6yUBYA0x5J/TSgbBGCHknNEDh3RlRoP8CUbkBYQEScCsEJEBYgAQIC5AAYQESICxAAoQFSICwAAkQFiABwgIkQFiABAgLkABhARIgLEAChAVIgLAACRAWIAHCAiRAWIAECAuQAGEBEiAsQAKEBUiAsAAJEBYgAcICJEBYgAQIC5AAYQESICxAwi+UaW3ajs8ttSv+Pew3a6cpgJq2eysmkr1fr2k7OS3Ou36zPqWJmB7lOC77zfpAOWb5+cd+s35b6vFJqB3rA2Psufj54bHe73I9IaoP2ndBNG130LTdTtxDnI64kCRvcosvBFJh9Zv1rfq/y0lt2u5C+fej+H1rWdwZ4QjfGGP7U7dFwEXyPRKTooz1m/K3SwKfyz/kLaHfrPkt9Z24fTQkUc5Iv1lfiekoL/lUlDUcE2kZi/2dtA9N270X/z4dWrZpuyPl3+/adni5qtiy1Rji4kn2dn1qyIUl4CJ5woR4RBJNqJP2H6jfK+WsW3V98fn9Z0Kc3Ol+qoXjMZTtX/Sb9SNndfheVjj4rZZ/f+RaWdG2f3cxKseyO7iisrwlHhnzo2UoSSWsfaXw/snlytTLZ4wx6XqX2vp3n4uy2ZX+ShKltiX51rSdup9G3Y7AdMs2ft+03ZXBiV/y423a7rzfrI+YG+r2pQiO1KLBAPeiadru1FABeC7uGpc+F9sUkrRjuVy5Tdt9Uf79bWBRG58t77kho2m7W01Ul+JH8prXRInDuN+faN5RRXUsyqayWPFcCI+cVI4lD/KTSMCF4cp5Kf8ItG1+ZW/7zfpBzZM7kji538RHL0y3shD6zXpXOOKrfrNWLwzVKfnnQU0cNndRXVhb5rX4/Z3Hpnx+Ki7cl0J45O1kyVretXLVA3tv2u5Q+fdBod1zH8nbqLhwdVFpRHXRpu3u3V+tIauOr4lKfnaoLEt+O0zpWJxreevQCvF/KMuEtjNdOixTNOI2JoX6SjuWe8fX2gJNHFC3naUW1sFYId6nJpULTdvtimNxKWgHIfYhy0+XIy45Fgd5jpMKS3TPPPhMFDgl71LGEwNDrZOKv+SGx2p2OTQip3YsphXiPysFTlZa57ImqgeVgpiCs5WrNO7bCnMg+bAZrRD/Wvn7OouMODRIGngVq6apIy4+Wa56NrCo2paVtDHUxFzjsUwF7SQNd7JbaKBDXBW7HBHxyH1EmUeyq30XxXmbtttX4vkq+hSNaBfse11cPF5+HKr7UTLHrfCujKCfLMpCO3cTpWz3VO67aTu13etSFnpdbmO8Z0DZ5u+iC+VWKThvIzQ1/Kn8/dISl9qa/qtSOXqv9NGqrPhFRV1JymUEqcv7l6diqhioZZcDy+34+0C5Rr01PVFE9WqO4TlCLEOjI76Ldjdy11rc+wpl4+BQmUgsc2vor7Qtz2+Fu1TlrFDmjAsvwgQk4GEKQAKEBUiAsAAJEBYgAcICJEBYgAQIC5AAYQESICxAAoQFSICwAAkQFiABwgIkQFiABAgLkABhARIw0A8AUBS4GwIAigKmBQAoCpgWAKAoYFoAgKKAaQEAigKmBQAoCpgWAKAoYFoAgKKAaQEAigKmBQAoCpgWAKAoYFoAgKKAaQEAigKmBaKzOrvZWZ3dHCKzgAJMTQOiwc2KMcZfpPhU2ebx9mTvM7IMYgHTApOxmJUOzAtEAaYFgnE0Kx2YF5gETAt4E2hWOjAvEARMCzgTyax0YF7AC5gWGCXArLaMsVtUGwEFMC1gJdCsDrYne1cMbV6ACJgWeMRUs4qwPQbzAjZgWuCe2GalA/MCMYBpAXKz0oF5gSnAtBZMarPSgXmBEGBaC2Rus9KBeQEfYFoLIjez0oF5ARdgWgsgd7PSgXmBIWBaFVOaWenAvIAJmFaFlG5WOjAvoALTqojazEoH5gUYTKsOajcrHZjXsoFpFczSzEoH5rVMYFoFsnSz0oF5LQuYVkHArIaBeS0DmFYBwKz8gHnVDUwrY2BW04B51QlMK0NgVnGBedUFTCsjYFa0wLzqAKaVATCrtMC8ygamNSMwq3mBeZUJTGsGcjSr1dnNPmNsd3uy92WuvJgQuTqgjAvmVRYwrYRkbFY8ppXy8ewXpCVXpHHBvMoAppWAgsxKJ/kF6ZgrmNeCgWkRknOb1ers5ogx9slxcfIL0jNX1yJPPzOKSQLzIgamRUBJDexzm1eOZqUD88oLmFZESu4NTG1eJZiVDswrD2BaEahp6AK1eZVoVjowr3mBaU0g0wZ2HtPO9mTvduJ2oprXXGbVtB3vcGD9Zh095zCveYBpBZCxWakxRdnnVPOa2azU3tG7fMC8ygem5UEhZkUSg695Mca+ZGJWOjCvwoFpOZD50AUu+NepYvI0rzFSmpUOzKtQYFoDFDZ0oSTzmtOsdGBehQHTMlD40IWczSsns5Ic95t1TgNn7+OCeZmBaSlUNnQhJ/NapFnpwLziANOqfIqY1OYl9nnIZ4zgjfFTh15ISjYrHZjXNBZtWkuaz2oO84pBTWalA/MKY5GmteTJ90oxr5rNSgfm5ceiTAszhf5Drua1JLPSgXm5sQjTglnZycW8lmxWOjCvYao2LZiVO67mtT3Za2LuF2ZlB+Zl5l85BhUL0cV+6rE5fuG8zfuo4uNR2voac+dN2/Fz8+dEw+I3mme1GZZgV/y4ci0en6qaxbRpBYzgPt+e7B0RhjQ7GVUNXeMYgmxke2ocp8JWyXIKHyoW13sI88q6EX7R5gWzcmOx47SWaF4FDXdYlHnBrPxY/Ij4JZhXwQNLqzYvmFUYizctSY3mNdPzh6faRXjJGDuccqHVZl4wq2nAtDRqMK9MZ3qYfOGVbl4wqzjAtCyUaF6FzKm1OPOCWcUFpjVCCeZV6Oyl1ZsXzIoGmJYjOZqXx4jpHKdalsxtXtFH0sOsaIFpeVKYec1hVvfH63nxpjYvmFWhwLQCydy8duc0K8N2cjIvmFXhwLQmUulQiShmZdjunOYFs6oEmFYkKhkqQWJWhv0kNa/YwKzmBaYVmUKHSiQxK8N+izIvmFUewLSIKGSoxCxmZYgja/OCWeUFTIuYjBvsbx0vwmRm6mkO77Ynez5zpVHHw2BWaYBpJSJT8xq6KGerts4dF8wqb2BaiSnAvLLpIEgdF8yqDGBaM4HJCPMBZlUWMK2ZgXnNB8yqTGBamQDzSgfMqmxgWpkB86IDZlUHMK1MgXnFA2ZVFzCtzIF5hQOzqhOYViHAvNyBWdUNTKswYF52YFbLAKZVKDCvf4BZLQuYVuEs2bxgVssEplUJSzIvmNWygWlVRs3mBbMCDKZVLzWZF8wKqMC0Kqdk84JZARMwrYVQknnBrMAQMK2FkbN5wayACzCthZKTecGsgA8wrYUzp3nBrEAIMC1wR0rzglmBKcC0wAMozQtmBWIA0wJGYpoXzArEBKYFBpliXjArQAFMCzgRYF4+wKyAMzAt4EVk84JZAW9gWiCIieYFswLBwLTAJDzNC2YFJgPTAlEYMS+YFYgGTAtERTMvmBWIDkwLAFAU/8LpAgCUBEwLAFAUMC0AQFHAtAAARQHTAgAUBUwLAFAUMC0AQFHAtAAARQHTAgAUBUwLAFAUMC0AQFHAtAAARQHTAgAUBUwLAFAUMC0AQFHAtAAARQHTAgAUBUwLAFAUMC0AQFHAtAAARQHTAgAUBUwLAFAUMC0AQFHAtAAARQHTAgAUBUwLAFAUMC0AQFHAtAAARQHTAgAUxS84XfFp2m6fMXbAGPvJGLvoN+vb2o6xFJq2O2WM7WvhXvWb9VvbITRttyvO3444f1dLz2NOFG1aTdt9YIy9N3x13W/WulCp9nXZb9YHYhn++5thXf7rRb9ZX8SMCTjBdfDcZUFhVn8ZPue/XvWb9RekfH6Krh72mzU3kq+Gr542bfc51n6atjuyGNZWGpbgcGAzR7HiGaNpu4um7Xrl52DaFhfD0DmylsxAWopv0+o3a24U3w1fvRZmMwlx9/1k2caD0pyoclwaluOlsSSmJb1/CbYAAAT+SURBVOJ1KlmAh4ib4LkhLdcjNySQkFratLh5/DB8/qlpu6uJbRK2dY9NbVVayWsOkpXoakTcXJDDjKmi97DfrHmD9wvL17yqtBOy3abteBvGyvDVb/1mHa36GRlUBUHVVNN7yBu5m7Z7xxj7XfuKm86FoQdpENHw/tKwzFdRjTDC25MM1bNLWwnMsPz3frPeZf/0QnLjfGI55ka03e2K4zMZLOebaEw28aCDgLeDGZb5beiYteMJWl9U5T/YjlVjyxg7dY3JB8v5u8u1IWbjsoEMdtSIdkl+vC77480lHzK+sU6iqiEP/WZ9Ki7019pXvGH+dKibW6Vpu0NLw/t30YZGyRMhUN5V/3RgP7LtTD/WYhBGdTpgtjb48u+btuPn6KPrec0Zk2GJGsLFiA5MPBFNI59Ee9yBqI1UQXXjtHibhLjo9Tv2G9G+NXj3EQ3Zf1i+TlX10odNcOHdivY1GQO/2B+UAGxDLjIebvHTYFiXopTwIF5xAZ8aTJqf151UHR0qvu2XlpLZ1lQLEDdOkw7vOgVM7akiR5+1GgI3vB9N21Uz5KbWwaX74iLXLwh+9xkb7Gk7sS9mGCRa9dguMe7pUbXLsiw3uCPRzqhfzK9FSTrLQaADBmQsJQ4szzt/rDddkaNDy3izb665zp0qH+MRJ892F7QKW7QPmdpU3iU2D373/RWDUR8zMMAzqLOFGl66NxgQP7//GajWmozpo2sblbi5ftQ/b9quirFm1T7Gw++6TdsdG8ZYrURp64GpiRNqah86521ltNE+4qqmNohQRPvkjnYDytKcdAZKS4OdEqKKb2rj49XgNxPDKiJ3Y1T97CG/MwkR6Gb0nPcOSvGIZfReRyYa3jFmhxjPnrESjufK0HjOS1e7E25G16INMJRbSwmuOKp/YFo0zJtGib8XDfNfxLACHWMDKYiHqI7bej+vRfsi//npMCxjdkRvqOnpCechI2LojumrLxRDPEpkEbM88Kpg03amnqrTgeJ4Vd3EuSEa1PVxcJeiZ6yovA8MTQgtXZ0bzPy96GxYvCaXNJ+WqdTEG91N7QTHlU1H4lNivDZ89nbsqQL+vTCiUcSNwjRw98PYRRnjedKYiHh+GAyLd97shJiMaJIwPU/Lhy44n0tew+BttaKmUQ2LmU+L96hYGuZ1zksdSTxQtfhdXFxy9PyhMGxTteWtYazXSlww12KslBz6IbdlMqCxOLeGEu4X3oBtGKO1L2L3HWRJiqXtiomeux3xVIULt7rm+FMRlu3/Kc7xtciJenPdF+dDbwr5XZy7KmoPi5oEUDTM71pGuzMxD1fpDe8vLANMnxo6G3iVY1c9ZmEo/xEXg24qT0dM/1gYmS2/KruGKtVq5JEjJqpOFw43H1KEIdlM1LeX79LUSM7nhBN6/WLYl+l82uA5e1tL1XJxM5fykoWo6jwqZkeaocFUrRyqavouP4gopTSiy912YckS0xeTkMU4n7vqoBgKcmTZjrzYHmxHtB+qjzuZZsP4Kc+B2Mdbyxi5r+Ki1ffBtNkYbBdkjPNh4tYyDVEI1n2KcyHzJEu2ptKU5L4Do9ZJC5u+z7IjBgAAjODFFgCAooBpAQCKAqYFACgKmBYAoChgWgCAooBpAQCKAqYFACgKmBYAoChgWgCAooBpAQCKAqYFACgKmBYAoChgWgCAooBpAQCKAqYFACgKmBYAoBwYY/8Hm23fSmwwMM8AAAAASUVORK5CYII=;fillColor=#dae8fc;strokeColor=#6c8ebf;strokeWidth=2;" vertex="1" parent="1">
          <mxGeometry x="610" y="800" width="93.47" height="109" as="geometry" />
        </mxCell>
        <mxCell id="nDqxRiYawHEeiHayort9-32" style="edgeStyle=orthogonalEdgeStyle;rounded=0;orthogonalLoop=1;jettySize=auto;html=1;entryX=-0.019;entryY=0.463;entryDx=0;entryDy=0;entryPerimeter=0;fillColor=#f8cecc;strokeColor=#b85450;strokeWidth=2;startArrow=classic;startFill=1;" edge="1" parent="1" source="nDqxRiYawHEeiHayort9-27" target="nDqxRiYawHEeiHayort9-29">
          <mxGeometry relative="1" as="geometry">
            <mxPoint x="580" y="735" as="sourcePoint" />
          </mxGeometry>
        </mxCell>
        <mxCell id="nDqxRiYawHEeiHayort9-33" value="authentication&amp;nbsp;&lt;div&gt;data&lt;/div&gt;" style="edgeLabel;html=1;align=center;verticalAlign=middle;resizable=0;points=[];" vertex="1" connectable="0" parent="nDqxRiYawHEeiHayort9-32">
          <mxGeometry x="-0.074" y="-2" relative="1" as="geometry">
            <mxPoint as="offset" />
          </mxGeometry>
        </mxCell>
        <mxCell id="nDqxRiYawHEeiHayort9-34" value="Group Mobile App" style="text;html=1;align=center;verticalAlign=middle;whiteSpace=wrap;rounded=0;" vertex="1" parent="1">
          <mxGeometry x="225" y="860" width="110" height="30" as="geometry" />
        </mxCell>
        <mxCell id="nDqxRiYawHEeiHayort9-35" value="" style="group" vertex="1" connectable="0" parent="1">
          <mxGeometry x="220" y="610" width="140" height="250" as="geometry" />
        </mxCell>
        <mxCell id="nDqxRiYawHEeiHayort9-36" value="" style="rounded=1;whiteSpace=wrap;html=1;fillColor=#f5f5f5;fontColor=#333333;strokeColor=#666666;" vertex="1" parent="nDqxRiYawHEeiHayort9-35">
          <mxGeometry width="140" height="250" as="geometry" />
        </mxCell>
        <mxCell id="nDqxRiYawHEeiHayort9-37" value="" style="strokeWidth=1;shadow=0;dashed=0;align=center;html=1;shape=mxgraph.mockup.forms.rrect;rSize=0;strokeColor=#999999;fillColor=#ffffff;" vertex="1" parent="nDqxRiYawHEeiHayort9-35">
          <mxGeometry x="20" y="18" width="100" height="210" as="geometry" />
        </mxCell>
        <mxCell id="nDqxRiYawHEeiHayort9-38" value="" style="strokeWidth=1;shadow=0;dashed=0;align=center;html=1;shape=mxgraph.mockup.forms.anchor;fontSize=12;fontColor=#666666;align=left;resizeWidth=1;spacingLeft=0;" vertex="1" parent="nDqxRiYawHEeiHayort9-37">
          <mxGeometry width="50" height="20" relative="1" as="geometry">
            <mxPoint x="10" y="10" as="offset" />
          </mxGeometry>
        </mxCell>
        <mxCell id="nDqxRiYawHEeiHayort9-39" value="User Name:" style="strokeWidth=1;shadow=0;dashed=0;align=center;html=1;shape=mxgraph.mockup.forms.anchor;fontSize=12;fontColor=#666666;align=left;resizeWidth=1;spacingLeft=0;" vertex="1" parent="nDqxRiYawHEeiHayort9-37">
          <mxGeometry width="50" height="20" relative="1" as="geometry">
            <mxPoint x="8" y="10" as="offset" />
          </mxGeometry>
        </mxCell>
        <mxCell id="nDqxRiYawHEeiHayort9-40" value="johndoe" style="strokeWidth=1;shadow=0;dashed=0;align=center;html=1;shape=mxgraph.mockup.forms.rrect;rSize=0;strokeColor=#999999;fontColor=#666666;align=left;spacingLeft=5;resizeWidth=1;" vertex="1" parent="nDqxRiYawHEeiHayort9-37">
          <mxGeometry width="83.33333333333334" height="25" relative="1" as="geometry">
            <mxPoint x="8" y="30" as="offset" />
          </mxGeometry>
        </mxCell>
        <mxCell id="nDqxRiYawHEeiHayort9-41" value="Password:" style="strokeWidth=1;shadow=0;dashed=0;align=center;html=1;shape=mxgraph.mockup.forms.anchor;fontSize=12;fontColor=#666666;align=left;resizeWidth=1;spacingLeft=0;" vertex="1" parent="nDqxRiYawHEeiHayort9-37">
          <mxGeometry width="50" height="20" relative="1" as="geometry">
            <mxPoint x="8" y="65" as="offset" />
          </mxGeometry>
        </mxCell>
        <mxCell id="nDqxRiYawHEeiHayort9-42" value="********" style="strokeWidth=1;shadow=0;dashed=0;align=center;html=1;shape=mxgraph.mockup.forms.rrect;rSize=0;strokeColor=#999999;fontColor=#666666;align=left;spacingLeft=5;resizeWidth=1;" vertex="1" parent="nDqxRiYawHEeiHayort9-37">
          <mxGeometry width="83.33333333333334" height="25" relative="1" as="geometry">
            <mxPoint x="8" y="85" as="offset" />
          </mxGeometry>
        </mxCell>
        <mxCell id="nDqxRiYawHEeiHayort9-43" value="SIGN IN" style="strokeWidth=1;shadow=0;dashed=0;align=center;html=1;shape=mxgraph.mockup.forms.rrect;rSize=5;strokeColor=none;fontColor=#ffffff;fillColor=#66bbff;fontSize=16;fontStyle=1;" vertex="1" parent="nDqxRiYawHEeiHayort9-37">
          <mxGeometry y="1" width="80" height="30" relative="1" as="geometry">
            <mxPoint x="10" y="-90" as="offset" />
          </mxGeometry>
        </mxCell>
        <mxCell id="nDqxRiYawHEeiHayort9-44" value="" style="strokeWidth=1;shadow=0;dashed=0;align=center;html=1;shape=mxgraph.mockup.forms.anchor;fontSize=12;fontColor=#9999ff;align=left;spacingLeft=0;fontStyle=4;resizeWidth=1;" vertex="1" parent="nDqxRiYawHEeiHayort9-37">
          <mxGeometry y="1" width="75" height="20" relative="1" as="geometry">
            <mxPoint x="10" y="-110" as="offset" />
          </mxGeometry>
        </mxCell>
        <mxCell id="nDqxRiYawHEeiHayort9-45" value="SIGN UP" style="strokeWidth=1;shadow=0;dashed=0;align=center;html=1;shape=mxgraph.mockup.forms.rrect;rSize=5;strokeColor=none;fontColor=#ffffff;fillColor=#66bbff;fontSize=16;fontStyle=1;" vertex="1" parent="nDqxRiYawHEeiHayort9-37">
          <mxGeometry y="1" width="80" height="30" relative="1" as="geometry">
            <mxPoint x="10" y="-50" as="offset" />
          </mxGeometry>
        </mxCell>
        <mxCell id="nDqxRiYawHEeiHayort9-46" style="edgeStyle=orthogonalEdgeStyle;rounded=0;orthogonalLoop=1;jettySize=auto;html=1;fillColor=#dae8fc;strokeColor=#6c8ebf;strokeWidth=2;exitX=0;exitY=0.5;exitDx=0;exitDy=0;startArrow=classic;startFill=1;" edge="1" parent="1">
          <mxGeometry relative="1" as="geometry">
            <mxPoint x="629.04" y="854.5" as="sourcePoint" />
            <mxPoint x="499" y="780" as="targetPoint" />
            <Array as="points">
              <mxPoint x="499.03999999999996" y="855" />
            </Array>
          </mxGeometry>
        </mxCell>
        <mxCell id="nDqxRiYawHEeiHayort9-47" value="ISAM" style="text;html=1;align=center;verticalAlign=middle;whiteSpace=wrap;rounded=0;" vertex="1" parent="1">
          <mxGeometry x="452" y="660" width="60" height="30" as="geometry" />
        </mxCell>
        <mxCell id="nDqxRiYawHEeiHayort9-48" value="Authentication API" style="text;html=1;align=center;verticalAlign=middle;whiteSpace=wrap;rounded=0;" vertex="1" parent="1">
          <mxGeometry x="586.7399999999999" y="570.5" width="140" height="30" as="geometry" />
        </mxCell>
        <mxCell id="nDqxRiYawHEeiHayort9-49" value="Simulated error conditions" style="text;html=1;align=center;verticalAlign=middle;whiteSpace=wrap;rounded=0;" vertex="1" parent="1">
          <mxGeometry x="440" y="350" width="130" height="30" as="geometry" />
        </mxCell>
        <mxCell id="nDqxRiYawHEeiHayort9-50" value="stateful session and authentication data" style="text;html=1;align=center;verticalAlign=middle;whiteSpace=wrap;rounded=0;" vertex="1" parent="1">
          <mxGeometry x="489.03999999999996" y="860" width="140" height="30" as="geometry" />
        </mxCell>
        <mxCell id="nDqxRiYawHEeiHayort9-51" value="cookie and session data" style="text;html=1;align=center;verticalAlign=middle;whiteSpace=wrap;rounded=0;" vertex="1" parent="1">
          <mxGeometry x="362" y="690" width="90" height="30" as="geometry" />
        </mxCell>
        <mxCell id="nDqxRiYawHEeiHayort9-52" style="edgeStyle=orthogonalEdgeStyle;rounded=0;orthogonalLoop=1;jettySize=auto;html=1;entryX=0.006;entryY=0.537;entryDx=0;entryDy=0;startArrow=classic;startFill=1;fillColor=#d5e8d4;strokeColor=#82b366;strokeWidth=2;entryPerimeter=0;" edge="1" parent="1" source="nDqxRiYawHEeiHayort9-53" target="nDqxRiYawHEeiHayort9-55">
          <mxGeometry relative="1" as="geometry">
            <mxPoint x="240" y="1198" as="targetPoint" />
          </mxGeometry>
        </mxCell>
        <mxCell id="nDqxRiYawHEeiHayort9-53" value="User" style="aspect=fixed;sketch=0;html=1;dashed=0;whitespace=wrap;verticalLabelPosition=top;verticalAlign=bottom;fillColor=#2875E2;strokeColor=#ffffff;points=[[0.005,0.63,0],[0.1,0.2,0],[0.9,0.2,0],[0.5,0,0],[0.995,0.63,0],[0.72,0.99,0],[0.5,1,0],[0.28,0.99,0]];shape=mxgraph.kubernetes.icon2;prIcon=user;labelPosition=center;align=center;" vertex="1" parent="1">
          <mxGeometry x="90" y="1174" width="50" height="48" as="geometry" />
        </mxCell>
        <mxCell id="nDqxRiYawHEeiHayort9-54" value="" style="group;strokeWidth=1;" vertex="1" connectable="0" parent="1">
          <mxGeometry x="140" y="1122" width="250" height="150" as="geometry" />
        </mxCell>
        <mxCell id="nDqxRiYawHEeiHayort9-55" value="Group Mobile App" style="image;aspect=fixed;html=1;points=[];align=center;fontSize=12;image=img/lib/azure2/general/Mobile_Engagement.svg;labelPosition=center;verticalLabelPosition=top;verticalAlign=bottom;" vertex="1" parent="nDqxRiYawHEeiHayort9-54">
          <mxGeometry x="98.6842105263158" y="28.636363636363633" width="52.631578947368425" height="88.15789473684211" as="geometry" />
        </mxCell>
        <mxCell id="nDqxRiYawHEeiHayort9-56" value="" style="image;aspect=fixed;html=1;points=[];align=center;fontSize=12;image=img/lib/azure2/web/API_Center.svg;labelPosition=center;verticalLabelPosition=top;verticalAlign=bottom;fillColor=#ffe6cc;strokeColor=#d79b00;" vertex="1" parent="1">
          <mxGeometry x="504.77000000000004" y="1080" width="68" height="68" as="geometry" />
        </mxCell>
        <mxCell id="nDqxRiYawHEeiHayort9-57" value="" style="image;aspect=fixed;html=1;points=[];align=center;fontSize=12;image=img/lib/azure2/web/API_Center.svg;labelPosition=center;verticalLabelPosition=top;verticalAlign=bottom;fillColor=#ffe6cc;strokeColor=#d79b00;" vertex="1" parent="1">
          <mxGeometry x="504.77000000000004" y="1161" width="68" height="68" as="geometry" />
        </mxCell>
        <mxCell id="nDqxRiYawHEeiHayort9-58" value="" style="image;aspect=fixed;html=1;points=[];align=center;fontSize=12;image=img/lib/azure2/web/API_Center.svg;labelPosition=center;verticalLabelPosition=top;verticalAlign=bottom;fillColor=#ffe6cc;strokeColor=#d79b00;" vertex="1" parent="1">
          <mxGeometry x="504.77000000000004" y="1240" width="68" height="68" as="geometry" />
        </mxCell>
        <mxCell id="nDqxRiYawHEeiHayort9-59" style="edgeStyle=orthogonalEdgeStyle;rounded=0;orthogonalLoop=1;jettySize=auto;html=1;fillColor=#dae8fc;strokeColor=#6c8ebf;strokeWidth=2;entryX=0.5;entryY=1.002;entryDx=0;entryDy=0;entryPerimeter=0;startArrow=classic;startFill=1;" edge="1" parent="1" source="nDqxRiYawHEeiHayort9-60" target="nDqxRiYawHEeiHayort9-55">
          <mxGeometry relative="1" as="geometry">
            <mxPoint x="330" y="1253" as="targetPoint" />
          </mxGeometry>
        </mxCell>
        <mxCell id="nDqxRiYawHEeiHayort9-60" value="pmos-api" style="shape=image;verticalLabelPosition=bottom;verticalAlign=top;imageAspect=0;aspect=fixed;image=data:image/png,iVBORw0KGgoAAAANSUhEUgAAAS0AAAFfCAYAAAFsDqqyAAAACXBIWXMAAAsSAAALEgHS3X78AAAgAElEQVR4nO2d71HduBrG5Tv7+R62gnALYEIqCKkgpIET8GdmklSQbAVL5vL5JLiBTSoIVLBwKWBJBcmpwHfESqwQki3JemVJfn4zDHCO/7x+/fix/llu+r5nOfKvLKNCYAFEDWx1dhNNsNECk0FFC45flVN//v3f//VyG/xv9f/Qn6hBxQwuelCxgiMJKkZwZEFNDW5yUP/+7/9+OizjHVyUTBmuyqupmZuSqSuTTahBsePz4MxNzpQW3Gc1KD0wn+CCgxrakS0on+Bi3ZK2AetcD34b4VT+NC03ciofXRxBGdue7DX6zXl1drPDv9qe7O0ww02836wbfTviu+vtyd7+6E5dr8qxzI3pxzVTXlflUHD//u//9h2W8QoqKLChzA3o0Cuo4MBcgwsNalJgY8FNCWpyYLbgpgYVJTA9uBhB8Z9oNXHF59x8aowYGVOyNTlT0TMWG7Rd+ILAfEFgvlgDa9ruQv+/aTsvb5Hb8F3vjsH71fH5595QDVO+HyxhsOPzi1CDHTuVr7UM9CJzR/rnyvenepa0vw/V5W07HgvsGTOU3/vN+vPQSrYd8s/7zfqLsp1H9QKnwPrN+mpMH03b7WrBvDFV57QsbUV2rdvGvdIXBOYLNOYLAvMlepdNVoFF70eKEZgMhrehMcZ+jRXcpMC0oPjvn7GCCw5MD0oSK7igwGxBxQzOO7CxoGIF5xWYKSjTjldnN0eTg/NpanLpNLUss+PbyeV0E7dlSv6vZkR+1rQdz9ZKFp9F8/uPMQlIRk/lwNXXaN9914PSlvc6rYMZcxG6mjk9KEsnhFPmKG7iMlPPLN/vumxkMDCThh5EYNCZkqU/m7bb15bn///porPRjNmCMwVlCi4kqDsS2cU+eZ+4qZ9oZB3voJx9TD+FzOGWFHT6FLyvyrELIkZQLNQuHK7WSUEFBzYUXIygJgVmCi5WUCxWTdx0E59MaFOkyUpibSvILlKBJgJfEJgvCMyXob6kU+Vv3hvy1nfjoi3/yGHRx1gLako/kanPSPYzDRb2RvqaJhUU2fH5h17psJI7s/3Wl1U7upR1dsb2+8vYqRB/fvA5fZbPP/O6QNN2B/1mfWFaRmVM/NuBathX0WnVOPZHvhbLX4z1IzG08weAwHzJVmO5ku2ZzBUkzBMkzJPBksUc6O0g0Wr1kcjG9PWmD9nirn42W3AKsydsrI0ot8TNljDfxrRcEpc8YVNbHedOXLKExW6enStx5Akjacd+uP2kiSNLmGuiXJZzeQglVeKiJ8wxAVf6gZvWG0oUHwjQb9Y7hm2TJo7iUaTRIIeW1QquxkTpwziGRk64xuTK5IRN8SifdV0TZdhH1MQFJyymmQ/1+IcmyrCPA8bYN/Fv8AN5uSjs/mlpG4bG42f8wQeHfewrI2QmP7k4t4c9StRY5ds1cbETdb//me6SO2K83eB6Q9uSXR2GbZMk6n6/hZXDhpYhTZSkhpJ+kkRJSq5LJk2UpMTWilkSJSmpPWzWRElKaHHNIlGSnNv0s0qUJLue77HK99xgqIAn6Mj1BAnzBAnzBAnzBAnzBAnzBAnzxDth6mw/hu/UWYPG5syZVABU53ty2V8svMeH8VmImrZ71OIpAn4l/r1kjD2XByb/Nhw0X+eF7JyQ25MHLwaPq1UkWweIur9HidO3K/i136x/6suOETSgTo6C10fEq1M62YJmWkLE/0P74u31D9Yd6jWyJF12tV0qi/5Qt+tK8AhEJWk/WWDXlwtjCTKhr8OVxE9Kv1kfTA4o5jOFU3/Y8fmB5UkZ4+dBj+VM3BYq356gWOEJEuYJEuYJPMwDqMsDJMsDJMsDJMsDJMsDJMsDJMuD7JLFRx/Gngc2FlklSx3+nWPCskmWPk6eZZiwLJKlJWo7NufqXMyeLEOi7oaV55iwWZNlS5Qkt4TNlqyxRElyStgsyXJNlCSXhCVPlm+iJDkkLGmyQhMlmTthyZI1NVGSOROWJFmxEiWZK2HkyYqdKMkcCSNNFlWiJKkTRpYs10Txg5SvjBjY1pUtGSkTRpKsAEV9siWMJ4ox9nRo5VQJi56sCQXORwlTE+XwlhXyhEVNlsel9+BRFVPCxhKlv09CX44iYTEfXnf2KPHns+3J3pXlu++MsSfMnqj7bVgeXCd5OjfWm7ecLz0l+D8HFOaSKKYOr7RsJ6rCYrwNzLt44JIwh0QNjkKkSNiky3BqOWroknwUqEeiLPuYfElOeWva5ALnkMJUQhPFIitsymWoTsIzpWR+Ln4b/WdKoiSxEjb5/S9TAlid3XyWrzoeuETO1X9CHiCIdSlGeSeNHpALjoniSjqakrCYnjXLe3KGEiUKpZ/4ExLqvDj83QH6C7fHLsnY5a0o5SwfhTkmivND3ETu8FUYRcE0WnXHI2EuiZIvjBhNmAmqEvwsU08Z1rlPlDLtlPoAlPGStEw9RTYREcloZc9Jzh4lSvnOmrCp+w2BpD3L9ZIcSpT47Mp2SRq2RZooRj0O3nWyMgf1Db4mL0WiWCWTmSVJFEvRu0PZIJcyUSxVvyFFwlIniqXskY6ZsDkSxVKPdYhU+Z4lUWyOUTQTK9+zJYrNNT4rJGFzJ4rNOfLPs/I9e6LY3GNKXRKWS6JYDqOVhxKWU6JYLuPgTQnLLVEst2ekTZdiTu8yy+rZHT0xub30LbunwoZ6pOcGUxV4gIczPUCyPECyPECyPECyPECyPECyPECyPECyPECyPECyPECyPECyPECyPAiZBv1i7LsUU5Kr+0g1BXqIsp7LSalVRMD3U503bWd94JLi4Jq2ext7mzohs3mf66OGJXLYItXM3jZS7S+opVQo4/7xtabtbvmTXOo87dqc7c/EcMf7R+Mkcgp1fS55y4T4zLYP2/J88v5+s76I8aTGFINXHx95MjKK+E8eXL9Z76rqcwz42mNZdbu/if8vxMl8sE8xiNeLoGRpKthh/wy7Hl0+YF/629FdJ8Z/r+yXn8zv4t0YF0LhRisZIvgNBEy5/KZsw2Ef3j6hvDtD5YirbEosUy7DjzJRhK9quH8VhOs+lPda6In5Zl7DnSnvtnjbtN2b0PUNLwQxKYj7ypuhN7Bo2zxS/r7fvvryEmXxa/0SHyWXd1iw4/OdgWWt36X8QSerB6gbeoBkeYBkeYBkeYBkeYBkeYBkeYByFiADVyIgA+ICZEBcgAyIC5ABcQEyIC5ABsTlSM6vzMsVtHONYHprHsv0CdzcgLgs2ESlA5HZgbg0BkS1ZYzt2gQHkT0G4hIMiUqf433I1SCyf1i8uHxE5bHu4kXGliyuKaLy2NaiRbY4ccUUlce2FymyxYiLUlQe+1qUyKoXV0pReex7ESKrVlxzisojlqpFVp24chKVztJEVo24chaVzlJEVry4ShKVTu0iK1Zckdup+HPvb7cne95TRRi2xecVOfXZVq0iK05cBKJaaR8fh4hMfYG9wqvtyd4Xj21UJbJixEXc+GlKgpPILKK63p7s+U088XCbVYgse3Elbvx0FhmFqAz7KFpk2Yor8u1PFcIz8SbUoeWtIpsiKjGnkbwN38/75hB/kSLLTlwUTmURS6jIVEJE9SiOWkWWjbhS3P4iiiyGqO4ImfmtFJHNLq452qlCReYKlah0chfZbOLKofEztshSiUonV5ElF1eOLepT39g4l6h0chPZHC+pfjT3umDw5FCxOrsxtWVtXXcnJoAei/1ZosPZtXx+nWj/D5i1zGWrjaW4yoSo9Mmug91TiGxs8mznmqEPq7ObfW2WdknUdjdfsqgtphRZqKhWZzfcFY62J3sfhpZLKbJcRSXJ/m3VLJLIJoiKzzf+yfDVrwO3eFKR5S4qSZYt9DFFRiAqnckicy3slyIqSdZ9i7FEptSigkUl9zlwgr1FVquoJEWMikhRJhsTlWH5UJGd8teNOMZUpKgkRY3nohCZr6gM6weJLHCbRYhKUuRI1Ii3y0cnMVSoMbZVi6gkRY+hjymyWP2KIduqTVSSKp7+mbMxdgq1ikpS1XOLpYisdlFJqnziOleRLUVUkqrnishFZEsTlWQRs9zMJbKlikqyqPm5Uols6aKSLHJmQSqRQVQPWfScqJSNsYJFikqy+Al32QSRQVTDQFwKriKDqNyAuAwMPAz7DKJyB+IaINYT10sF4nIg9InrpQNxecAnIYGo3IG4ABl4mScgA+ICZEBcgAyIC5ABcQEyIC5ABsQFyIC4ABkQFyAD4gJkQFyADIgLkAFxATIgLkDGL9SpbdpOHdPjNAeoNq/7cb9Zf9a281u/WQ9OfGvZ7gH7e0a/C991Y9G0Hd/3c6bNLKgd33m/WR/NFWMsyJ1Lm5rRNP78AXzmPUVYl1xYynYuGWPvJgjrm/jJDnF8X8XxFS8slsK5mEicvDL5b9tcoE3b8em43yjrHSjf8YTzq35HW+dITO7/ud+sb5u2499/EcudSnGOiappu3vBmsTr8D0foco/579veQz9Zn06mJjHx3FlOD6XC+nu2LX1eE5Ole3xXDi/tTYGScQleCFPML/t9Zu1aeLbv+QfBgEeyduJOIn65++bttO3d9S03SFj7KX6oXYLeiFuk++Vz0wn1Pi9tq3vQth3MTVt97vlWEzYju/92Iqq2PXbqxAY3/YfMj8pXhXDUoqLn8Cm7c7FjMYrfeJZNSkTDt5aFou0/UdYtvVWOMdfYt8HoeU8ffvqdvmDIv1mva98J4/xe79Zq69quRAX2oUQvfXuEZOUzsUTJZ2El6neCIHxW5lq6S8mbN+7LBaLpu34hfI78T7uKzoG0R0o/z7RHGwWkoqL/Z2UHeXA/2ra7hVPhvj/fM6anC+inCRngr42nPAoJ1iU52Rl6FIti0rEnUH++7XfrA+jHmwAs7RzaSfhD/F7m7qWJE6a5KPy+WdtOVvzyf0U4+rticUV1k8pLJ43k7AU3ok/X5r2z4+Lfy5ureQkdy6F/2gFeNJ3Leo1Vvl503Z3BXpe/hOi4ifyddN26tsuXoga6SfDNm8NtyFe5mmmCkzUFFfK/8btyYtV1E5PRXPOG8vyx3rNkgo8twjIQPcPIAPiAmRAXIAMiAuQAXEBMiAuQAbEBciAuAAZaEQFJMC1AAkQFiABwgIkQFiABAgLkABhARIgLEAChAVIgLAACRAWIAHCAiRAWIAECAuQAGEBEiAsR/jLOFdnN1XMfZUCCMsBLirG2FP+xDTE5QaENYIiKgnE5QCENYBBVBKIawQIy8KAqCQQ1wAQlgEHUUkgLgsQlsaAqJ7xydgMn0NcBiAshSFRbU/2rrYne/sQlxsQlmBMVPIfiMsNCMtDVBKIa5zFC8tXVBKIa5hFCytUVBKIy85ihTVVVBKIy8wihRVLVBKI6zGLE1ZsUUkgrocsSlhUopJAXP+wGGFRi0oCcf3NIoSVSlQSiGsBwkotKsnSxVW1sOYSlWTJ4qpWWHOLSrJUcVUprFxEJVmiuKoTVm6ikixNXFUJK1dRSZYkrmqElbuoJEsRVxXCKkVUkiWIq3hhlSYqSe3iKlpYpYpKUrO4ihVWLFGtzm72V2c3Ud77sjq72fHdVq3iKlJYMUUl3m7PpoqLi4ox9iNkWzWKq7iXNEUU1b0QVLYne01ATFG2NXBsx9uTvc++cc1JUY4Vs0y1Pdn7yU+YYR9eV5pNVIyxX322wypzrmKERVFQFy4QLK4hUQnhhsRUhbiKEBZl7S9UXBSiUmIqXlzZCytFk4KvuChFpcRUtLiyFlbMgvrq7GbwhLuKa4qomrbbb9rOWXgliytbYRHU/lZTxTVVVKJpY7UEcWXZ3EDcpLDdnuztjKzHT9gnx934iOpBHP1mPRiHFlNRTRHZORZBk8K5votQ5zIQKipWu3NlJSyiJoUjInFNEdV9HE3bOYuiJHFlIyziJoXY4oohKs5xv1l73cZKEVcWwkrUpBBLXLOJSokpe3HNXnhPPfRldXbDT+Zr7ePRAr0r1KJSyblAP6tjzTGeKtS5XEgpKpa5c80mrDkH6VGIK7WoJLmKaxZh5TDyM6a45hKVJEdxJRdWTsOJB8T1xXUbc4tKkpu4kgprdXZzaBHV17nGqAtx6bx0WTcXUUmEuEy49iJEI6mwtid7XyztQi9FbS05lhEMz1zi6Ddrl4vhNNUxDdzGvQcdTiX5rXCg0fF1anHZROXjnv1mPTb82KvrJhQhqpVh9WhDeXyYpfCeg7hiiEoyt7hyExWbs7lhTnHFFJVkLnHlKCo2dwPpHOIKFRWvWYnHxaykFleuomK5jMcaGP90bqm1he4nVFTqetcDta87mrYbS6rXWCxLTNmKiuXSCZ3CuSKJivNUtMVZoXau3EXFcho2QymuiKKSzCauEkTFchvoRyEuAlFJYonL+VZfiqhYjkOTCcSld3OEiop3/Wy1z6aKy7lVviRRsVyf0okpLq0PLVhUvBIhxmzFEle1omK5TwoSs7a4OrvZ3Z7s3Y4sYxWVtpzpRPvUFqsWFSthtpmZmyKs+5ggrqPaRcVKmcaIWly+olLWCxKXY0zFioqVMinIDE0RToINLXM5xFS0qFhJ0xglbIrwcsHY4qpBVKy0idcIxKULIujWahGXt7BqERUrcQ7SyE0RqiAmldembqsmUbFSJ7clENfHGJWA0G3VJipW4uS2KqmaIiipUVSs9BcI5DTMOYRaRcVqeOVJqeKqWVSslpc0lSau2kXFanqtXCniWoKoWG0vwsxdXEsRFavx1b25imtJomK1vmw8N3EtTVSsVmGxjMS1RFGxmoXFMhDXUkXFahcWm1FcSxYVW4Kw2AziWrqo2FKExRKKC6L6m8UIiyUQF0T1D4sSFiMUF0T1kMUJixGIC6J6zCKFxSKKC6Iys1hhsQjigqjsLFpYbIK4IKphFi8sFiAuiGocCEvgKi6Iyo2iH6agYOgBDcbYIUTlBoRlIPY7oZcIboUGYr4TeqlAWBZivBN6yUBYA0x5J/TSgbBGCHknNEDh3RlRoP8CUbkBYQEScCsEJEBYgAQIC5AAYQESICxAAoQFSICwAAkQFiABwgIkQFiABAgLkABhARIgLEAChAVIgLAACRAWIAHCAiRAWIAECAuQAGEBEiAsQAKEBUiAsAAJEBYgAcICJEBYgAQIC5AAYQESICxAwi+UaW3ajs8ttSv+Pew3a6cpgJq2eysmkr1fr2k7OS3Ou36zPqWJmB7lOC77zfpAOWb5+cd+s35b6vFJqB3rA2Psufj54bHe73I9IaoP2ndBNG130LTdTtxDnI64kCRvcosvBFJh9Zv1rfq/y0lt2u5C+fej+H1rWdwZ4QjfGGP7U7dFwEXyPRKTooz1m/K3SwKfyz/kLaHfrPkt9Z24fTQkUc5Iv1lfiekoL/lUlDUcE2kZi/2dtA9N270X/z4dWrZpuyPl3+/adni5qtiy1Rji4kn2dn1qyIUl4CJ5woR4RBJNqJP2H6jfK+WsW3V98fn9Z0Kc3Ol+qoXjMZTtX/Sb9SNndfheVjj4rZZ/f+RaWdG2f3cxKseyO7iisrwlHhnzo2UoSSWsfaXw/snlytTLZ4wx6XqX2vp3n4uy2ZX+ShKltiX51rSdup9G3Y7AdMs2ft+03ZXBiV/y423a7rzfrI+YG+r2pQiO1KLBAPeiadru1FABeC7uGpc+F9sUkrRjuVy5Tdt9Uf79bWBRG58t77kho2m7W01Ul+JH8prXRInDuN+faN5RRXUsyqayWPFcCI+cVI4lD/KTSMCF4cp5Kf8ItG1+ZW/7zfpBzZM7kji538RHL0y3shD6zXpXOOKrfrNWLwzVKfnnQU0cNndRXVhb5rX4/Z3Hpnx+Ki7cl0J45O1kyVretXLVA3tv2u5Q+fdBod1zH8nbqLhwdVFpRHXRpu3u3V+tIauOr4lKfnaoLEt+O0zpWJxreevQCvF/KMuEtjNdOixTNOI2JoX6SjuWe8fX2gJNHFC3naUW1sFYId6nJpULTdvtimNxKWgHIfYhy0+XIy45Fgd5jpMKS3TPPPhMFDgl71LGEwNDrZOKv+SGx2p2OTQip3YsphXiPysFTlZa57ImqgeVgpiCs5WrNO7bCnMg+bAZrRD/Wvn7OouMODRIGngVq6apIy4+Wa56NrCo2paVtDHUxFzjsUwF7SQNd7JbaKBDXBW7HBHxyH1EmUeyq30XxXmbtttX4vkq+hSNaBfse11cPF5+HKr7UTLHrfCujKCfLMpCO3cTpWz3VO67aTu13etSFnpdbmO8Z0DZ5u+iC+VWKThvIzQ1/Kn8/dISl9qa/qtSOXqv9NGqrPhFRV1JymUEqcv7l6diqhioZZcDy+34+0C5Rr01PVFE9WqO4TlCLEOjI76Ldjdy11rc+wpl4+BQmUgsc2vor7Qtz2+Fu1TlrFDmjAsvwgQk4GEKQAKEBUiAsAAJEBYgAcICJEBYgAQIC5AAYQESICxAAoQFSICwAAkQFiABwgIkQFiABAgLkABhARIw0A8AUBS4GwIAigKmBQAoCpgWAKAoYFoAgKKAaQEAigKmBQAoCpgWAKAoYFoAgKKAaQEAigKmBQAoCpgWAKAoYFoAgKKAaQEAigKmBaKzOrvZWZ3dHCKzgAJMTQOiwc2KMcZfpPhU2ebx9mTvM7IMYgHTApOxmJUOzAtEAaYFgnE0Kx2YF5gETAt4E2hWOjAvEARMCzgTyax0YF7AC5gWGCXArLaMsVtUGwEFMC1gJdCsDrYne1cMbV6ACJgWeMRUs4qwPQbzAjZgWuCe2GalA/MCMYBpAXKz0oF5gSnAtBZMarPSgXmBEGBaC2Rus9KBeQEfYFoLIjez0oF5ARdgWgsgd7PSgXmBIWBaFVOaWenAvIAJmFaFlG5WOjAvoALTqojazEoH5gUYTKsOajcrHZjXsoFpFczSzEoH5rVMYFoFsnSz0oF5LQuYVkHArIaBeS0DmFYBwKz8gHnVDUwrY2BW04B51QlMK0NgVnGBedUFTCsjYFa0wLzqAKaVATCrtMC8ygamNSMwq3mBeZUJTGsGcjSr1dnNPmNsd3uy92WuvJgQuTqgjAvmVRYwrYRkbFY8ppXy8ewXpCVXpHHBvMoAppWAgsxKJ/kF6ZgrmNeCgWkRknOb1ers5ogx9slxcfIL0jNX1yJPPzOKSQLzIgamRUBJDexzm1eOZqUD88oLmFZESu4NTG1eJZiVDswrD2BaEahp6AK1eZVoVjowr3mBaU0g0wZ2HtPO9mTvduJ2oprXXGbVtB3vcGD9Zh095zCveYBpBZCxWakxRdnnVPOa2azU3tG7fMC8ygem5UEhZkUSg695Mca+ZGJWOjCvwoFpOZD50AUu+NepYvI0rzFSmpUOzKtQYFoDFDZ0oSTzmtOsdGBehQHTMlD40IWczSsns5Ic95t1TgNn7+OCeZmBaSlUNnQhJ/NapFnpwLziANOqfIqY1OYl9nnIZ4zgjfFTh15ISjYrHZjXNBZtWkuaz2oO84pBTWalA/MKY5GmteTJ90oxr5rNSgfm5ceiTAszhf5Drua1JLPSgXm5sQjTglnZycW8lmxWOjCvYao2LZiVO67mtT3Za2LuF2ZlB+Zl5l85BhUL0cV+6rE5fuG8zfuo4uNR2voac+dN2/Fz8+dEw+I3mme1GZZgV/y4ci0en6qaxbRpBYzgPt+e7B0RhjQ7GVUNXeMYgmxke2ocp8JWyXIKHyoW13sI88q6EX7R5gWzcmOx47SWaF4FDXdYlHnBrPxY/Ij4JZhXwQNLqzYvmFUYizctSY3mNdPzh6faRXjJGDuccqHVZl4wq2nAtDRqMK9MZ3qYfOGVbl4wqzjAtCyUaF6FzKm1OPOCWcUFpjVCCeZV6Oyl1ZsXzIoGmJYjOZqXx4jpHKdalsxtXtFH0sOsaIFpeVKYec1hVvfH63nxpjYvmFWhwLQCydy8duc0K8N2cjIvmFXhwLQmUulQiShmZdjunOYFs6oEmFYkKhkqQWJWhv0kNa/YwKzmBaYVmUKHSiQxK8N+izIvmFUewLSIKGSoxCxmZYgja/OCWeUFTIuYjBvsbx0vwmRm6mkO77Ynez5zpVHHw2BWaYBpJSJT8xq6KGerts4dF8wqb2BaiSnAvLLpIEgdF8yqDGBaM4HJCPMBZlUWMK2ZgXnNB8yqTGBamQDzSgfMqmxgWpkB86IDZlUHMK1MgXnFA2ZVFzCtzIF5hQOzqhOYViHAvNyBWdUNTKswYF52YFbLAKZVKDCvf4BZLQuYVuEs2bxgVssEplUJSzIvmNWygWlVRs3mBbMCDKZVLzWZF8wKqMC0Kqdk84JZARMwrYVQknnBrMAQMK2FkbN5wayACzCthZKTecGsgA8wrYUzp3nBrEAIMC1wR0rzglmBKcC0wAMozQtmBWIA0wJGYpoXzArEBKYFBpliXjArQAFMCzgRYF4+wKyAMzAt4EVk84JZAW9gWiCIieYFswLBwLTAJDzNC2YFJgPTAlEYMS+YFYgGTAtERTMvmBWIDkwLAFAU/8LpAgCUBEwLAFAUMC0AQFHAtAAARQHTAgAUBUwLAFAUMC0AQFHAtAAARQHTAgAUBUwLAFAUMC0AQFHAtAAARQHTAgAUBUwLAFAUMC0AQFHAtAAARQHTAgAUBUwLAFAUMC0AQFHAtAAARQHTAgAUBUwLAFAUMC0AQFHAtAAARQHTAgAUBUwLAFAUMC0AQFHAtAAARQHTAgAUxS84XfFp2m6fMXbAGPvJGLvoN+vb2o6xFJq2O2WM7WvhXvWb9VvbITRttyvO3444f1dLz2NOFG1aTdt9YIy9N3x13W/WulCp9nXZb9YHYhn++5thXf7rRb9ZX8SMCTjBdfDcZUFhVn8ZPue/XvWb9RekfH6Krh72mzU3kq+Gr542bfc51n6atjuyGNZWGpbgcGAzR7HiGaNpu4um7Xrl52DaFhfD0DmylsxAWopv0+o3a24U3w1fvRZmMwlx9/1k2caD0pyoclwaluOlsSSmJb1/CbYAAAT+SURBVOJ1KlmAh4ib4LkhLdcjNySQkFratLh5/DB8/qlpu6uJbRK2dY9NbVVayWsOkpXoakTcXJDDjKmi97DfrHmD9wvL17yqtBOy3abteBvGyvDVb/1mHa36GRlUBUHVVNN7yBu5m7Z7xxj7XfuKm86FoQdpENHw/tKwzFdRjTDC25MM1bNLWwnMsPz3frPeZf/0QnLjfGI55ka03e2K4zMZLOebaEw28aCDgLeDGZb5beiYteMJWl9U5T/YjlVjyxg7dY3JB8v5u8u1IWbjsoEMdtSIdkl+vC77480lHzK+sU6iqiEP/WZ9Ki7019pXvGH+dKibW6Vpu0NLw/t30YZGyRMhUN5V/3RgP7LtTD/WYhBGdTpgtjb48u+btuPn6KPrec0Zk2GJGsLFiA5MPBFNI59Ee9yBqI1UQXXjtHibhLjo9Tv2G9G+NXj3EQ3Zf1i+TlX10odNcOHdivY1GQO/2B+UAGxDLjIebvHTYFiXopTwIF5xAZ8aTJqf151UHR0qvu2XlpLZ1lQLEDdOkw7vOgVM7akiR5+1GgI3vB9N21Uz5KbWwaX74iLXLwh+9xkb7Gk7sS9mGCRa9dguMe7pUbXLsiw3uCPRzqhfzK9FSTrLQaADBmQsJQ4szzt/rDddkaNDy3izb665zp0qH+MRJ892F7QKW7QPmdpU3iU2D373/RWDUR8zMMAzqLOFGl66NxgQP7//GajWmozpo2sblbi5ftQ/b9quirFm1T7Gw++6TdsdG8ZYrURp64GpiRNqah86521ltNE+4qqmNohQRPvkjnYDytKcdAZKS4OdEqKKb2rj49XgNxPDKiJ3Y1T97CG/MwkR6Gb0nPcOSvGIZfReRyYa3jFmhxjPnrESjufK0HjOS1e7E25G16INMJRbSwmuOKp/YFo0zJtGib8XDfNfxLACHWMDKYiHqI7bej+vRfsi//npMCxjdkRvqOnpCechI2LojumrLxRDPEpkEbM88Kpg03amnqrTgeJ4Vd3EuSEa1PVxcJeiZ6yovA8MTQgtXZ0bzPy96GxYvCaXNJ+WqdTEG91N7QTHlU1H4lNivDZ89nbsqQL+vTCiUcSNwjRw98PYRRnjedKYiHh+GAyLd97shJiMaJIwPU/Lhy44n0tew+BttaKmUQ2LmU+L96hYGuZ1zksdSTxQtfhdXFxy9PyhMGxTteWtYazXSlww12KslBz6IbdlMqCxOLeGEu4X3oBtGKO1L2L3HWRJiqXtiomeux3xVIULt7rm+FMRlu3/Kc7xtciJenPdF+dDbwr5XZy7KmoPi5oEUDTM71pGuzMxD1fpDe8vLANMnxo6G3iVY1c9ZmEo/xEXg24qT0dM/1gYmS2/KruGKtVq5JEjJqpOFw43H1KEIdlM1LeX79LUSM7nhBN6/WLYl+l82uA5e1tL1XJxM5fykoWo6jwqZkeaocFUrRyqavouP4gopTSiy912YckS0xeTkMU4n7vqoBgKcmTZjrzYHmxHtB+qjzuZZsP4Kc+B2Mdbyxi5r+Ki1ffBtNkYbBdkjPNh4tYyDVEI1n2KcyHzJEu2ptKU5L4Do9ZJC5u+z7IjBgAAjODFFgCAooBpAQCKAqYFACgKmBYAoChgWgCAooBpAQCKAqYFACgKmBYAoChgWgCAooBpAQCKAqYFACgKmBYAoChgWgCAooBpAQCKAqYFACgKmBYAoBwYY/8Hm23fSmwwMM8AAAAASUVORK5CYII=;fillColor=#dae8fc;strokeColor=#6c8ebf;strokeWidth=2;" vertex="1" parent="1">
          <mxGeometry x="488.04" y="1363" width="93.47" height="109" as="geometry" />
        </mxCell>
        <mxCell id="nDqxRiYawHEeiHayort9-61" style="edgeStyle=orthogonalEdgeStyle;rounded=0;orthogonalLoop=1;jettySize=auto;html=1;startArrow=classic;startFill=1;fillColor=#d5e8d4;strokeColor=#82b366;strokeWidth=2;" edge="1" parent="1" source="nDqxRiYawHEeiHayort9-55" target="nDqxRiYawHEeiHayort9-57">
          <mxGeometry relative="1" as="geometry" />
        </mxCell>
        <mxCell id="nDqxRiYawHEeiHayort9-62" style="edgeStyle=orthogonalEdgeStyle;rounded=0;orthogonalLoop=1;jettySize=auto;html=1;entryX=0.008;entryY=0.603;entryDx=0;entryDy=0;entryPerimeter=0;startArrow=classic;startFill=1;fillColor=#d5e8d4;strokeColor=#82b366;strokeWidth=2;" edge="1" parent="1" source="nDqxRiYawHEeiHayort9-55" target="nDqxRiYawHEeiHayort9-58">
          <mxGeometry relative="1" as="geometry" />
        </mxCell>
        <mxCell id="nDqxRiYawHEeiHayort9-63" style="edgeStyle=orthogonalEdgeStyle;rounded=0;orthogonalLoop=1;jettySize=auto;html=1;entryX=-0.002;entryY=0.446;entryDx=0;entryDy=0;entryPerimeter=0;startArrow=classic;startFill=1;fillColor=#d5e8d4;strokeColor=#82b366;strokeWidth=2;" edge="1" parent="1" source="nDqxRiYawHEeiHayort9-55" target="nDqxRiYawHEeiHayort9-56">
          <mxGeometry relative="1" as="geometry" />
        </mxCell>
        <mxCell id="nDqxRiYawHEeiHayort9-64" value="" style="sketch=0;html=1;aspect=fixed;strokeColor=#7e0101;shadow=0;fillColor=#cc0000;verticalAlign=top;labelPosition=center;verticalLabelPosition=bottom;shape=mxgraph.gcp2.increase_cost_arrows" vertex="1" parent="1">
          <mxGeometry x="599.8199999999999" y="1175.5" width="43.48" height="40" as="geometry" />
        </mxCell>
        <mxCell id="nDqxRiYawHEeiHayort9-65" value="" style="sketch=0;html=1;aspect=fixed;strokeColor=#7e0101;shadow=0;fillColor=#cc0000;verticalAlign=top;labelPosition=center;verticalLabelPosition=bottom;shape=mxgraph.gcp2.increase_cost_arrows" vertex="1" parent="1">
          <mxGeometry x="599.8199999999999" y="1094.5" width="43.48" height="40" as="geometry" />
        </mxCell>
        <mxCell id="nDqxRiYawHEeiHayort9-66" value="" style="sketch=0;html=1;aspect=fixed;strokeColor=#7e0101;shadow=0;fillColor=#cc0000;verticalAlign=top;labelPosition=center;verticalLabelPosition=bottom;shape=mxgraph.gcp2.increase_cost_arrows" vertex="1" parent="1">
          <mxGeometry x="599.8199999999999" y="1255.5" width="43.48" height="40" as="geometry" />
        </mxCell>
        <mxCell id="nDqxRiYawHEeiHayort9-67" value="" style="sketch=0;html=1;aspect=fixed;strokeColor=none;shadow=0;fillColor=#3B8DF1;verticalAlign=top;labelPosition=center;verticalLabelPosition=bottom;shape=mxgraph.gcp2.cost_arrows" vertex="1" parent="1">
          <mxGeometry x="593.3" y="1373" width="45.6" height="60" as="geometry" />
        </mxCell>
        <mxCell id="nDqxRiYawHEeiHayort9-68" value="post-auth workflows" style="text;html=1;align=center;verticalAlign=middle;whiteSpace=wrap;rounded=0;" vertex="1" parent="1">
          <mxGeometry x="390" y="1161" width="90" height="30" as="geometry" />
        </mxCell>
      </root>
    </mxGraphModel>
  </diagram>
</mxfile>
